<svg width="38" height="38" viewBox="0 0 38 38" fill="none" xmlns="http://www.w3.org/2000/svg">
<path fill-rule="evenodd" clip-rule="evenodd" d="M16.2072 4.75C14.408 4.75 12.7633 5.76652 11.9587 7.37574L11.3342 8.62475C11.066 9.16117 10.5177 9.5 9.91797 9.5H7.91675C5.2934 9.5 3.16675 11.6267 3.16675 14.25V28.5C3.16675 31.1234 5.2934 33.25 7.91675 33.25H30.0834C32.7068 33.25 34.8334 31.1234 34.8334 28.5V14.25C34.8334 11.6267 32.7068 9.5 30.0834 9.5H28.0822C27.4825 9.5 26.9342 9.16117 26.6659 8.62475L26.0415 7.37574C25.2368 5.76652 23.5921 4.75 21.7929 4.75H16.2072ZM17.4167 17.4167V12.6667H20.5834V17.4167H25.3334V20.5833H20.5834V25.3333H17.4167V20.5833H12.6667V17.4167H17.4167Z" fill="#3354FF"/>
</svg>
