<svg width="12" height="12" viewBox="0 0 12 12" fill="none" xmlns="http://www.w3.org/2000/svg">
<path d="M1.66692 8.8141L1.66684 8.81418C1.58928 8.88525 1.48476 8.92468 1.37638 8.92468C1.268 8.92468 1.16347 8.88525 1.08591 8.81418L0.0839634 7.89589C0.0839504 7.89588 0.0839374 7.89587 0.0839245 7.89586L0.0839149 7.89585L0.109252 7.8682M1.66692 8.8141L0.109252 7.38214C0.0743525 7.41401 0.0466612 7.45189 0.0277665 7.49359C0.00887182 7.5353 -0.000854492 7.58001 -0.000854492 7.62517C-0.000854492 7.67033 0.00887182 7.71504 0.0277665 7.75675C0.0466612 7.79845 0.0743525 7.83633 0.109252 7.8682M1.66692 8.8141C1.76749 8.7214 1.88731 8.64775 2.0195 8.59756C2.15169 8.54737 2.29353 8.52168 2.43678 8.52205H2.43688C3.03974 8.52205 3.52438 8.97078 3.52438 9.5158L3.52438 9.5159C3.52472 9.64595 3.49695 9.77488 3.44254 9.89524C3.38814 10.0156 3.30813 10.1251 3.20698 10.2174L3.20691 10.2174C3.12927 10.2886 3.08496 10.3859 3.08496 10.4881C3.08496 10.5903 3.12927 10.6876 3.20691 10.7588L3.20691 10.7588L4.20891 11.6771C4.28972 11.7512 4.39481 11.7877 4.49938 11.7877C4.6039 11.7877 4.70919 11.7512 4.78984 11.6771C4.78985 11.6771 4.78986 11.6771 4.78988 11.6771L11.9148 5.14589L1.66692 8.8141ZM0.109252 7.8682L1.11125 8.78653C1.18157 8.85097 1.27694 8.88718 1.37638 8.88718C1.47581 8.88718 1.57118 8.85097 1.6415 8.78653C1.74571 8.69048 1.86966 8.61433 2.00619 8.5625C2.14271 8.51066 2.2891 8.48417 2.43688 8.48455C3.05731 8.48455 3.56188 8.94706 3.56188 9.5158L0.109252 7.8682ZM5.72734 3.74512L5.72735 3.74513C5.80499 3.81632 5.8493 3.9136 5.8493 4.0158C5.8493 4.11798 5.805 4.21525 5.72738 4.28644C5.72737 4.28645 5.72736 4.28646 5.72735 4.28647L5.702 4.25883C5.62888 4.32603 5.53288 4.35955 5.43688 4.35955L5.72734 3.74512ZM5.72734 3.74512L5.46012 3.50017M5.72734 3.74512L5.46012 3.50017M2.43697 7.75955C2.07205 7.75862 1.71458 7.85426 1.40736 8.03497L0.96031 7.62517L4.87438 4.03711L5.14638 4.28644L4.31188 9.5158M2.43697 7.75955L2.43688 7.79705V7.75955C2.43691 7.75955 2.43694 7.75955 2.43697 7.75955ZM2.43697 7.75955C3.48834 7.75959 4.34932 8.54434 4.34938 9.51569M4.34938 9.51569L4.31188 9.5158M4.34938 9.51569C4.34938 9.51573 4.34938 9.51576 4.34938 9.5158H4.31188M4.34938 9.51569C4.35029 9.85024 4.2465 10.1775 4.0511 10.4587L4.49937 10.8695L8.41363 7.28142L8.14689 7.0369C8.14681 7.03683 8.14673 7.03676 8.14665 7.03669C8.10724 7.00174 8.07561 6.95979 8.05376 6.91316C8.03186 6.86642 8.02027 6.81602 8.01978 6.76491C8.0193 6.71381 8.02993 6.66322 8.05095 6.61612C8.07196 6.56904 8.1029 6.52649 8.14176 6.49086C8.18062 6.45524 8.22666 6.42723 8.2771 6.40831C8.32754 6.38939 8.38149 6.3799 8.43583 6.38034C8.49016 6.38077 8.54393 6.39111 8.59402 6.41084C8.644 6.43052 8.68942 6.45919 8.72756 6.49532C8.72765 6.4954 8.72773 6.49548 8.72782 6.49556L8.99938 6.74449L11.0384 4.87517L10.5914 4.46537C10.2842 4.64607 9.92677 4.74171 9.56188 4.7408L4.31188 9.5158M5.46012 3.50017L7.49938 1.63085L7.94765 2.04161C7.75225 2.32286 7.64846 2.6501 7.64938 2.98465M5.46012 3.50017L7.64938 2.98465M7.64938 2.98465C7.64938 2.98461 7.64938 2.98458 7.64938 2.98455H7.68688L7.64938 2.98465ZM7.64938 2.98465C7.64944 3.95601 8.51041 4.74075 9.56178 4.7408L7.64938 2.98465ZM7.20891 0.823246L0.0839634 7.35445L8.9138 2.01225C8.9138 1.91005 8.86949 1.81277 8.79185 1.74158L8.79184 1.74157L7.78984 0.823244L7.7645 0.85089L7.78984 0.823242C7.71228 0.752172 7.60775 0.712744 7.49938 0.712744C7.391 0.712744 7.28647 0.752172 7.20892 0.823242L7.20891 0.823246ZM8.47438 2.98455C8.47438 2.7201 8.58673 2.47111 8.79185 2.28292L11.971 5.00675C11.9899 4.96504 11.9996 4.92033 11.9996 4.87517C11.9996 4.83001 11.9899 4.7853 11.971 4.74359C11.9521 4.70189 11.9244 4.66401 11.8895 4.63214L11.9148 4.60449L11.9148 4.60445L10.9128 3.68617L10.8875 3.71381L10.9128 3.68616C10.8353 3.61509 10.7308 3.57567 10.6224 3.57567C10.514 3.57567 10.4095 3.61509 10.3319 3.68616L10.3318 3.68624C10.2313 3.77894 10.1114 3.8526 9.97926 3.90279C9.84706 3.95298 9.70522 3.97866 9.56197 3.9783H9.56188C8.95901 3.9783 8.47438 3.52956 8.47438 2.98455Z" fill="#484554" stroke="#484554" stroke-width="0.0750001"/>
</svg>
