<svg width="9" height="8" viewBox="0 0 9 8" fill="none" xmlns="http://www.w3.org/2000/svg">
<path d="M1.66128 1.61913C1.66128 1.51533 1.75163 1.43002 1.86494 1.43002C1.91853 1.43002 1.9706 1.44993 2.00888 1.48547L2.23703 1.69733C2.18191 1.8253 2.15128 1.96607 2.15128 2.11252C2.15128 2.39547 2.26153 2.65283 2.44528 2.85189C2.36413 2.98271 2.38403 3.15191 2.50347 3.26424C2.64741 3.39789 2.88016 3.39789 3.02257 3.26424L4.6166 1.78549C4.76053 1.65183 4.76053 1.43571 4.6166 1.30347C4.49563 1.19114 4.31341 1.17408 4.17253 1.24944C3.95816 1.07739 3.681 0.97502 3.37628 0.97502C3.21857 0.97502 3.06697 1.00346 2.92916 1.05322L2.701 0.841363C2.47897 0.635191 2.17732 0.52002 1.86494 0.52002C1.2111 0.52002 0.681284 1.01199 0.681284 1.61913V4.16002C0.410253 4.16002 0.191284 4.36335 0.191284 4.61502C0.191284 4.86669 0.410253 5.07002 0.681284 5.07002H7.54128C7.81232 5.07002 8.03128 4.86669 8.03128 4.61502C8.03128 4.36335 7.81232 4.16002 7.54128 4.16002H1.66128V1.61913ZM0.681284 5.52502V5.75252C0.681284 6.15633 0.871159 6.52033 1.17128 6.77058V7.34502C1.17128 7.59669 1.39025 7.80002 1.66128 7.80002C1.93232 7.80002 2.15128 7.59669 2.15128 7.34502V7.11752H6.07128V7.34502C6.07128 7.59669 6.29025 7.80002 6.56128 7.80002C6.83232 7.80002 7.05128 7.59669 7.05128 7.34502V6.77058C7.35141 6.52033 7.54128 6.15775 7.54128 5.75252V5.52502H0.681284Z" fill="#19BC86"/>
</svg>
