<svg width="10" height="8" viewBox="0 0 10 8" fill="none" xmlns="http://www.w3.org/2000/svg">
<path d="M8.30968 3.67415C8.12235 3.58912 7.91997 3.5453 7.71539 3.54548H2.36682C2.16226 3.54528 1.95988 3.58903 1.77253 3.67396C1.50774 3.79371 1.28242 3.99063 1.12411 4.24066C0.965799 4.49069 0.881357 4.78299 0.881104 5.08185V7.23276C0.881104 7.31425 0.91241 7.39241 0.968135 7.45003C1.02386 7.50766 1.09944 7.54003 1.17825 7.54003C1.25705 7.54003 1.33263 7.50766 1.38836 7.45003C1.44408 7.39241 1.47539 7.31425 1.47539 7.23276V7.07912C1.47587 7.03853 1.49168 6.99974 1.51944 6.97103C1.5472 6.94233 1.58471 6.92598 1.62396 6.92548H8.45825C8.4975 6.92598 8.53501 6.94233 8.56277 6.97103C8.59053 6.99974 8.60634 7.03853 8.60682 7.07912V7.23276C8.60682 7.31425 8.63812 7.39241 8.69385 7.45003C8.74957 7.50766 8.82515 7.54003 8.90396 7.54003C8.98277 7.54003 9.05835 7.50766 9.11407 7.45003C9.1698 7.39241 9.2011 7.31425 9.2011 7.23276V5.08185C9.20081 4.78302 9.11636 4.49076 8.95805 4.24077C8.79974 3.99078 8.57444 3.79389 8.30968 3.67415ZM7.26967 0.780029H2.81253C2.53671 0.780029 2.27218 0.893336 2.07714 1.09502C1.8821 1.29671 1.77253 1.57026 1.77253 1.85548V3.23821C1.77254 3.25012 1.77522 3.26185 1.78037 3.2725C1.78552 3.28315 1.79299 3.29242 1.80219 3.29957C1.81139 3.30672 1.82208 3.31156 1.8334 3.31371C1.84472 3.31586 1.85637 3.31526 1.86743 3.31196C2.02965 3.2629 2.19781 3.23806 2.36682 3.23821H2.44538C2.46371 3.23833 2.48144 3.23144 2.49516 3.21885C2.50887 3.20626 2.5176 3.18888 2.51966 3.17004C2.53587 3.01989 2.60499 2.88118 2.71382 2.7804C2.82266 2.67962 2.96358 2.62382 3.10967 2.62367H4.14967C4.29587 2.62368 4.43692 2.67941 4.54588 2.78021C4.65483 2.881 4.72403 3.01979 4.74025 3.17004C4.74231 3.18888 4.75104 3.20626 4.76475 3.21885C4.77847 3.23144 4.7962 3.23833 4.81453 3.23821H5.26879C5.28713 3.23833 5.30486 3.23144 5.31857 3.21885C5.33228 3.20626 5.34101 3.18888 5.34308 3.17004C5.35927 3.01999 5.42831 2.88136 5.53703 2.78059C5.64575 2.67982 5.78653 2.62396 5.93253 2.62367H6.97253C7.11872 2.62368 7.25978 2.67941 7.36873 2.78021C7.47768 2.881 7.54689 3.01979 7.5631 3.17004C7.56517 3.18888 7.57389 3.20626 7.58761 3.21885C7.60132 3.23144 7.61905 3.23833 7.63739 3.23821H7.71539C7.88441 3.23813 8.05257 3.26303 8.21478 3.31215C8.22585 3.31546 8.23752 3.31605 8.24885 3.31389C8.26019 3.31173 8.27088 3.30687 8.28009 3.2997C8.2893 3.29253 8.29676 3.28324 8.3019 3.27257C8.30703 3.26189 8.3097 3.25013 8.30968 3.23821V1.85548C8.30968 1.57026 8.2001 1.29671 8.00507 1.09502C7.81003 0.893336 7.5455 0.780029 7.26967 0.780029Z" fill="#19BC86"/>
</svg>
