<svg width="78" height="68" viewBox="0 0 78 68" fill="none" xmlns="http://www.w3.org/2000/svg">
<g clip-path="url(#clip0_679_3094)">
<path d="M44.426 41.3299C54.3144 41.3299 62.3327 33.3456 62.3327 23.4969C62.3327 13.6511 54.3144 5.66675 44.426 5.66675C34.5377 5.66675 26.5279 13.6511 26.5279 23.4969C26.5279 28.0586 28.6075 31.3764 28.6075 31.3764L6.9552 52.9381C5.98336 53.9071 4.62336 56.4231 6.9552 58.7464L9.4542 61.2341C10.426 62.0642 12.8684 63.2259 14.8659 61.2341L17.7842 58.3327C20.6969 61.2341 24.0289 59.5766 25.2784 57.9163C27.358 55.0149 24.8619 52.1108 24.8619 52.1108L25.6949 51.2806C29.6899 55.2643 33.189 52.9409 34.4385 51.2806C36.521 48.3793 34.4385 45.4751 34.4385 45.4751C33.6055 43.8176 31.9395 43.8176 34.022 41.7436L36.521 39.2559C38.5185 40.9134 42.6269 41.3299 44.4317 41.3299H44.426Z" stroke="#19BC86" stroke-width="2" stroke-linejoin="round"/>
<path d="M50.6733 23.4997C50.6695 25.1524 50.0096 26.736 48.8386 27.9022C47.6676 29.0684 46.0813 29.7219 44.4286 29.7189C42.7759 29.7219 41.1897 29.0684 40.0187 27.9022C38.8476 26.736 38.1877 25.1524 38.184 23.4997C38.1854 22.6811 38.3481 21.8709 38.6628 21.1152C38.9774 20.3595 39.4378 19.6732 40.0177 19.0954C40.5975 18.5176 41.2855 18.0597 42.0424 17.7479C42.7992 17.436 43.6101 17.2762 44.4286 17.2777C45.2472 17.2762 46.058 17.436 46.8149 17.7479C47.5717 18.0597 48.2597 18.5176 48.8396 19.0954C49.4195 19.6732 49.8798 20.3595 50.1945 21.1152C50.5091 21.8709 50.6718 22.6811 50.6733 23.4997Z" stroke="#19BC86" stroke-width="2"/>
</g>
<defs>
<clipPath id="clip0_679_3094">
<rect width="78" height="68" fill="white"/>
</clipPath>
</defs>
</svg>
