<svg width="172" height="172" viewBox="0 0 172 172" fill="none" xmlns="http://www.w3.org/2000/svg">
<g filter="url(#filter0_d_605_4051)">
<path d="M8.08594 18.4479C8.08594 10.4686 14.5545 4 22.5338 4H150.181C158.16 4 164.629 10.4685 164.629 18.4479V146.095C164.629 154.075 158.16 160.543 150.181 160.543H22.5339C14.5545 160.543 8.08594 154.075 8.08594 146.095V18.4479Z" fill="white"/>
<g clip-path="url(#clip0_605_4051)">
<path d="M124.193 66.0755L87.1338 35.9698C86.4403 35.4063 85.5284 35.4011 84.8305 35.9559L47.9961 65.2632C47.0533 66.0128 46.8026 67.5259 47.4345 68.6425C48.065 69.7591 49.3406 70.0565 50.2818 69.3086L56.0512 64.7171C56.2271 66.9833 57.1831 68.9886 58.5979 70.3469C58.4088 70.5296 58.2255 70.7243 58.051 70.9313C56.7432 72.4844 56.0219 74.5489 56.0219 76.7455C56.0219 79.323 57.0276 81.6274 58.5979 83.1353C58.4088 83.3179 58.2255 83.5127 58.051 83.7197C56.7432 85.2728 56.0219 87.3372 56.0219 89.5339C56.0219 92.1114 57.0276 94.4158 58.5979 95.9237C58.4088 96.1046 58.2255 96.3011 58.051 96.5081C56.7432 98.0612 56.0219 100.126 56.0219 102.322C56.0219 106.855 59.1301 110.543 62.9524 110.543H108.884C110.735 110.543 112.473 109.688 113.783 108.135C115.092 106.582 115.813 104.517 115.813 102.322C115.813 99.743 114.808 97.4368 113.236 95.9307C113.425 95.748 113.608 95.5532 113.783 95.3463C115.092 93.7949 115.813 91.7305 115.813 89.5339C115.813 86.9546 114.808 84.6484 113.236 83.1423C113.425 82.9597 113.608 82.7649 113.783 82.5579C115.092 81.0065 115.813 78.9421 115.813 76.7455C115.813 74.5489 115.092 72.4809 113.784 70.9313C113.605 70.7191 113.422 70.5243 113.237 70.3469C114.569 69.0686 115.494 67.2181 115.744 65.1154L121.873 70.0948C122.228 70.3817 122.633 70.5209 123.031 70.5209C123.687 70.5209 124.329 70.1504 124.728 69.4599C125.367 68.3521 125.128 66.8355 124.193 66.0755ZM85.9623 40.9196L104.468 55.955L67.3142 55.7567L85.9623 40.9196ZM73.2038 81.3126H62.9524C60.8279 81.3126 59.1008 79.2638 59.1008 76.7455C59.1008 75.5246 59.5011 74.3767 60.2297 73.514C60.9555 72.6514 61.9217 72.1766 62.9524 72.1766H73.2038V81.3126ZM59.1008 89.5339C59.1008 88.3129 59.5011 87.1651 60.2283 86.3024C60.957 85.4398 61.9232 84.965 62.9524 84.965H73.2038V94.101H62.9524C60.8279 94.101 59.1008 92.0522 59.1008 89.5339ZM73.2038 106.891H62.9524C60.8279 106.891 59.1008 104.841 59.1008 102.322C59.1008 101.101 59.5011 99.9534 60.2297 99.0908C60.9555 98.2281 61.9217 97.7533 62.9524 97.7533H73.2038V106.891ZM95.6639 106.891H76.2827V72.1766H95.6639V106.891ZM111.606 105.552C110.878 106.415 109.912 106.891 108.884 106.891H98.7429V97.7533H108.884C111.007 97.7533 112.734 99.8021 112.734 102.322C112.734 103.541 112.334 104.689 111.606 105.552ZM111.606 92.7636C110.88 93.6262 109.914 94.101 108.884 94.101H98.7429V84.965H108.884C111.007 84.965 112.734 87.0137 112.734 89.5339C112.734 90.753 112.334 91.9009 111.606 92.7636ZM111.606 79.9734C110.878 80.8361 109.912 81.3126 108.884 81.3126H98.7429V72.1766H108.884C109.258 72.1766 110.56 72.2722 111.607 73.5158C112.334 74.3767 112.734 75.5228 112.734 76.7455C112.734 77.9681 112.334 79.1125 111.606 79.9734ZM108.884 68.5243H62.9524C60.8279 68.5243 59.1008 66.4737 59.1008 63.9554C59.1008 63.2545 59.2342 62.5901 59.4732 61.9953C60.0655 60.5222 61.303 59.4804 62.7457 59.3917H62.7471C62.8131 59.3882 62.8791 59.3865 62.9451 59.3865L107.735 59.6247C108.267 59.6247 108.826 59.736 109.371 59.9378V59.9395C110.553 60.3761 111.664 61.2352 112.265 62.2909C112.559 62.8075 112.732 63.371 112.732 63.9554C112.732 66.4737 111.006 68.5225 108.881 68.5243H108.884Z" fill="#484554"/>
</g>
<path d="M54.0288 134.943C54.0288 133.845 54.2741 132.863 54.7648 131.999C55.2661 131.125 55.9434 130.447 56.7968 129.967C57.6608 129.477 58.6261 129.231 59.6928 129.231C60.9408 129.231 62.0341 129.551 62.9728 130.191C63.9114 130.831 64.5674 131.717 64.9408 132.847H62.3648C62.1088 132.314 61.7461 131.914 61.2768 131.647C60.8181 131.381 60.2848 131.247 59.6768 131.247C59.0261 131.247 58.4448 131.402 57.9328 131.711C57.4314 132.01 57.0368 132.437 56.7488 132.991C56.4714 133.546 56.3328 134.197 56.3328 134.943C56.3328 135.679 56.4714 136.33 56.7488 136.895C57.0368 137.45 57.4314 137.882 57.9328 138.191C58.4448 138.49 59.0261 138.639 59.6768 138.639C60.2848 138.639 60.8181 138.506 61.2768 138.239C61.7461 137.962 62.1088 137.557 62.3648 137.023H64.9408C64.5674 138.165 63.9114 139.055 62.9728 139.695C62.0448 140.325 60.9514 140.639 59.6928 140.639C58.6261 140.639 57.6608 140.399 56.7968 139.919C55.9434 139.429 55.2661 138.751 54.7648 137.887C54.2741 137.023 54.0288 136.042 54.0288 134.943ZM66.278 136.079C66.278 135.183 66.454 134.389 66.806 133.695C67.1687 133.002 67.654 132.469 68.262 132.095C68.8807 131.722 69.5687 131.535 70.326 131.535C70.9873 131.535 71.5633 131.669 72.054 131.935C72.5553 132.202 72.9553 132.538 73.254 132.943V131.679H75.51V140.543H73.254V139.247C72.966 139.663 72.566 140.01 72.054 140.287C71.5527 140.554 70.9713 140.687 70.31 140.687C69.5633 140.687 68.8807 140.495 68.262 140.111C67.654 139.727 67.1687 139.189 66.806 138.495C66.454 137.791 66.278 136.986 66.278 136.079ZM73.254 136.111C73.254 135.567 73.1473 135.103 72.934 134.719C72.7207 134.325 72.4327 134.026 72.07 133.823C71.7073 133.61 71.318 133.503 70.902 133.503C70.486 133.503 70.102 133.605 69.75 133.807C69.398 134.01 69.11 134.309 68.886 134.703C68.6727 135.087 68.566 135.546 68.566 136.079C68.566 136.613 68.6727 137.082 68.886 137.487C69.11 137.882 69.398 138.186 69.75 138.399C70.1127 138.613 70.4967 138.719 70.902 138.719C71.318 138.719 71.7073 138.618 72.07 138.415C72.4327 138.202 72.7207 137.903 72.934 137.519C73.1473 137.125 73.254 136.655 73.254 136.111ZM79.9378 132.975C80.2258 132.549 80.6204 132.202 81.1218 131.935C81.6338 131.669 82.2151 131.535 82.8658 131.535C83.6231 131.535 84.3058 131.722 84.9138 132.095C85.5324 132.469 86.0178 133.002 86.3698 133.695C86.7324 134.378 86.9138 135.173 86.9138 136.079C86.9138 136.986 86.7324 137.791 86.3698 138.495C86.0178 139.189 85.5324 139.727 84.9138 140.111C84.3058 140.495 83.6231 140.687 82.8658 140.687C82.2044 140.687 81.6231 140.559 81.1218 140.303C80.6311 140.037 80.2364 139.695 79.9378 139.279V140.543H77.6978V128.703H79.9378V132.975ZM84.6258 136.079C84.6258 135.546 84.5138 135.087 84.2898 134.703C84.0764 134.309 83.7884 134.01 83.4258 133.807C83.0738 133.605 82.6898 133.503 82.2738 133.503C81.8684 133.503 81.4844 133.61 81.1218 133.823C80.7698 134.026 80.4818 134.325 80.2578 134.719C80.0444 135.114 79.9378 135.578 79.9378 136.111C79.9378 136.645 80.0444 137.109 80.2578 137.503C80.4818 137.898 80.7698 138.202 81.1218 138.415C81.4844 138.618 81.8684 138.719 82.2738 138.719C82.6898 138.719 83.0738 138.613 83.4258 138.399C83.7884 138.186 84.0764 137.882 84.2898 137.487C84.5138 137.093 84.6258 136.623 84.6258 136.079ZM87.9655 136.079C87.9655 135.183 88.1415 134.389 88.4935 133.695C88.8562 133.002 89.3415 132.469 89.9495 132.095C90.5682 131.722 91.2562 131.535 92.0135 131.535C92.6748 131.535 93.2508 131.669 93.7415 131.935C94.2428 132.202 94.6428 132.538 94.9415 132.943V131.679H97.1975V140.543H94.9415V139.247C94.6535 139.663 94.2535 140.01 93.7415 140.287C93.2402 140.554 92.6588 140.687 91.9975 140.687C91.2508 140.687 90.5682 140.495 89.9495 140.111C89.3415 139.727 88.8562 139.189 88.4935 138.495C88.1415 137.791 87.9655 136.986 87.9655 136.079ZM94.9415 136.111C94.9415 135.567 94.8348 135.103 94.6215 134.719C94.4082 134.325 94.1202 134.026 93.7575 133.823C93.3948 133.61 93.0055 133.503 92.5895 133.503C92.1735 133.503 91.7895 133.605 91.4375 133.807C91.0855 134.01 90.7975 134.309 90.5735 134.703C90.3602 135.087 90.2535 135.546 90.2535 136.079C90.2535 136.613 90.3602 137.082 90.5735 137.487C90.7975 137.882 91.0855 138.186 91.4375 138.399C91.8002 138.613 92.1842 138.719 92.5895 138.719C93.0055 138.719 93.3948 138.618 93.7575 138.415C94.1202 138.202 94.4082 137.903 94.6215 137.519C94.8348 137.125 94.9415 136.655 94.9415 136.111ZM104.297 131.551C105.353 131.551 106.207 131.887 106.857 132.559C107.508 133.221 107.833 134.149 107.833 135.343V140.543H105.593V135.647C105.593 134.943 105.417 134.405 105.065 134.031C104.713 133.647 104.233 133.455 103.625 133.455C103.007 133.455 102.516 133.647 102.153 134.031C101.801 134.405 101.625 134.943 101.625 135.647V140.543H99.3853V131.679H101.625V132.783C101.924 132.399 102.303 132.101 102.761 131.887C103.231 131.663 103.743 131.551 104.297 131.551ZM100.953 130.831C101.049 130.127 101.268 129.605 101.609 129.263C101.961 128.911 102.404 128.735 102.937 128.735C103.161 128.735 103.359 128.773 103.529 128.847C103.7 128.911 103.892 129.007 104.105 129.135C104.425 129.338 104.692 129.439 104.905 129.439C105.3 129.439 105.529 129.21 105.593 128.751H106.793C106.697 129.455 106.473 129.983 106.121 130.335C105.78 130.677 105.343 130.847 104.809 130.847C104.585 130.847 104.388 130.815 104.217 130.751C104.047 130.677 103.855 130.575 103.641 130.447C103.332 130.234 103.065 130.127 102.841 130.127C102.447 130.127 102.212 130.362 102.137 130.831H100.953ZM109.387 136.079C109.387 135.183 109.563 134.389 109.915 133.695C110.278 133.002 110.763 132.469 111.371 132.095C111.99 131.722 112.678 131.535 113.435 131.535C114.097 131.535 114.673 131.669 115.163 131.935C115.665 132.202 116.065 132.538 116.363 132.943V131.679H118.619V140.543H116.363V139.247C116.075 139.663 115.675 140.01 115.163 140.287C114.662 140.554 114.081 140.687 113.419 140.687C112.673 140.687 111.99 140.495 111.371 140.111C110.763 139.727 110.278 139.189 109.915 138.495C109.563 137.791 109.387 136.986 109.387 136.079ZM116.363 136.111C116.363 135.567 116.257 135.103 116.043 134.719C115.83 134.325 115.542 134.026 115.179 133.823C114.817 133.61 114.427 133.503 114.011 133.503C113.595 133.503 113.211 133.605 112.859 133.807C112.507 134.01 112.219 134.309 111.995 134.703C111.782 135.087 111.675 135.546 111.675 136.079C111.675 136.613 111.782 137.082 111.995 137.487C112.219 137.882 112.507 138.186 112.859 138.399C113.222 138.613 113.606 138.719 114.011 138.719C114.427 138.719 114.817 138.618 115.179 138.415C115.542 138.202 115.83 137.903 116.043 137.519C116.257 137.125 116.363 136.655 116.363 136.111Z" fill="#484554"/>
</g>
<defs>
<filter id="filter0_d_605_4051" x="0.885938" y="0.8" width="170.943" height="170.943" filterUnits="userSpaceOnUse" color-interpolation-filters="sRGB">
<feFlood flood-opacity="0" result="BackgroundImageFix"/>
<feColorMatrix in="SourceAlpha" type="matrix" values="0 0 0 0 0 0 0 0 0 0 0 0 0 0 0 0 0 0 127 0" result="hardAlpha"/>
<feOffset dy="4"/>
<feGaussianBlur stdDeviation="3.6"/>
<feComposite in2="hardAlpha" operator="out"/>
<feColorMatrix type="matrix" values="0 0 0 0 0.555 0 0 0 0 0.555 0 0 0 0 0.555 0 0 0 0.25 0"/>
<feBlend mode="normal" in2="BackgroundImageFix" result="effect1_dropShadow_605_4051"/>
<feBlend mode="normal" in="SourceGraphic" in2="effect1_dropShadow_605_4051" result="shape"/>
</filter>
<clipPath id="clip0_605_4051">
<rect width="78" height="75" fill="white" transform="translate(47.0859 35.5435)"/>
</clipPath>
</defs>
</svg>
