<svg width="172" height="172" viewBox="0 0 172 172" fill="none" xmlns="http://www.w3.org/2000/svg">
<g filter="url(#filter0_d_605_4050)">
<path d="M7.71484 18.4479C7.71484 10.4686 14.1834 4 22.1628 4H149.81C157.789 4 164.258 10.4685 164.258 18.4479V146.095C164.258 154.075 157.789 160.543 149.81 160.543H22.1628C14.1834 160.543 7.71484 154.075 7.71484 146.095V18.4479Z" fill="white"/>
<g clip-path="url(#clip0_605_4050)">
<path d="M46.7148 109.012C46.9501 108.312 47.3952 108.06 48.0373 108.069C49.9342 108.094 51.8332 108.074 53.7322 108.084C53.9568 108.084 54.0882 108.011 54.209 107.785C60.3807 96.245 66.5608 84.7097 72.7367 73.1745C76.6258 65.9089 80.5128 58.6433 84.4019 51.3778C84.4718 51.2479 84.5375 51.1157 84.6075 50.9858C85.0843 50.077 86.0529 50.077 86.5467 50.9932C87.2652 52.3233 87.9773 53.6584 88.6894 54.9934C93.2122 63.4397 97.735 71.8835 102.258 80.3298C104.428 84.3839 106.598 88.4405 108.769 92.4971C108.826 92.6049 108.889 92.7077 108.991 92.8866V72.3416C108.855 72.3416 108.726 72.3416 108.597 72.3416C106.456 72.3416 104.316 72.3416 102.175 72.3416C101.544 72.3416 101.124 72.0134 100.98 71.4255C100.884 71.0286 100.984 70.6759 101.156 70.3329C102.98 66.6928 104.803 63.0502 106.624 59.4076C106.687 59.2802 106.745 59.1455 106.836 58.952C106.348 58.952 105.922 58.952 105.496 58.952C104.479 58.9471 103.996 57.9697 104.509 56.9507C105.727 54.5255 106.948 52.1004 108.167 49.6753C108.222 49.5651 108.273 49.4548 108.368 49.2613C108.035 49.2613 107.758 49.2613 107.48 49.2613C107.304 49.2613 107.126 49.2638 106.95 49.2613C106.024 49.2466 105.532 48.2423 106.022 47.3237C106.607 46.2287 107.219 45.1508 107.821 44.0681C109.224 41.5352 110.623 38.9949 112.041 36.4718C112.238 36.124 112.541 35.8545 112.795 35.5508C113.016 35.5508 113.236 35.5508 113.457 35.5508C113.855 35.7884 114.107 36.1754 114.3 36.6286C114.408 36.8785 114.54 37.1161 114.663 37.3586C116.324 40.6803 117.984 44.002 119.647 47.3188C119.84 47.7058 119.925 48.0977 119.762 48.5191C119.554 49.058 119.179 49.2907 118.679 49.2858C118.223 49.2833 117.77 49.2858 117.265 49.2858C117.341 49.4499 117.38 49.5381 117.422 49.6263C118.615 52.0808 119.813 54.5353 121.002 56.9923C121.502 58.0236 121.01 58.9814 119.991 58.9814C119.611 58.9814 119.234 58.9814 118.791 58.9814C120.792 62.9816 122.752 66.9059 124.713 70.8302V71.4426C124.446 72.1407 123.967 72.3612 123.329 72.3539C121.188 72.3318 119.05 72.3465 116.909 72.3465C116.78 72.3465 116.653 72.3465 116.489 72.3465C116.489 72.5449 116.489 72.6944 116.489 72.8462C116.489 83.8989 116.494 94.9516 116.481 106.004C116.481 106.656 116.581 107.217 116.913 107.751C117.07 108.001 117.216 108.094 117.475 108.094C119.351 108.082 121.224 108.086 123.1 108.089C123.818 108.089 124.225 108.378 124.367 108.983C124.516 109.613 124.293 110.098 123.666 110.521C123.657 110.526 123.657 110.543 123.651 110.556H47.5096C47.1387 110.372 46.8674 110.073 46.7148 109.637V109.025V109.012ZM84.4676 108.06V55.9414C75.1401 73.368 65.8657 90.6917 56.57 108.057H84.4676V108.06ZM114.364 108.057C114.406 108.018 114.449 107.981 114.489 107.942C111.426 102.158 108.319 96.4067 105.236 90.6354C102.152 84.8665 99.0596 79.1001 95.9716 73.3337C92.8837 67.5673 89.7936 61.8009 86.7057 56.0369C86.6802 56.0492 86.6569 56.0614 86.6315 56.0737V56.375C86.6315 59.4493 86.6378 62.5211 86.6251 65.5954C86.623 66.2053 86.6951 66.7761 86.8816 67.3493C87.1677 68.2189 87.4135 69.1057 87.6763 69.9851C90.8809 80.6801 94.0854 91.3776 97.2899 102.073C97.5951 103.094 97.434 103.552 96.5926 104.057C94.558 105.282 92.5234 106.506 90.4888 107.731C90.3468 107.817 90.209 107.905 90.067 107.993C90.0734 108.015 90.0819 108.037 90.0882 108.057H114.359H114.364ZM108.845 46.7921C109.366 46.7921 109.805 46.7798 110.244 46.7945C111.066 46.8215 111.545 47.7278 111.193 48.5877C111.142 48.715 111.079 48.8351 111.017 48.9551C109.83 51.3116 108.641 53.6682 107.455 56.0271C107.391 56.1545 107.332 56.2844 107.238 56.4779C107.707 56.4779 108.112 56.4779 108.514 56.4779C109.629 56.4828 110.095 57.4136 109.544 58.538C109.512 58.6041 109.479 58.6703 109.445 58.7364C107.645 62.3202 105.848 65.9016 104.051 69.4854C104 69.5882 103.958 69.696 103.898 69.8308H121.748C121.676 69.6691 121.625 69.5466 121.565 69.429C120.76 67.8172 119.955 66.2078 119.147 64.5959C118.126 62.5554 117.108 60.5124 116.08 58.4743C115.822 57.9623 115.771 57.4724 116.085 56.9752C116.32 56.6028 116.653 56.4705 117.038 56.4754C117.441 56.4779 117.844 56.4754 118.299 56.4754C118.198 56.255 118.132 56.1104 118.062 55.9684C116.894 53.5677 115.724 51.1696 114.559 48.7689C114.063 47.7499 114.559 46.7749 115.572 46.7725C115.998 46.7725 116.422 46.7725 116.924 46.7725C115.629 44.1881 114.374 41.6846 113.09 39.1223C111.67 41.6895 110.282 44.1979 108.847 46.7921H108.845ZM86.6463 107.236C86.7332 107.2 86.7756 107.19 86.8116 107.168C89.4905 105.554 92.1695 103.934 94.8526 102.33C95.09 102.188 95.0179 102.033 94.9586 101.835C92.2606 92.84 89.5647 83.8426 86.8689 74.8451C86.8138 74.659 86.7544 74.4752 86.6951 74.2915C86.6781 74.2964 86.6612 74.3038 86.6442 74.3087V107.236H86.6463ZM114.27 102.773L114.336 102.754V72.3637H111.155C111.155 72.5547 111.155 72.7189 111.155 72.8805C111.155 80.4694 111.163 88.0559 111.142 95.6448C111.14 96.5316 111.286 97.2836 111.719 98.0357C112.609 99.5838 113.425 101.191 114.27 102.771V102.773Z" fill="#484554"/>
<path d="M69.3267 57.5362C67.5507 57.5362 65.7746 57.546 63.9986 57.5362C61.6481 57.519 59.8615 55.5961 59.6686 52.899C59.4948 50.4568 60.8915 48.208 62.96 47.6348C63.1826 47.5736 63.2546 47.4192 63.3331 47.2159C64.2084 44.9035 66.385 43.6468 68.3836 44.3474C68.8604 44.514 69.2864 44.8643 69.7463 45.1043C69.8777 45.1729 70.06 45.2195 70.1872 45.168C72.1434 44.3597 74.0233 45.1827 75.0385 47.2894C75.102 47.4217 75.2843 47.5246 75.4242 47.5491C78.3786 48.0561 80.0826 51.8604 78.652 54.8538C77.8191 56.598 76.4818 57.4994 74.7545 57.5313C72.9466 57.5631 71.1367 57.5386 69.3288 57.5386L69.3267 57.5362ZM69.3479 55.062C71.1557 55.062 72.9657 55.0767 74.7735 55.0571C76.3991 55.04 77.4885 53.1685 76.8188 51.537C76.361 50.42 75.545 49.9374 74.4832 49.957C73.7075 49.9717 73.3959 49.6778 73.2243 48.8278C72.9911 47.6642 71.9908 47.042 71.0265 47.4682C70.7594 47.5858 70.5008 47.7352 70.2423 47.8749C69.7209 48.159 69.2525 48.0512 68.8732 47.5491C68.3136 46.8068 67.627 46.4394 66.7813 46.7064C65.8827 46.9905 65.3465 47.7083 65.1642 48.7665C65.0222 49.6018 64.7064 49.9276 63.9774 49.9595C62.6739 50.0183 61.7732 51.1353 61.8029 52.6614C61.8283 54.0308 62.7863 55.0571 64.0515 55.0596C65.817 55.062 67.5803 55.0596 69.3458 55.0596L69.3479 55.062Z" fill="#484554"/>
</g>
<path d="M48.4702 134.943C48.4702 133.845 48.7155 132.863 49.2062 131.999C49.7075 131.125 50.3848 130.447 51.2382 129.967C52.1022 129.477 53.0675 129.231 54.1342 129.231C55.3822 129.231 56.4755 129.551 57.4142 130.191C58.3528 130.831 59.0088 131.717 59.3822 132.847H56.8062C56.5502 132.314 56.1875 131.914 55.7182 131.647C55.2595 131.381 54.7262 131.247 54.1182 131.247C53.4675 131.247 52.8862 131.402 52.3742 131.711C51.8728 132.01 51.4782 132.437 51.1902 132.991C50.9128 133.546 50.7742 134.197 50.7742 134.943C50.7742 135.679 50.9128 136.33 51.1902 136.895C51.4782 137.45 51.8728 137.882 52.3742 138.191C52.8862 138.49 53.4675 138.639 54.1182 138.639C54.7262 138.639 55.2595 138.506 55.7182 138.239C56.1875 137.962 56.5502 137.557 56.8062 137.023H59.3822C59.0088 138.165 58.3528 139.055 57.4142 139.695C56.4862 140.325 55.3928 140.639 54.1342 140.639C53.0675 140.639 52.1022 140.399 51.2382 139.919C50.3848 139.429 49.7075 138.751 49.2062 137.887C48.7155 137.023 48.4702 136.042 48.4702 134.943ZM60.7194 136.079C60.7194 135.183 60.8954 134.389 61.2474 133.695C61.6101 133.002 62.0954 132.469 62.7034 132.095C63.3221 131.722 64.0101 131.535 64.7674 131.535C65.4287 131.535 66.0047 131.669 66.4954 131.935C66.9967 132.202 67.3967 132.538 67.6954 132.943V131.679H69.9514V140.543H67.6954V139.247C67.4074 139.663 67.0074 140.01 66.4954 140.287C65.9941 140.554 65.4127 140.687 64.7514 140.687C64.0047 140.687 63.3221 140.495 62.7034 140.111C62.0954 139.727 61.6101 139.189 61.2474 138.495C60.8954 137.791 60.7194 136.986 60.7194 136.079ZM67.6954 136.111C67.6954 135.567 67.5887 135.103 67.3754 134.719C67.1621 134.325 66.8741 134.026 66.5114 133.823C66.1487 133.61 65.7594 133.503 65.3434 133.503C64.9274 133.503 64.5434 133.605 64.1914 133.807C63.8394 134.01 63.5514 134.309 63.3274 134.703C63.1141 135.087 63.0074 135.546 63.0074 136.079C63.0074 136.613 63.1141 137.082 63.3274 137.487C63.5514 137.882 63.8394 138.186 64.1914 138.399C64.5541 138.613 64.9381 138.719 65.3434 138.719C65.7594 138.719 66.1487 138.618 66.5114 138.415C66.8741 138.202 67.1621 137.903 67.3754 137.519C67.5887 137.125 67.6954 136.655 67.6954 136.111ZM83.1472 131.551C84.2352 131.551 85.1098 131.887 85.7712 132.559C86.4432 133.221 86.7792 134.149 86.7792 135.343V140.543H84.5392V135.647C84.5392 134.954 84.3632 134.426 84.0112 134.063C83.6592 133.69 83.1792 133.503 82.5712 133.503C81.9632 133.503 81.4778 133.69 81.1152 134.063C80.7632 134.426 80.5872 134.954 80.5872 135.647V140.543H78.3472V135.647C78.3472 134.954 78.1712 134.426 77.8192 134.063C77.4672 133.69 76.9872 133.503 76.3792 133.503C75.7605 133.503 75.2698 133.69 74.9072 134.063C74.5552 134.426 74.3792 134.954 74.3792 135.647V140.543H72.1392V131.679H74.3792V132.751C74.6672 132.378 75.0352 132.085 75.4832 131.871C75.9418 131.658 76.4432 131.551 76.9872 131.551C77.6805 131.551 78.2992 131.701 78.8432 131.999C79.3872 132.287 79.8085 132.703 80.1072 133.247C80.3952 132.735 80.8112 132.325 81.3552 132.015C81.9098 131.706 82.5072 131.551 83.1472 131.551ZM91.1448 132.959C91.4328 132.554 91.8274 132.218 92.3288 131.951C92.8408 131.674 93.4221 131.535 94.0728 131.535C94.8301 131.535 95.5128 131.722 96.1208 132.095C96.7394 132.469 97.2248 133.002 97.5768 133.695C97.9394 134.378 98.1208 135.173 98.1208 136.079C98.1208 136.986 97.9394 137.791 97.5768 138.495C97.2248 139.189 96.7394 139.727 96.1208 140.111C95.5128 140.495 94.8301 140.687 94.0728 140.687C93.4221 140.687 92.8461 140.554 92.3448 140.287C91.8541 140.021 91.4541 139.685 91.1448 139.279V144.767H88.9048V131.679H91.1448V132.959ZM95.8328 136.079C95.8328 135.546 95.7208 135.087 95.4968 134.703C95.2834 134.309 94.9954 134.01 94.6328 133.807C94.2808 133.605 93.8968 133.503 93.4808 133.503C93.0754 133.503 92.6914 133.61 92.3288 133.823C91.9768 134.026 91.6888 134.325 91.4648 134.719C91.2514 135.114 91.1448 135.578 91.1448 136.111C91.1448 136.645 91.2514 137.109 91.4648 137.503C91.6888 137.898 91.9768 138.202 92.3288 138.415C92.6914 138.618 93.0754 138.719 93.4808 138.719C93.8968 138.719 94.2808 138.613 94.6328 138.399C94.9954 138.186 95.2834 137.882 95.4968 137.487C95.7208 137.093 95.8328 136.623 95.8328 136.079ZM100.885 130.623C100.49 130.623 100.159 130.501 99.8925 130.255C99.6365 129.999 99.5085 129.685 99.5085 129.311C99.5085 128.938 99.6365 128.629 99.8925 128.383C100.159 128.127 100.49 127.999 100.885 127.999C101.279 127.999 101.605 128.127 101.861 128.383C102.127 128.629 102.261 128.938 102.261 129.311C102.261 129.685 102.127 129.999 101.861 130.255C101.605 130.501 101.279 130.623 100.885 130.623ZM101.989 131.679V140.543H99.7485V131.679H101.989ZM109.114 131.551C110.17 131.551 111.023 131.887 111.674 132.559C112.324 133.221 112.65 134.149 112.65 135.343V140.543H110.41V135.647C110.41 134.943 110.234 134.405 109.882 134.031C109.53 133.647 109.05 133.455 108.442 133.455C107.823 133.455 107.332 133.647 106.97 134.031C106.618 134.405 106.442 134.943 106.442 135.647V140.543H104.202V131.679H106.442V132.783C106.74 132.399 107.119 132.101 107.578 131.887C108.047 131.663 108.559 131.551 109.114 131.551ZM118.252 131.535C118.913 131.535 119.494 131.669 119.996 131.935C120.497 132.191 120.892 132.527 121.18 132.943V131.679H123.436V140.607C123.436 141.429 123.27 142.159 122.94 142.799C122.609 143.45 122.113 143.962 121.452 144.335C120.79 144.719 119.99 144.911 119.052 144.911C117.793 144.911 116.758 144.618 115.948 144.031C115.148 143.445 114.694 142.645 114.588 141.631H116.812C116.929 142.037 117.18 142.357 117.564 142.591C117.958 142.837 118.433 142.959 118.988 142.959C119.638 142.959 120.166 142.762 120.572 142.367C120.977 141.983 121.18 141.397 121.18 140.607V139.231C120.892 139.647 120.492 139.994 119.98 140.271C119.478 140.549 118.902 140.687 118.252 140.687C117.505 140.687 116.822 140.495 116.204 140.111C115.585 139.727 115.094 139.189 114.732 138.495C114.38 137.791 114.204 136.986 114.204 136.079C114.204 135.183 114.38 134.389 114.732 133.695C115.094 133.002 115.58 132.469 116.188 132.095C116.806 131.722 117.494 131.535 118.252 131.535ZM121.18 136.111C121.18 135.567 121.073 135.103 120.86 134.719C120.646 134.325 120.358 134.026 119.996 133.823C119.633 133.61 119.244 133.503 118.828 133.503C118.412 133.503 118.028 133.605 117.676 133.807C117.324 134.01 117.036 134.309 116.812 134.703C116.598 135.087 116.492 135.546 116.492 136.079C116.492 136.613 116.598 137.082 116.812 137.487C117.036 137.882 117.324 138.186 117.676 138.399C118.038 138.613 118.422 138.719 118.828 138.719C119.244 138.719 119.633 138.618 119.996 138.415C120.358 138.202 120.646 137.903 120.86 137.519C121.073 137.125 121.18 136.655 121.18 136.111Z" fill="#484554"/>
</g>
<defs>
<filter id="filter0_d_605_4050" x="0.514844" y="0.8" width="170.943" height="170.943" filterUnits="userSpaceOnUse" color-interpolation-filters="sRGB">
<feFlood flood-opacity="0" result="BackgroundImageFix"/>
<feColorMatrix in="SourceAlpha" type="matrix" values="0 0 0 0 0 0 0 0 0 0 0 0 0 0 0 0 0 0 127 0" result="hardAlpha"/>
<feOffset dy="4"/>
<feGaussianBlur stdDeviation="3.6"/>
<feComposite in2="hardAlpha" operator="out"/>
<feColorMatrix type="matrix" values="0 0 0 0 0.555 0 0 0 0 0.555 0 0 0 0 0.555 0 0 0 0.25 0"/>
<feBlend mode="normal" in2="BackgroundImageFix" result="effect1_dropShadow_605_4050"/>
<feBlend mode="normal" in="SourceGraphic" in2="effect1_dropShadow_605_4050" result="shape"/>
</filter>
<clipPath id="clip0_605_4050">
<rect width="78" height="75" fill="white" transform="translate(46.7148 35.5435)"/>
</clipPath>
</defs>
</svg>
