<svg width="172" height="172" viewBox="0 0 172 172" fill="none" xmlns="http://www.w3.org/2000/svg">
<g filter="url(#filter0_d_700_6294)">
<path d="M8 18.4479C8 10.4686 14.4685 4 22.4479 4H150.095C158.075 4 164.543 10.4685 164.543 18.4479V146.095C164.543 154.075 158.075 160.543 150.095 160.543H22.4479C14.4686 160.543 8 154.075 8 146.095V18.4479Z" fill="white"/>
<path d="M50.5459 110.543L121.454 110.543C121.92 110.544 122.381 110.458 122.811 110.292C123.241 110.125 123.632 109.881 123.961 109.574C124.291 109.266 124.552 108.901 124.73 108.499C124.908 108.098 125 107.667 125 107.232V68.9612C125 68.4998 124.897 68.0435 124.697 67.6216C124.497 67.1997 124.205 66.8214 123.84 66.511L88.3825 36.4046C88.3825 36.4046 86.8795 35.5434 85.9974 35.5435C85.1154 35.5435 84.265 35.8506 83.6124 36.4048L48.1603 66.511C47.7948 66.8214 47.5028 67.1997 47.303 67.6216C47.1032 68.0435 47 68.4997 47 68.9611V107.232C47 107.667 47.0917 108.098 47.2699 108.499C47.4481 108.901 47.7093 109.266 48.0386 109.574C48.3679 109.881 48.7588 110.125 49.189 110.291C49.6192 110.458 50.0803 110.543 50.5459 110.543Z" stroke="#4E4E4E" stroke-width="3" stroke-linecap="round" stroke-linejoin="round"/>
<path d="M65.7163 134.943C65.7163 133.845 65.9616 132.863 66.4523 131.999C66.9536 131.125 67.6309 130.447 68.4843 129.967C69.3483 129.477 70.3136 129.231 71.3803 129.231C72.6283 129.231 73.7216 129.551 74.6603 130.191C75.5989 130.831 76.2549 131.717 76.6283 132.847H74.0523C73.7963 132.314 73.4336 131.914 72.9643 131.647C72.5056 131.381 71.9723 131.247 71.3643 131.247C70.7136 131.247 70.1323 131.402 69.6203 131.711C69.1189 132.01 68.7243 132.437 68.4363 132.991C68.1589 133.546 68.0203 134.197 68.0203 134.943C68.0203 135.679 68.1589 136.33 68.4363 136.895C68.7243 137.45 69.1189 137.882 69.6203 138.191C70.1323 138.49 70.7136 138.639 71.3643 138.639C71.9723 138.639 72.5056 138.506 72.9643 138.239C73.4336 137.962 73.7963 137.557 74.0523 137.023H76.6283C76.2549 138.165 75.5989 139.055 74.6603 139.695C73.7323 140.325 72.6389 140.639 71.3803 140.639C70.3136 140.639 69.3483 140.399 68.4843 139.919C67.6309 139.429 66.9536 138.751 66.4523 137.887C65.9616 137.023 65.7163 136.042 65.7163 134.943ZM77.9655 136.079C77.9655 135.183 78.1415 134.389 78.4935 133.695C78.8562 133.002 79.3415 132.469 79.9495 132.095C80.5682 131.722 81.2562 131.535 82.0135 131.535C82.6748 131.535 83.2508 131.669 83.7415 131.935C84.2428 132.202 84.6428 132.538 84.9415 132.943V131.679H87.1975V140.543H84.9415V139.247C84.6535 139.663 84.2535 140.01 83.7415 140.287C83.2402 140.554 82.6588 140.687 81.9975 140.687C81.2508 140.687 80.5682 140.495 79.9495 140.111C79.3415 139.727 78.8562 139.189 78.4935 138.495C78.1415 137.791 77.9655 136.986 77.9655 136.079ZM84.9415 136.111C84.9415 135.567 84.8348 135.103 84.6215 134.719C84.4082 134.325 84.1202 134.026 83.7575 133.823C83.3948 133.61 83.0055 133.503 82.5895 133.503C82.1735 133.503 81.7895 133.605 81.4375 133.807C81.0855 134.01 80.7975 134.309 80.5735 134.703C80.3602 135.087 80.2535 135.546 80.2535 136.079C80.2535 136.613 80.3602 137.082 80.5735 137.487C80.7975 137.882 81.0855 138.186 81.4375 138.399C81.8002 138.613 82.1842 138.719 82.5895 138.719C83.0055 138.719 83.3948 138.618 83.7575 138.415C84.1202 138.202 84.4082 137.903 84.6215 137.519C84.8348 137.125 84.9415 136.655 84.9415 136.111ZM92.7773 140.687C92.0519 140.687 91.4013 140.559 90.8253 140.303C90.2493 140.037 89.7906 139.679 89.4493 139.231C89.1186 138.783 88.9373 138.287 88.9053 137.743H91.1613C91.2039 138.085 91.3693 138.367 91.6573 138.591C91.9559 138.815 92.3239 138.927 92.7613 138.927C93.1879 138.927 93.5186 138.842 93.7533 138.671C93.9986 138.501 94.1213 138.282 94.1213 138.015C94.1213 137.727 93.9719 137.514 93.6733 137.375C93.3853 137.226 92.9213 137.066 92.2812 136.895C91.6199 136.735 91.0759 136.57 90.6493 136.399C90.2333 136.229 89.8706 135.967 89.5613 135.615C89.2626 135.263 89.1133 134.789 89.1133 134.191C89.1133 133.701 89.2519 133.253 89.5293 132.847C89.8173 132.442 90.2226 132.122 90.7453 131.887C91.2786 131.653 91.9026 131.535 92.6173 131.535C93.6733 131.535 94.5159 131.802 95.1453 132.335C95.7746 132.858 96.1213 133.567 96.1853 134.463H94.0413C94.0093 134.111 93.8599 133.834 93.5933 133.631C93.3373 133.418 92.9906 133.311 92.5533 133.311C92.1479 133.311 91.8333 133.386 91.6093 133.535C91.3959 133.685 91.2893 133.893 91.2893 134.159C91.2893 134.458 91.4386 134.687 91.7373 134.847C92.0359 134.997 92.4999 135.151 93.1293 135.311C93.7693 135.471 94.2973 135.637 94.7133 135.807C95.1293 135.978 95.4866 136.245 95.7853 136.607C96.0946 136.959 96.2546 137.429 96.2653 138.015C96.2653 138.527 96.1213 138.986 95.8333 139.391C95.5559 139.797 95.1506 140.117 94.6173 140.351C94.0946 140.575 93.4813 140.687 92.7773 140.687ZM97.528 136.079C97.528 135.183 97.704 134.389 98.056 133.695C98.4187 133.002 98.904 132.469 99.512 132.095C100.131 131.722 100.819 131.535 101.576 131.535C102.237 131.535 102.813 131.669 103.304 131.935C103.805 132.202 104.205 132.538 104.504 132.943V131.679H106.76V140.543H104.504V139.247C104.216 139.663 103.816 140.01 103.304 140.287C102.803 140.554 102.221 140.687 101.56 140.687C100.813 140.687 100.131 140.495 99.512 140.111C98.904 139.727 98.4187 139.189 98.056 138.495C97.704 137.791 97.528 136.986 97.528 136.079ZM104.504 136.111C104.504 135.567 104.397 135.103 104.184 134.719C103.971 134.325 103.683 134.026 103.32 133.823C102.957 133.61 102.568 133.503 102.152 133.503C101.736 133.503 101.352 133.605 101 133.807C100.648 134.01 100.36 134.309 100.136 134.703C99.9227 135.087 99.816 135.546 99.816 136.079C99.816 136.613 99.9227 137.082 100.136 137.487C100.36 137.882 100.648 138.186 101 138.399C101.363 138.613 101.747 138.719 102.152 138.719C102.568 138.719 102.957 138.618 103.32 138.415C103.683 138.202 103.971 137.903 104.184 137.519C104.397 137.125 104.504 136.655 104.504 136.111Z" fill="#484554"/>
</g>
<defs>
<filter id="filter0_d_700_6294" x="0.8" y="0.8" width="170.943" height="170.943" filterUnits="userSpaceOnUse" color-interpolation-filters="sRGB">
<feFlood flood-opacity="0" result="BackgroundImageFix"/>
<feColorMatrix in="SourceAlpha" type="matrix" values="0 0 0 0 0 0 0 0 0 0 0 0 0 0 0 0 0 0 127 0" result="hardAlpha"/>
<feOffset dy="4"/>
<feGaussianBlur stdDeviation="3.6"/>
<feComposite in2="hardAlpha" operator="out"/>
<feColorMatrix type="matrix" values="0 0 0 0 0.555 0 0 0 0 0.555 0 0 0 0 0.555 0 0 0 0.25 0"/>
<feBlend mode="normal" in2="BackgroundImageFix" result="effect1_dropShadow_700_6294"/>
<feBlend mode="normal" in="SourceGraphic" in2="effect1_dropShadow_700_6294" result="shape"/>
</filter>
</defs>
</svg>
