<svg width="61" height="58" viewBox="0 0 61 58" fill="none" xmlns="http://www.w3.org/2000/svg">
<mask id="mask0_679_3118" style="mask-type:alpha" maskUnits="userSpaceOnUse" x="22" y="23" width="39" height="35">
<rect x="22.7197" y="23.0078" width="37.803" height="34.4627" fill="#D9D9D9"/>
</mask>
<g mask="url(#mask0_679_3118)">
<path d="M41.5902 54.3194L41.6219 54.3453L41.6535 54.3194L43.9374 52.4527L43.9375 52.4526C46.5894 50.2745 48.7821 48.3952 50.5156 46.8149C52.2493 45.2343 53.6295 43.8145 54.6554 42.5555C55.6812 41.2966 56.3999 40.1373 56.8094 39.0777C57.2185 38.0191 57.4231 36.9361 57.4231 35.8288C57.4231 33.5652 56.5903 31.6731 54.926 30.1558C53.2619 28.6388 51.1887 27.8812 48.7099 27.8812C47.3382 27.8812 46.032 28.1457 44.7919 28.6749C43.5686 29.1969 42.5117 29.9298 41.6219 30.8735C40.732 29.9298 39.6751 29.1969 38.4518 28.6749C37.2117 28.1457 35.9055 27.8812 34.5338 27.8812C32.055 27.8812 29.9818 28.6388 28.3177 30.1558C26.6534 31.6731 25.8206 33.5652 25.8206 35.8288C25.8206 36.9361 26.0253 38.0191 26.4343 39.0777C26.8438 40.1373 27.5625 41.2966 28.5883 42.5555C29.6142 43.8145 30.9944 45.2343 32.7281 46.8149C34.4616 48.3952 36.6543 50.2745 39.3062 52.4526L39.3063 52.4527L41.5902 54.3194ZM47.8101 45.0715C46.1901 46.5365 44.1274 48.2923 41.6219 50.3391C39.1163 48.2923 37.0536 46.5365 35.4336 45.0715C33.8068 43.6004 32.5221 42.3215 31.5788 41.2347C30.6354 40.1477 29.9827 39.1829 29.618 38.3398C29.2529 37.4958 29.0709 36.659 29.0709 35.8288C29.0709 34.4068 29.5901 33.2236 30.6297 32.2759C31.6695 31.328 32.9697 30.853 34.5338 30.853C35.7586 30.853 36.8916 31.1677 37.9338 31.7972C38.4497 32.1087 38.7693 32.5138 39.0699 32.942C39.115 33.0062 39.1597 33.071 39.2046 33.1361C39.4584 33.5039 39.7188 33.8816 40.0922 34.2148C40.534 34.6091 41.0211 34.8085 41.5385 34.8085C42.055 34.8085 42.5961 34.6098 43.1472 34.2183C43.6896 33.8329 43.9727 33.3886 44.2411 32.9672L44.2584 32.9401C44.5322 32.5105 44.7958 32.1077 45.3099 31.7972C46.3521 31.1677 47.4851 30.853 48.7099 30.853C50.274 30.853 51.5742 31.328 52.614 32.2759C53.6536 33.2236 54.1729 34.4068 54.1729 35.8288C54.1729 36.659 53.9908 37.4958 53.6257 38.3398C53.261 39.1829 52.6083 40.1477 51.6649 41.2347C50.7216 42.3215 49.4369 43.6004 47.8101 45.0715Z" fill="#19BC86" stroke="#19BC86" stroke-width="0.1"/>
</g>
<line x1="1" y1="-1" x2="36.1309" y2="-1" transform="matrix(0.807952 -0.589248 0.659586 0.751629 1 23.8794)" stroke="#19BC86" stroke-width="2" stroke-linecap="round"/>
<path d="M30 2L56.4815 22.6927" stroke="#19BC86" stroke-width="2" stroke-linecap="round"/>
<path d="M8 18.4094V50.0483C8 51.2284 9.9 53.0517 13.5 53.0517C17.1 53.0517 23 53.0517 25.5 53.0517" stroke="#19BC86" stroke-width="2" stroke-linecap="round"/>
</svg>
