<svg width="38" height="38" viewBox="0 0 38 38" fill="none" xmlns="http://www.w3.org/2000/svg">
<path d="M26.172 32.0645C26.1106 31.6363 25.9088 31.2437 25.6007 30.9568L25.6004 30.9566C24.9773 30.3805 24.4776 29.6681 24.1358 28.8675C23.794 28.067 23.6181 27.1974 23.6203 26.3178V26.3175C23.6203 22.9018 26.1976 20.1675 29.3971 20.1675C32.5966 20.1675 35.1739 22.9018 35.1739 26.3175C35.1739 27.7279 34.606 29.1317 33.7818 30.2274C32.956 31.3251 31.8848 32.0986 30.8917 32.2689L30.8916 32.269C29.1173 32.5744 27.8215 33.2514 26.5317 33.9254C26.3792 34.005 26.2269 34.0846 26.0738 34.1636C26.1447 33.7661 26.208 33.3566 26.2224 32.9497M26.172 32.0645C26.2223 32.3563 26.2393 32.6535 26.2224 32.9497M26.172 32.0645C26.172 32.0649 26.1721 32.0654 26.1722 32.0659L26.0732 32.08L26.1717 32.063C26.1718 32.0635 26.1719 32.064 26.172 32.0645ZM26.2224 32.9497C26.2224 32.95 26.2224 32.9504 26.2224 32.9507L26.1225 32.945L26.2225 32.9485C26.2225 32.9489 26.2225 32.9493 26.2224 32.9497ZM16.055 -0.0798544V-0.0798584L16.0541 -0.0798977C15.067 -0.122936 14.0785 -0.0644622 13.1021 0.0946694L13.0606 0.0174659L12.9727 0.0642146C12.9454 0.0787174 12.9227 0.0979352 12.9075 0.111026C12.9046 0.113494 12.902 0.115791 12.8995 0.117938C12.8939 0.122765 12.8892 0.126834 12.8849 0.130387C10.8488 0.468899 8.89784 1.23939 7.14791 2.39582C5.39098 3.55688 3.87302 5.083 2.68476 6.8824L2.68463 6.88261C0.681041 9.93309 -0.284568 13.618 -0.053768 17.3296C0.177032 21.0411 1.59056 24.5591 3.95479 27.3028L3.95483 27.3028C8.64799 32.7423 16.1658 34.1005 22.2923 30.7603C22.6798 31.4426 23.1274 32.0895 23.6675 32.646L23.6676 32.6466C23.6687 32.6596 23.67 32.6741 23.6712 32.6912C23.6736 32.7282 23.6752 32.7778 23.672 32.8417C23.6447 33.2591 23.5887 33.6737 23.5046 34.0823L23.5044 34.0834C23.4132 34.551 23.3032 35.0166 23.2163 35.3711C23.2163 35.3711 23.2163 35.3712 23.2163 35.3712L23.1059 35.8159L23.1056 35.8171C23.1016 35.8342 23.0972 35.8516 23.0927 35.8694C23.0832 35.9069 23.0732 35.9465 23.065 35.9901C23.0649 35.9906 23.0648 35.9911 23.0647 35.9915L23.0641 35.9942C23.057 36.0267 23.0496 36.0609 23.0402 36.1408L23.0401 36.1408L23.0397 36.1457C23.035 36.2154 23.0317 36.2853 23.0301 36.3552L23.0299 36.3641L23.0313 36.3729L23.0783 36.6754L23.08 36.6865L23.0842 36.6969L23.2064 37.0044L23.2136 37.0224L23.2269 37.0364L23.6359 37.4664L23.6443 37.4753L23.6546 37.4818L24.2235 37.8443L24.2745 37.8769L24.327 37.8467L24.9146 37.5093C27.1157 36.2476 28.7084 35.3779 31.2993 34.9336L31.2994 34.9335C34.8617 34.3186 37.7246 30.5233 37.7246 26.3175C37.7246 21.8725 34.5963 18.2072 30.5621 17.5946C31.1077 10.58 27.3907 3.88003 21.1675 1.14347C19.5422 0.426536 17.8127 0.012665 16.055 -0.0798544ZM21.0449 4.09558C21.9225 4.56319 22.7371 5.11605 23.4724 5.76194C22.9989 5.97127 22.5166 6.15701 22.0269 6.31855L22.0125 6.2726L22.0126 6.27256L22.011 6.26804C21.7367 5.52087 21.4138 4.79497 21.0449 4.09558ZM4.77935 8.42495L4.77954 8.42465C4.85617 8.3072 4.94243 8.1996 5.03278 8.09076C5.04982 8.07023 5.06706 8.04961 5.0844 8.02884C5.14031 7.96193 5.19739 7.89362 5.25273 7.82292C6.05708 8.24529 6.91367 8.60956 7.82831 8.91372C7.36538 10.8742 7.09391 12.8803 7.01821 14.9H2.53202C2.7441 12.6281 3.48153 10.3988 4.77935 8.42495ZM14.901 10.1L14.9011 10.1C16.7672 10.1271 18.585 9.93153 20.3099 9.57521C20.6943 11.1921 20.9312 13.0005 21.0158 14.9H9.5671C9.64212 13.1 9.88696 11.3127 10.2979 9.56477C11.7734 9.86772 13.305 10.0754 14.901 10.1ZM15.4617 25.135H15.4619C16.8081 25.1374 18.1506 25.2758 19.4531 25.5116C18.6403 27.5929 17.5935 29.0976 16.6519 29.7762C15.7959 29.8767 14.9325 29.8847 14.0749 29.8C13.5845 29.5264 13.0551 28.9956 12.5398 28.2494C12.0369 27.5211 11.5516 26.5938 11.1323 25.5164C12.5247 25.2619 13.9888 25.1302 15.4617 25.135ZM20.9442 28.4535C21.0443 28.2649 21.1428 28.0725 21.2384 27.8747C21.2561 28.0079 21.2756 28.1425 21.3029 28.2741C21.1849 28.3388 21.0656 28.3962 20.9442 28.4535ZM15.9223 2.61487C16.0271 2.62077 16.1333 2.63846 16.2448 2.65844C16.2571 2.66064 16.2695 2.66287 16.2819 2.66512C16.3738 2.68169 16.4695 2.69896 16.5656 2.70968C17.5653 3.29773 18.6796 4.77951 19.5179 6.96949C18.0579 7.25022 16.5182 7.42422 14.9374 7.40002C13.647 7.36915 12.3612 7.22547 11.093 6.97046C11.8899 4.87756 12.9326 3.3894 13.8713 2.69102C14.5512 2.60732 15.2386 2.58186 15.9223 2.61487ZM7.11694 5.78964C7.88372 5.10634 8.70186 4.50821 9.57883 4.03759C9.20129 4.76942 8.87062 5.5276 8.58911 6.30698C8.58621 6.3143 8.58358 6.32163 8.58119 6.32884C8.08581 6.17237 7.59724 5.99246 7.11694 5.78964ZM22.7805 8.89922C23.6698 8.60749 24.5366 8.24359 25.3734 7.81075C26.869 9.85821 27.7845 12.3176 28.0119 14.9H23.5678C23.4994 12.8764 23.2356 10.8655 22.7805 8.89922ZM5.24133 24.6562C3.72883 22.6259 2.79286 20.1777 2.5441 17.6H7.0164C7.10415 19.6406 7.36716 21.6591 7.82091 23.5299C6.93519 23.8347 6.0728 24.2112 5.24133 24.6562ZM9.56748 17.6H21.0178C20.9283 19.4708 20.678 21.2715 20.28 22.8949C16.9856 22.2148 13.5998 22.2047 10.3019 22.8653C9.8939 21.1404 9.64788 19.3767 9.56748 17.6ZM23.3367 20.3153C23.4534 19.4145 23.531 18.5085 23.5693 17.6H28.0134L28.0116 17.6199C26.2139 17.9487 24.5718 18.8979 23.3367 20.3153ZM7.10806 26.7088C7.58507 26.4996 8.08467 26.3077 8.60685 26.1396C8.90821 26.9747 9.25906 27.7421 9.63989 28.4636C8.73368 27.988 7.8837 27.3989 7.10806 26.7088Z" fill="#484554" stroke="#484554" stroke-width="0.2"/>
</svg>
