<svg width="68" height="68" viewBox="0 0 68 68" fill="none" xmlns="http://www.w3.org/2000/svg">
<g clip-path="url(#clip0_676_4287)">
<path d="M34.0004 44.6251C41.3354 44.6251 47.2816 38.7384 47.2816 31.4767C47.2816 24.215 41.3354 18.3282 34.0004 18.3282C26.6653 18.3282 20.7191 24.215 20.7191 31.4767C20.7191 38.7384 26.6653 44.6251 34.0004 44.6251Z" stroke="#19BC86" stroke-width="2" stroke-linecap="round" stroke-linejoin="round"/>
<path d="M12.7501 57.6405C14.7447 53.724 17.7856 50.4352 21.5361 48.138C25.2866 45.8408 29.6004 44.6249 34.0001 44.6249C38.3998 44.6249 42.7136 45.8407 46.4641 48.1379C50.2146 50.4351 53.2555 53.7239 55.2501 57.6404" stroke="#19BC86" stroke-width="2" stroke-linecap="round" stroke-linejoin="round"/>
<path d="M49.6719 10.3593H65.6094" stroke="#19BC86" stroke-width="2" stroke-linecap="round" stroke-linejoin="round"/>
<path d="M57.6405 2.39062V18.3281" stroke="#19BC86" stroke-width="2" stroke-linecap="round" stroke-linejoin="round"/>
<path d="M65.2181 29.0412C66.2655 35.635 65.1981 42.3911 62.1691 48.3409C59.14 54.2906 54.3049 59.1285 48.3568 62.1609C42.4087 65.1933 35.6532 66.2644 29.0588 65.2207C22.4644 64.177 16.3699 61.0721 11.6489 56.3512C6.92796 51.6302 3.82306 45.5356 2.77938 38.9413C1.7357 32.3469 2.80685 25.5914 5.83924 19.6433C8.87163 13.6952 13.7095 8.86005 19.6593 5.83101C25.6091 2.80198 32.3652 1.73465 38.959 2.78206" stroke="#19BC86" stroke-width="2" stroke-linecap="round" stroke-linejoin="round"/>
</g>
<defs>
<clipPath id="clip0_676_4287">
<rect width="68" height="68" fill="white"/>
</clipPath>
</defs>
</svg>
