<svg width="172" height="172" viewBox="0 0 172 172" fill="none" xmlns="http://www.w3.org/2000/svg">
<g filter="url(#filter0_d_605_4053)">
<path d="M7.54297 18.4479C7.54297 10.4686 14.0115 4 21.9909 4H149.638C157.618 4 164.086 10.4685 164.086 18.4479V146.095C164.086 154.075 157.618 160.543 149.638 160.543H21.9909C14.0115 160.543 7.54297 154.075 7.54297 146.095V18.4479Z" fill="white"/>
<g clip-path="url(#clip0_605_4053)">
<path d="M48.0941 102.465V57.1571C46.6996 56.7153 46.543 56.4944 46.543 55.0105C46.5442 53.2541 46.5406 51.4989 46.543 49.7424C46.5442 48.453 47.0115 47.9872 48.3121 47.9872C62.6175 47.986 76.9229 47.9872 91.2271 47.986C91.5282 47.986 91.8304 47.986 92.1725 47.986V44.7265C90.702 44.1454 90.6587 44.0794 90.6587 42.4311C90.6587 40.6746 90.6539 38.9194 90.6611 37.163C90.6659 36.0345 91.138 35.5483 92.264 35.5471C102.499 35.5423 112.734 35.5423 122.969 35.5471C124.035 35.5471 124.532 36.0633 124.536 37.1342C124.543 39.0563 124.541 40.9784 124.537 42.9005C124.535 44.0098 124.195 44.4108 123.024 44.6461V102.466C124.286 102.799 124.539 103.125 124.538 104.405C124.538 105.924 124.545 107.442 124.536 108.961C124.53 110.026 124.029 110.521 122.957 110.539C122.386 110.548 121.814 110.541 121.243 110.541C97.0124 110.541 72.7826 110.541 48.5517 110.541C46.9067 110.541 46.5406 110.176 46.5418 108.535C46.5418 107.159 46.5406 105.782 46.5418 104.406C46.543 103.117 46.8031 102.785 48.0917 102.465H48.0941ZM50.9072 57.0959V102.475H59.4515C59.4515 102.105 59.4515 101.797 59.4515 101.49C59.4515 96.222 59.4491 90.954 59.4539 85.6847C59.4551 84.2272 59.879 83.8083 61.3157 83.8083C68.1234 83.807 74.9323 83.807 81.7399 83.8083C83.1887 83.8083 83.6029 84.2248 83.6029 85.6739C83.6029 91.0368 83.5993 96.4009 83.5969 101.764C83.5969 101.995 83.5969 102.226 83.5969 102.495H92.1713V57.0959H50.9072ZM95.0133 44.6305V102.489H120.194V44.6305H95.0133ZM121.762 105.347H49.3345V107.75H121.762V105.347ZM92.1737 50.7641H49.3393V54.2601H92.1737V50.7641ZM70.1152 86.6104H62.2719V102.493H70.1152V86.6104ZM72.9464 102.488H80.8018V86.6104H72.9464V102.488ZM93.461 38.3155V41.802H121.754V38.3155H93.461Z" fill="#484554"/>
<path d="M81.1451 69.357C79.217 69.357 77.289 69.3618 75.3622 69.3558C74.2483 69.3522 73.7352 68.8599 73.7292 67.7566C73.7172 65.574 73.716 63.3914 73.7292 61.2088C73.7364 60.1571 74.2639 59.6493 75.3321 59.6481C79.2351 59.6421 83.1381 59.6421 87.0411 59.6481C88.1009 59.6493 88.6319 60.1631 88.638 61.216C88.6524 63.3986 88.6512 65.5812 88.638 67.7638C88.6319 68.8623 88.1165 69.3522 86.9978 69.3558C85.0457 69.3618 83.0948 69.357 81.1426 69.3582L81.1451 69.357ZM85.8369 62.4201H76.5291V66.5825H85.8369V62.4201Z" fill="#484554"/>
<path d="M81.1584 81.1981C79.2303 81.1981 77.3035 81.2029 75.3755 81.1969C74.2194 81.1933 73.7305 80.7047 73.7269 79.5437C73.7196 77.4079 73.7196 75.2733 73.7269 73.1376C73.7317 71.991 74.2411 71.4868 75.3875 71.4856C79.2424 71.4808 83.0984 71.482 86.9533 71.4856C88.1395 71.4868 88.6344 71.9862 88.6392 73.1868C88.6464 75.2986 88.6464 77.4103 88.6392 79.5209C88.6356 80.7179 88.1503 81.1933 86.94 81.1969C85.012 81.2017 83.0852 81.1981 81.1571 81.1981H81.1584ZM76.5304 78.4224H85.8369V74.2613H76.5304V78.4224Z" fill="#484554"/>
<path d="M61.8781 81.1982C59.95 81.1982 58.0232 81.203 56.0952 81.197C54.9271 81.1934 54.4309 80.7108 54.4273 79.5642C54.4201 77.4284 54.4201 75.2938 54.4273 73.158C54.4309 71.9779 54.9379 71.4857 56.1398 71.4857C59.9717 71.4833 63.8025 71.4821 67.6344 71.4857C68.8351 71.4857 69.3324 71.9719 69.3373 73.1665C69.3469 75.3022 69.3469 77.4368 69.336 79.5726C69.33 80.7264 68.8387 81.1946 67.6621 81.1982C65.7341 81.2042 63.8073 81.1994 61.8793 81.1994L61.8781 81.1982ZM66.5458 74.2806H57.2368V78.4069H66.5458V74.2806Z" fill="#484554"/>
<path d="M61.8324 59.6461C63.7845 59.6461 65.7354 59.6413 67.6875 59.6473C68.8375 59.6509 69.3313 60.1443 69.3349 61.3052C69.3421 63.441 69.3433 65.5756 69.3337 67.7114C69.3289 68.8735 68.8412 69.355 67.6802 69.3562C63.8242 69.3598 59.9694 69.3598 56.1133 69.3562C54.9127 69.355 54.4298 68.8699 54.4261 67.667C54.4201 65.5552 54.4201 63.4434 54.4261 61.3316C54.4298 60.1359 54.9199 59.6497 56.1205 59.6461C58.0245 59.6412 59.9284 59.6449 61.8324 59.6449V59.6461ZM66.5326 62.4169H57.2405V66.5889H66.5326V62.4169Z" fill="#484554"/>
<path d="M96.7884 92.1343C96.7884 90.2363 96.7848 88.3382 96.7896 86.4401C96.7932 85.2275 97.2689 84.7425 98.4647 84.7389C100.606 84.7341 102.748 84.7341 104.889 84.7449C106.037 84.7509 106.53 85.2552 106.531 86.4113C106.534 90.2543 106.534 94.0985 106.531 97.9414C106.531 99.0964 106.041 99.5946 104.883 99.6006C102.742 99.6102 100.6 99.6102 98.4587 99.6006C97.2557 99.5958 96.7932 99.1168 96.7896 97.8994C96.7848 95.9773 96.7884 94.0564 96.7884 92.1343ZM99.5907 87.5242V96.8177H103.743V87.5242H99.5907Z" fill="#484554"/>
<path d="M96.7872 74.3791C96.7872 72.481 96.7836 70.583 96.7872 68.6849C96.7896 67.4699 97.2604 66.9813 98.4539 66.9765C100.595 66.9681 102.737 66.9669 104.879 66.9765C106.033 66.9825 106.528 67.4843 106.53 68.6345C106.534 72.4774 106.534 76.3216 106.53 80.1646C106.528 81.3448 106.025 81.837 104.821 81.8406C102.703 81.8466 100.585 81.8466 98.4671 81.8406C97.2701 81.837 96.7908 81.3496 96.7872 80.1442C96.7824 78.2221 96.786 76.3012 96.786 74.3791H96.7872ZM99.563 69.7726V79.0313H103.751V69.7726H99.563Z" fill="#484554"/>
<path d="M118.405 74.4617C118.405 76.3838 118.41 78.3047 118.402 80.2268C118.399 81.3265 117.894 81.8355 116.783 81.8415C114.617 81.8511 112.451 81.8523 110.286 81.8415C109.177 81.8355 108.667 81.3241 108.666 80.2256C108.661 76.3586 108.66 72.4916 108.666 68.6234C108.667 67.4708 109.157 66.9822 110.324 66.9774C112.467 66.9678 114.608 66.9678 116.75 66.9774C117.916 66.9822 118.402 67.4745 118.405 68.6258C118.41 70.5707 118.406 72.5168 118.405 74.4617ZM111.448 69.7711V79.0322H115.625V69.7711H111.448Z" fill="#484554"/>
<path d="M108.662 92.1173C108.662 90.2192 108.659 88.3211 108.664 86.423C108.667 85.2285 109.155 84.7423 110.359 84.7399C112.478 84.7339 114.596 84.7339 116.713 84.7399C117.914 84.7435 118.401 85.2309 118.403 86.4278C118.406 90.2708 118.407 94.115 118.403 97.958C118.401 99.1081 117.912 99.5955 116.744 99.6003C114.603 99.61 112.461 99.61 110.318 99.6003C109.157 99.5955 108.666 99.1033 108.664 97.9532C108.658 96.0083 108.662 94.0622 108.662 92.1173ZM111.441 96.8103H115.623V87.5239H111.441V96.8103Z" fill="#484554"/>
<path d="M96.7884 56.6119C96.7884 54.7138 96.7848 52.8157 96.7896 50.9177C96.7932 49.6907 97.2484 49.2249 98.4551 49.2213C100.596 49.2153 102.739 49.2141 104.88 49.2213C106.041 49.2249 106.53 49.7135 106.531 50.8696C106.536 54.7126 106.536 58.5556 106.531 62.3998C106.53 63.5811 106.029 64.0662 104.821 64.0686C102.703 64.0722 100.585 64.0734 98.4671 64.0686C97.2653 64.0662 96.792 63.5895 96.7884 62.3782C96.7836 60.4561 96.7872 58.5352 96.7872 56.6131L96.7884 56.6119ZM99.5859 51.9862V61.2797H103.737V51.9862H99.5859Z" fill="#484554"/>
<path d="M108.664 56.5954C108.664 54.6733 108.659 52.7524 108.666 50.8304C108.67 49.7174 109.159 49.2264 110.28 49.2216C112.445 49.212 114.61 49.2132 116.777 49.2216C117.91 49.2252 118.401 49.7078 118.403 50.8147C118.407 54.7057 118.407 58.5968 118.403 62.4866C118.401 63.5491 117.891 64.0617 116.829 64.0653C114.639 64.0749 112.45 64.0749 110.261 64.0653C109.166 64.0605 108.67 63.5466 108.666 62.4301C108.66 60.4852 108.665 58.5391 108.665 56.5942L108.664 56.5954ZM111.448 51.9949V61.2908H115.621V51.9949H111.448Z" fill="#484554"/>
</g>
<path d="M30.965 129.375C32.1384 129.375 33.1677 129.605 34.053 130.063C34.949 130.522 35.637 131.178 36.117 132.031C36.6077 132.874 36.853 133.855 36.853 134.975C36.853 136.095 36.6077 137.077 36.117 137.919C35.637 138.751 34.949 139.397 34.053 139.855C33.1677 140.314 32.1384 140.543 30.965 140.543H27.061V129.375H30.965ZM30.885 138.639C32.0584 138.639 32.965 138.319 33.605 137.679C34.245 137.039 34.565 136.138 34.565 134.975C34.565 133.813 34.245 132.906 33.605 132.255C32.965 131.594 32.0584 131.263 30.885 131.263H29.301V138.639H30.885ZM46.7698 135.919C46.7698 136.239 46.7484 136.527 46.7058 136.783H40.2258C40.2791 137.423 40.5031 137.925 40.8978 138.287C41.2924 138.65 41.7778 138.831 42.3538 138.831C43.1858 138.831 43.7778 138.474 44.1298 137.759H46.5458C46.2898 138.613 45.7991 139.317 45.0738 139.871C44.3484 140.415 43.4578 140.687 42.4018 140.687C41.5484 140.687 40.7804 140.501 40.0978 140.127C39.4258 139.743 38.8978 139.205 38.5138 138.511C38.1404 137.818 37.9538 137.018 37.9538 136.111C37.9538 135.194 38.1404 134.389 38.5138 133.695C38.8871 133.002 39.4098 132.469 40.0818 132.095C40.7538 131.722 41.5271 131.535 42.4018 131.535C43.2444 131.535 43.9964 131.717 44.6578 132.079C45.3298 132.442 45.8471 132.959 46.2098 133.631C46.5831 134.293 46.7698 135.055 46.7698 135.919ZM44.4498 135.279C44.4391 134.703 44.2311 134.245 43.8258 133.903C43.4204 133.551 42.9244 133.375 42.3378 133.375C41.7831 133.375 41.3138 133.546 40.9298 133.887C40.5564 134.218 40.3271 134.682 40.2418 135.279H44.4498ZM50.6448 132.959C50.9328 132.554 51.3274 132.218 51.8288 131.951C52.3408 131.674 52.9221 131.535 53.5728 131.535C54.3301 131.535 55.0128 131.722 55.6208 132.095C56.2394 132.469 56.7248 133.002 57.0768 133.695C57.4394 134.378 57.6208 135.173 57.6208 136.079C57.6208 136.986 57.4394 137.791 57.0768 138.495C56.7248 139.189 56.2394 139.727 55.6208 140.111C55.0128 140.495 54.3301 140.687 53.5728 140.687C52.9221 140.687 52.3461 140.554 51.8448 140.287C51.3541 140.021 50.9541 139.685 50.6448 139.279V144.767H48.4048V131.679H50.6448V132.959ZM55.3328 136.079C55.3328 135.546 55.2208 135.087 54.9968 134.703C54.7834 134.309 54.4954 134.01 54.1328 133.807C53.7808 133.605 53.3968 133.503 52.9808 133.503C52.5754 133.503 52.1914 133.61 51.8288 133.823C51.4768 134.026 51.1888 134.325 50.9648 134.719C50.7514 135.114 50.6448 135.578 50.6448 136.111C50.6448 136.645 50.7514 137.109 50.9648 137.503C51.1888 137.898 51.4768 138.202 51.8288 138.415C52.1914 138.618 52.5754 138.719 52.9808 138.719C53.3968 138.719 53.7808 138.613 54.1328 138.399C54.4954 138.186 54.7834 137.882 54.9968 137.487C55.2208 137.093 55.3328 136.623 55.3328 136.079ZM58.6725 136.079C58.6725 135.183 58.8485 134.389 59.2005 133.695C59.5632 133.002 60.0485 132.469 60.6565 132.095C61.2752 131.722 61.9632 131.535 62.7205 131.535C63.3819 131.535 63.9579 131.669 64.4485 131.935C64.9499 132.202 65.3499 132.538 65.6485 132.943V131.679H67.9045V140.543H65.6485V139.247C65.3605 139.663 64.9605 140.01 64.4485 140.287C63.9472 140.554 63.3659 140.687 62.7045 140.687C61.9579 140.687 61.2752 140.495 60.6565 140.111C60.0485 139.727 59.5632 139.189 59.2005 138.495C58.8485 137.791 58.6725 136.986 58.6725 136.079ZM65.6485 136.111C65.6485 135.567 65.5419 135.103 65.3285 134.719C65.1152 134.325 64.8272 134.026 64.4645 133.823C64.1019 133.61 63.7125 133.503 63.2965 133.503C62.8805 133.503 62.4965 133.605 62.1445 133.807C61.7925 134.01 61.5045 134.309 61.2805 134.703C61.0672 135.087 60.9605 135.546 60.9605 136.079C60.9605 136.613 61.0672 137.082 61.2805 137.487C61.5045 137.882 61.7925 138.186 62.1445 138.399C62.5072 138.613 62.8912 138.719 63.2965 138.719C63.7125 138.719 64.1019 138.618 64.4645 138.415C64.8272 138.202 65.1152 137.903 65.3285 137.519C65.5419 137.125 65.6485 136.655 65.6485 136.111ZM72.3323 133.055C72.6203 132.586 72.9936 132.218 73.4523 131.951C73.9216 131.685 74.4549 131.551 75.0523 131.551V133.903H74.4603C73.7563 133.903 73.2229 134.069 72.8603 134.399C72.5083 134.73 72.3323 135.306 72.3323 136.127V140.543H70.0923V131.679H72.3323V133.055ZM79.169 133.519V137.807C79.169 138.106 79.2384 138.325 79.377 138.463C79.5264 138.591 79.7717 138.655 80.113 138.655H81.153V140.543H79.745C77.857 140.543 76.913 139.626 76.913 137.791V133.519H75.857V131.679H76.913V129.487H79.169V131.679H81.153V133.519H79.169ZM82.1882 136.079C82.1882 135.183 82.3642 134.389 82.7162 133.695C83.0788 133.002 83.5642 132.469 84.1722 132.095C84.7908 131.722 85.4788 131.535 86.2362 131.535C86.8975 131.535 87.4735 131.669 87.9642 131.935C88.4655 132.202 88.8655 132.538 89.1642 132.943V131.679H91.4202V140.543H89.1642V139.247C88.8762 139.663 88.4762 140.01 87.9642 140.287C87.4628 140.554 86.8815 140.687 86.2202 140.687C85.4735 140.687 84.7908 140.495 84.1722 140.111C83.5642 139.727 83.0788 139.189 82.7162 138.495C82.3642 137.791 82.1882 136.986 82.1882 136.079ZM89.1642 136.111C89.1642 135.567 89.0575 135.103 88.8442 134.719C88.6308 134.325 88.3428 134.026 87.9802 133.823C87.6175 133.61 87.2282 133.503 86.8122 133.503C86.3962 133.503 86.0122 133.605 85.6602 133.807C85.3082 134.01 85.0202 134.309 84.7962 134.703C84.5828 135.087 84.4762 135.546 84.4762 136.079C84.4762 136.613 84.5828 137.082 84.7962 137.487C85.0202 137.882 85.3082 138.186 85.6602 138.399C86.0228 138.613 86.4068 138.719 86.8122 138.719C87.2282 138.719 87.6175 138.618 87.9802 138.415C88.3428 138.202 88.6308 137.903 88.8442 137.519C89.0575 137.125 89.1642 136.655 89.1642 136.111ZM104.616 131.551C105.704 131.551 106.579 131.887 107.24 132.559C107.912 133.221 108.248 134.149 108.248 135.343V140.543H106.008V135.647C106.008 134.954 105.832 134.426 105.48 134.063C105.128 133.69 104.648 133.503 104.04 133.503C103.432 133.503 102.947 133.69 102.584 134.063C102.232 134.426 102.056 134.954 102.056 135.647V140.543H99.8159V135.647C99.8159 134.954 99.6399 134.426 99.2879 134.063C98.9359 133.69 98.4559 133.503 97.8479 133.503C97.2292 133.503 96.7386 133.69 96.3759 134.063C96.0239 134.426 95.8479 134.954 95.8479 135.647V140.543H93.6079V131.679H95.8479V132.751C96.1359 132.378 96.5039 132.085 96.9519 131.871C97.4106 131.658 97.9119 131.551 98.4559 131.551C99.1492 131.551 99.7679 131.701 100.312 131.999C100.856 132.287 101.277 132.703 101.576 133.247C101.864 132.735 102.28 132.325 102.824 132.015C103.379 131.706 103.976 131.551 104.616 131.551ZM118.614 135.919C118.614 136.239 118.592 136.527 118.55 136.783H112.07C112.123 137.423 112.347 137.925 112.742 138.287C113.136 138.65 113.622 138.831 114.198 138.831C115.03 138.831 115.622 138.474 115.974 137.759H118.39C118.134 138.613 117.643 139.317 116.918 139.871C116.192 140.415 115.302 140.687 114.246 140.687C113.392 140.687 112.624 140.501 111.942 140.127C111.27 139.743 110.742 139.205 110.358 138.511C109.984 137.818 109.798 137.018 109.798 136.111C109.798 135.194 109.984 134.389 110.358 133.695C110.731 133.002 111.254 132.469 111.926 132.095C112.598 131.722 113.371 131.535 114.246 131.535C115.088 131.535 115.84 131.717 116.502 132.079C117.174 132.442 117.691 132.959 118.054 133.631C118.427 134.293 118.614 135.055 118.614 135.919ZM116.294 135.279C116.283 134.703 116.075 134.245 115.67 133.903C115.264 133.551 114.768 133.375 114.182 133.375C113.627 133.375 113.158 133.546 112.774 133.887C112.4 134.218 112.171 134.682 112.086 135.279H116.294ZM125.161 131.551C126.217 131.551 127.07 131.887 127.721 132.559C128.371 133.221 128.697 134.149 128.697 135.343V140.543H126.457V135.647C126.457 134.943 126.281 134.405 125.929 134.031C125.577 133.647 125.097 133.455 124.489 133.455C123.87 133.455 123.379 133.647 123.017 134.031C122.665 134.405 122.489 134.943 122.489 135.647V140.543H120.249V131.679H122.489V132.783C122.787 132.399 123.166 132.101 123.625 131.887C124.094 131.663 124.606 131.551 125.161 131.551ZM133.435 133.519V137.807C133.435 138.106 133.504 138.325 133.643 138.463C133.792 138.591 134.037 138.655 134.379 138.655H135.419V140.543H134.011C132.123 140.543 131.179 139.626 131.179 137.791V133.519H130.123V131.679H131.179V129.487H133.435V131.679H135.419V133.519H133.435ZM140.966 140.687C140.112 140.687 139.344 140.501 138.662 140.127C137.979 139.743 137.44 139.205 137.046 138.511C136.662 137.818 136.47 137.018 136.47 136.111C136.47 135.205 136.667 134.405 137.062 133.711C137.467 133.018 138.016 132.485 138.71 132.111C139.403 131.727 140.176 131.535 141.03 131.535C141.883 131.535 142.656 131.727 143.35 132.111C144.043 132.485 144.587 133.018 144.982 133.711C145.387 134.405 145.59 135.205 145.59 136.111C145.59 137.018 145.382 137.818 144.966 138.511C144.56 139.205 144.006 139.743 143.302 140.127C142.608 140.501 141.83 140.687 140.966 140.687ZM140.966 138.735C141.371 138.735 141.75 138.639 142.102 138.447C142.464 138.245 142.752 137.946 142.966 137.551C143.179 137.157 143.286 136.677 143.286 136.111C143.286 135.269 143.062 134.623 142.614 134.175C142.176 133.717 141.638 133.487 140.998 133.487C140.358 133.487 139.819 133.717 139.382 134.175C138.955 134.623 138.742 135.269 138.742 136.111C138.742 136.954 138.95 137.605 139.366 138.063C139.792 138.511 140.326 138.735 140.966 138.735Z" fill="#484554"/>
</g>
<defs>
<filter id="filter0_d_605_4053" x="0.342969" y="0.8" width="170.943" height="170.943" filterUnits="userSpaceOnUse" color-interpolation-filters="sRGB">
<feFlood flood-opacity="0" result="BackgroundImageFix"/>
<feColorMatrix in="SourceAlpha" type="matrix" values="0 0 0 0 0 0 0 0 0 0 0 0 0 0 0 0 0 0 127 0" result="hardAlpha"/>
<feOffset dy="4"/>
<feGaussianBlur stdDeviation="3.6"/>
<feComposite in2="hardAlpha" operator="out"/>
<feColorMatrix type="matrix" values="0 0 0 0 0.555 0 0 0 0 0.555 0 0 0 0 0.555 0 0 0 0.25 0"/>
<feBlend mode="normal" in2="BackgroundImageFix" result="effect1_dropShadow_605_4053"/>
<feBlend mode="normal" in="SourceGraphic" in2="effect1_dropShadow_605_4053" result="shape"/>
</filter>
<clipPath id="clip0_605_4053">
<rect width="78" height="75" fill="white" transform="translate(46.543 35.5435)"/>
</clipPath>
</defs>
</svg>
