<svg width="172" height="172" viewBox="0 0 172 172" fill="none" xmlns="http://www.w3.org/2000/svg">
<g filter="url(#filter0_d_605_4052)">
<path d="M7.62891 18.4479C7.62891 10.4686 14.0975 4 22.0768 4H149.724C157.703 4 164.172 10.4685 164.172 18.4479V146.095C164.172 154.075 157.703 160.543 149.724 160.543H22.0768C14.0975 160.543 7.62891 154.075 7.62891 146.095V18.4479Z" fill="white"/>
<g clip-path="url(#clip0_605_4052)">
<path d="M54.1927 104.514V55.7642C53.4924 55.7642 52.8042 55.7662 52.1149 55.7642C49.4843 55.7572 47.2512 54.0999 46.7347 51.773C46.0719 48.7876 48.6298 45.9199 52.0026 45.9039C56.003 45.8859 60.0034 45.8999 64.0027 45.8999C64.2175 45.8999 64.4333 45.8999 64.713 45.8999C64.713 45.6535 64.713 45.4599 64.713 45.2653C64.713 42.4715 64.713 39.6786 64.713 36.8847C64.713 35.9338 65.1336 35.5457 66.172 35.5447C79.1456 35.5437 92.118 35.5437 105.092 35.5447C106.102 35.5447 106.54 35.9388 106.541 36.8438C106.543 39.6377 106.541 42.4305 106.541 45.2244V45.8999C106.784 45.8999 106.995 45.8999 107.207 45.8999C111.189 45.8999 115.17 45.8949 119.152 45.9009C121.906 45.9059 124.254 47.7668 124.586 50.1915C124.93 52.696 123.169 55.0588 120.435 55.6036C119.483 55.7931 118.467 55.7183 117.48 55.7652C117.355 55.7712 117.228 55.7822 117.065 55.7931V104.514C117.737 104.514 118.376 104.507 119.014 104.515C121.852 104.55 124.07 106.204 124.55 108.648C124.6 108.908 124.614 109.178 124.61 109.442C124.602 110.073 124.157 110.489 123.443 110.534C123.133 110.554 122.82 110.538 122.507 110.538C97.7173 110.538 72.9263 110.539 48.1365 110.54C47.031 110.54 46.5993 110.135 46.6434 109.139C46.7568 106.59 49.1815 104.567 52.1909 104.515C52.8471 104.504 53.5034 104.513 54.1927 104.513V104.514ZM114.614 55.7842H56.6406V104.481H76.3498C76.3498 104.252 76.3498 104.056 76.3498 103.859C76.3498 101.198 76.3487 98.5381 76.3498 95.877C76.3498 94.8801 76.7506 94.515 77.8385 94.515C83.0315 94.514 88.2255 94.514 93.4185 94.515C94.5053 94.515 94.9039 94.8811 94.905 95.879C94.9072 98.5561 94.905 101.234 94.905 103.911C94.905 104.102 94.905 104.292 94.905 104.489H114.615V55.7842H114.614ZM85.5883 53.6129C96.6877 53.6129 107.787 53.6129 118.887 53.6099C119.215 53.6099 119.553 53.604 119.869 53.5351C121.417 53.1969 122.387 51.9107 122.208 50.4679C122.031 49.049 120.698 48.0362 118.969 48.0362C96.7516 48.0342 74.5351 48.0352 52.3175 48.0402C51.9728 48.0402 51.6161 48.0691 51.2846 48.152C49.7673 48.5311 48.8456 49.8223 49.0526 51.2392C49.2519 52.6052 50.592 53.6119 52.2349 53.6129C63.3531 53.6149 74.4701 53.6139 85.5883 53.6129ZM104.114 37.7309H67.1454V45.875H104.115V37.7309H104.114ZM49.2773 108.348H121.983C121.271 107.122 120.196 106.654 118.764 106.655C96.6734 106.664 74.5836 106.661 52.4926 106.662C52.2911 106.662 52.0874 106.654 51.8881 106.674C50.7065 106.791 49.8488 107.33 49.2773 108.348ZM92.5078 96.7031H86.8634V104.514C88.5878 104.514 90.2714 104.501 91.9551 104.523C92.4032 104.529 92.5508 104.421 92.5464 103.999C92.5243 101.725 92.5354 99.4501 92.5332 97.1761C92.5332 97.0294 92.5177 96.8837 92.5078 96.7041V96.7031ZM78.7525 96.6972V104.47H84.4024V96.6972H78.7525Z" fill="#484554"/>
<path d="M109.633 75.5896C109.633 76.754 109.636 77.9174 109.633 79.0819C109.629 79.9041 109.191 80.3072 108.28 80.3092C105.693 80.3142 103.105 80.3142 100.519 80.3092C99.6211 80.3072 99.1741 79.8931 99.173 79.0719C99.1686 76.744 99.1686 74.4162 99.173 72.0883C99.1741 71.3279 99.6123 70.8909 100.448 70.8859C103.091 70.87 105.734 70.868 108.375 70.8849C109.207 70.8899 109.629 71.3299 109.632 72.1002C109.636 73.2647 109.633 74.4281 109.633 75.5926V75.5896ZM107.2 78.134V73.0751H101.602V78.134H107.2Z" fill="#484554"/>
<path d="M61.6209 75.5812C61.6209 74.4178 61.6176 73.2534 61.622 72.0899C61.6253 71.3066 62.0679 70.8826 62.9433 70.8796C65.5486 70.8686 68.155 70.8686 70.7603 70.8816C71.6346 70.8866 72.0794 71.3116 72.0816 72.0959C72.086 74.4238 72.086 76.7517 72.0816 79.0795C72.0805 79.8967 71.6302 80.3078 70.7272 80.3098C68.1396 80.3148 65.553 80.3158 62.9653 80.3098C62.0657 80.3078 61.6231 79.8947 61.6209 79.0736C61.6175 77.9101 61.6209 76.7457 61.6209 75.5822V75.5812ZM69.6503 78.1326V73.0757H64.0544V78.1326H69.6503Z" fill="#484554"/>
<path d="M61.6208 99.2083C61.6208 98.0608 61.6186 96.9133 61.6208 95.7658C61.623 94.9417 62.0613 94.5186 62.9532 94.5166C65.5585 94.5096 68.1649 94.5086 70.7701 94.5186C71.629 94.5216 72.0794 94.9506 72.0805 95.7389C72.0849 98.0668 72.0849 100.395 72.0805 102.723C72.0794 103.511 71.6323 103.943 70.7723 103.947C68.1483 103.958 65.5243 103.959 62.9003 103.947C62.0668 103.943 61.6252 103.51 61.6219 102.75C61.6164 101.57 61.6208 100.39 61.6208 99.2083ZM64.051 96.6908V101.753H69.6547V96.6908H64.051Z" fill="#484554"/>
<path d="M109.633 99.2833C109.633 100.431 109.636 101.578 109.632 102.726C109.628 103.522 109.197 103.943 108.326 103.947C105.702 103.958 103.078 103.959 100.452 103.947C99.6266 103.943 99.1741 103.505 99.1719 102.748C99.1663 100.403 99.1663 98.058 99.1719 95.7131C99.1741 94.9558 99.6266 94.5227 100.456 94.5197C103.08 94.5088 105.704 94.5088 108.329 94.5177C109.19 94.5207 109.628 94.9478 109.632 95.741C109.636 96.9214 109.632 98.1028 109.632 99.2833H109.633ZM101.601 96.692V101.753H107.202V96.692H101.601Z" fill="#484554"/>
<path d="M79.3723 80.3112C78.0895 80.3112 76.8056 80.3152 75.5227 80.3102C74.5725 80.3062 74.1375 79.923 74.1342 79.0639C74.1265 76.7381 74.1265 74.4132 74.1342 72.0873C74.1364 71.299 74.578 70.8859 75.4589 70.8809C78.0619 70.868 80.665 70.869 83.2681 70.8809C84.1633 70.8849 84.6093 71.314 84.6115 72.1292C84.6159 74.4381 84.6159 76.747 84.6115 79.056C84.6104 79.8891 84.149 80.3052 83.2208 80.3102C81.9379 80.3162 80.654 80.3122 79.3712 80.3122L79.3723 80.3112ZM76.5358 78.119H82.1835V73.0621H76.5358V78.119Z" fill="#484554"/>
<path d="M97.1214 75.6422C97.1214 76.7886 97.128 77.9341 97.1181 79.0806C97.1115 79.9088 96.6743 80.3079 95.7659 80.3099C93.1815 80.3149 90.5961 80.3149 88.0117 80.3099C87.0934 80.3079 86.6419 79.8838 86.6397 79.0397C86.6364 76.7477 86.6364 74.4548 86.6397 72.1628C86.6408 71.2937 87.0867 70.8826 88.0568 70.8796C90.6049 70.8727 93.1529 70.8717 95.7009 70.8796C96.7063 70.8826 97.117 71.2768 97.1192 72.2057C97.1225 73.3522 97.1192 74.4977 97.1192 75.6442L97.1214 75.6422ZM89.0677 73.0509V78.1317H94.7044V73.0509H89.0677Z" fill="#484554"/>
<path d="M66.8204 68.4762C65.5365 68.4762 64.2537 68.4792 62.9697 68.4752C62.047 68.4722 61.6231 68.0871 61.622 67.2559C61.6198 64.946 61.6187 62.6361 61.622 60.3271C61.622 59.468 62.0481 59.0809 63.0006 59.0799C65.5673 59.0769 68.1352 59.0769 70.7019 59.0799C71.6489 59.0809 72.0805 59.473 72.0827 60.3291C72.0871 62.6391 72.0871 64.949 72.0827 67.2579C72.0816 68.0881 71.6522 68.4712 70.7261 68.4742C69.4246 68.4792 68.122 68.4752 66.8204 68.4752V68.4762ZM64.0456 61.2531V66.312H69.6525V61.2531H64.0456Z" fill="#484554"/>
<path d="M104.375 68.476C103.091 68.476 101.807 68.479 100.524 68.475C99.6011 68.472 99.1728 68.0868 99.1717 67.2547C99.1684 64.9448 99.1684 62.6348 99.1717 60.3249C99.1728 59.4698 99.6055 59.0816 100.557 59.0797C103.125 59.0757 105.691 59.0757 108.259 59.0797C109.209 59.0807 109.631 59.4688 109.632 60.3319C109.635 62.6418 109.635 64.9517 109.631 67.2617C109.63 68.0978 109.215 68.472 108.281 68.476C106.98 68.481 105.677 68.477 104.376 68.477L104.375 68.476ZM107.213 61.2579H101.596V66.3058H107.213V61.2579Z" fill="#484554"/>
<path d="M79.3501 68.4771C78.0838 68.4771 76.8186 68.4791 75.5523 68.4771C74.5525 68.4751 74.1329 68.1099 74.1318 67.2199C74.1274 64.9259 74.1274 62.632 74.1329 60.337C74.1351 59.4649 74.5569 59.0808 75.505 59.0798C78.0739 59.0758 80.6417 59.0768 83.2107 59.0798C84.1775 59.0808 84.6113 59.4829 84.6124 60.3689C84.6146 62.6469 84.6157 64.9239 84.6124 67.2019C84.6124 68.093 84.1885 68.4741 83.203 68.4771C81.9191 68.4801 80.634 68.4771 79.3501 68.4781V68.4771ZM76.5367 66.3099H82.1822V61.257H76.5367V66.3099Z" fill="#484554"/>
<path d="M91.9043 68.4772C90.6017 68.4772 89.299 68.4812 87.9964 68.4752C87.0835 68.4713 86.6442 68.0761 86.642 67.2509C86.6376 64.94 86.6376 62.6291 86.642 60.3182C86.6431 59.499 87.0945 59.0809 87.9887 59.0799C90.5939 59.0749 93.1992 59.0749 95.8045 59.0799C96.6579 59.0819 97.116 59.475 97.1193 60.2364C97.1303 62.5972 97.1303 64.958 97.1204 67.3188C97.1171 68.0871 96.67 68.4713 95.8122 68.4752C94.5096 68.4812 93.2069 68.4772 91.9043 68.4762V68.4772ZM94.7155 61.2651H89.0711V66.32H94.7155V61.2651Z" fill="#484554"/>
</g>
<path d="M75.3953 129.375V140.543H73.1553V135.791H68.3713V140.543H66.1313V129.375H68.3713V133.967H73.1553V129.375H75.3953ZM81.5361 140.687C80.6828 140.687 79.9148 140.501 79.2321 140.127C78.5494 139.743 78.0108 139.205 77.6161 138.511C77.2321 137.818 77.0401 137.018 77.0401 136.111C77.0401 135.205 77.2374 134.405 77.6321 133.711C78.0374 133.018 78.5868 132.485 79.2801 132.111C79.9734 131.727 80.7468 131.535 81.6001 131.535C82.4534 131.535 83.2268 131.727 83.9201 132.111C84.6134 132.485 85.1574 133.018 85.5521 133.711C85.9574 134.405 86.1601 135.205 86.1601 136.111C86.1601 137.018 85.9521 137.818 85.5361 138.511C85.1308 139.205 84.5761 139.743 83.8721 140.127C83.1788 140.501 82.4001 140.687 81.5361 140.687ZM81.5361 138.735C81.9414 138.735 82.3201 138.639 82.6721 138.447C83.0348 138.245 83.3228 137.946 83.5361 137.551C83.7494 137.157 83.8561 136.677 83.8561 136.111C83.8561 135.269 83.6321 134.623 83.1841 134.175C82.7468 133.717 82.2081 133.487 81.5681 133.487C80.9281 133.487 80.3894 133.717 79.9521 134.175C79.5254 134.623 79.3121 135.269 79.3121 136.111C79.3121 136.954 79.5201 137.605 79.9361 138.063C80.3628 138.511 80.8961 138.735 81.5361 138.735ZM90.4112 133.519V137.807C90.4112 138.106 90.4806 138.325 90.6192 138.463C90.7686 138.591 91.0139 138.655 91.3552 138.655H92.3952V140.543H90.9872C89.0992 140.543 88.1552 139.626 88.1552 137.791V133.519H87.0992V131.679H88.1552V129.487H90.4112V131.679H92.3952V133.519H90.4112ZM102.246 135.919C102.246 136.239 102.225 136.527 102.182 136.783H95.7023C95.7557 137.423 95.9797 137.925 96.3743 138.287C96.769 138.65 97.2543 138.831 97.8303 138.831C98.6623 138.831 99.2543 138.474 99.6063 137.759H102.022C101.766 138.613 101.276 139.317 100.55 139.871C99.825 140.415 98.9343 140.687 97.8783 140.687C97.025 140.687 96.257 140.501 95.5743 140.127C94.9023 139.743 94.3743 139.205 93.9903 138.511C93.617 137.818 93.4303 137.018 93.4303 136.111C93.4303 135.194 93.617 134.389 93.9903 133.695C94.3637 133.002 94.8863 132.469 95.5583 132.095C96.2303 131.722 97.0037 131.535 97.8783 131.535C98.721 131.535 99.473 131.717 100.134 132.079C100.806 132.442 101.324 132.959 101.686 133.631C102.06 134.293 102.246 135.055 102.246 135.919ZM99.9263 135.279C99.9157 134.703 99.7077 134.245 99.3023 133.903C98.897 133.551 98.401 133.375 97.8143 133.375C97.2597 133.375 96.7903 133.546 96.4063 133.887C96.033 134.218 95.8037 134.682 95.7183 135.279H99.9263ZM106.121 128.703V140.543H103.881V128.703H106.121Z" fill="#484554"/>
</g>
<defs>
<filter id="filter0_d_605_4052" x="0.428906" y="0.8" width="170.943" height="170.943" filterUnits="userSpaceOnUse" color-interpolation-filters="sRGB">
<feFlood flood-opacity="0" result="BackgroundImageFix"/>
<feColorMatrix in="SourceAlpha" type="matrix" values="0 0 0 0 0 0 0 0 0 0 0 0 0 0 0 0 0 0 127 0" result="hardAlpha"/>
<feOffset dy="4"/>
<feGaussianBlur stdDeviation="3.6"/>
<feComposite in2="hardAlpha" operator="out"/>
<feColorMatrix type="matrix" values="0 0 0 0 0.555 0 0 0 0 0.555 0 0 0 0 0.555 0 0 0 0.25 0"/>
<feBlend mode="normal" in2="BackgroundImageFix" result="effect1_dropShadow_605_4052"/>
<feBlend mode="normal" in="SourceGraphic" in2="effect1_dropShadow_605_4052" result="shape"/>
</filter>
<clipPath id="clip0_605_4052">
<rect width="78" height="75" fill="white" transform="translate(46.6289 35.5435)"/>
</clipPath>
</defs>
</svg>
