<svg width="800" height="586" viewBox="0 0 800 586" fill="none" xmlns="http://www.w3.org/2000/svg">
<g clip-path="url(#clip0_626_2925)">
<path d="M178.01 477.191C115.312 405.691 160.615 333.534 221.5 290C274.518 252.081 275 252.5 317.5 232.5C383.5 219.5 448 194.5 481.587 152.567C535.231 93.0923 607.756 3.22332 688.864 0.204354C767.145 -2.71252 814.976 21.9642 859.908 196.102C904.84 370.239 858.451 460.196 856.994 461.639C657 549 240.709 548.69 178.01 477.191Z" fill="#E6E8F5"/>
<path d="M245.455 392.962C245.455 392.962 245.134 404.862 247.145 406.19C248.008 406.867 248.999 407.363 250.058 407.648L260.068 461.712C260.068 461.712 289.41 467.05 304.082 461.041L314.091 407.633L317.427 406.292L318.768 392.947C318.768 392.947 282.796 380.944 245.455 392.962Z" fill="#68A9FD"/>
<path d="M248.82 407.298C248.82 407.298 288.157 410.317 292.805 408.99C297.453 407.663 296.141 396.972 296.141 396.972L315.475 394.974C315.475 394.974 315.475 406.321 314.135 407.663C312.657 409.439 311.526 411.477 310.798 413.671C310.798 414.342 302.8 461.8 302.8 461.8C302.8 461.8 290.124 463.798 288.128 463.798C286.132 463.798 293.461 424.493 293.461 421.737C293.461 418.98 293.461 413.73 291.465 413.73C289.469 413.73 250.903 414.882 250.67 410.579C250.357 409.34 249.718 408.207 248.82 407.298Z" fill="#1B3D9E"/>
<path d="M264.307 395.456C264.307 395.456 253.337 387.74 247.509 387.04C241.681 386.34 234.921 385.582 229.093 384.678C223.265 383.773 215.835 381.163 215.981 377.75C216.126 374.337 216.826 372.704 220.249 370.677C223.136 368.796 226.407 367.585 229.822 367.133C232.386 366.899 258.698 373.739 269.669 390.089L274.04 395.456H264.307Z" fill="#19BC86"/>
<path d="M226.325 376.379C226.325 376.379 236.407 376.248 241.929 378.042C246.246 379.657 250.43 381.608 254.444 383.875L270.951 395.383" fill="#28A67C"/>
<path d="M226.325 376.379C226.325 376.379 236.407 376.248 241.929 378.042C246.246 379.657 250.43 381.608 254.444 383.875L270.951 395.383" stroke="white" stroke-width="0.75" stroke-miterlimit="10" stroke-linecap="round"/>
<path d="M275.861 395.003C275.861 395.003 263.098 377.648 258.13 372.762C253.162 367.876 247.348 362.291 242.555 357.186C237.762 352.081 231.715 344.76 234.265 341.756C236.815 338.751 238.636 336.71 243.284 337.38C246.917 337.769 250.397 339.057 253.409 341.129C255.973 342.791 279.153 364.916 282.548 390.336L285.884 395.485L275.861 395.003Z" fill="#19BC86"/>
<path d="M245.877 347.589C245.877 347.589 255.813 353.54 259.718 359.257C263.404 364.595 269.246 374.148 269.246 374.148L275.875 392.363" stroke="white" stroke-width="0.75" stroke-miterlimit="10" stroke-linecap="round"/>
<path d="M282.242 395.864C282.242 395.864 267.338 363.472 264.555 357.07C261.772 350.667 250.393 341.027 247.873 334.493C245.352 327.959 243.75 323.205 246.416 319.617C249.082 316.029 255.93 313.054 260.3 315.242C264.424 317.254 269.785 323.38 272.087 326.486C273.923 328.936 286.117 372.937 285.112 383.088L287.443 396.083L282.242 395.864Z" fill="#8ADBC0"/>
<path d="M255.988 327.171C255.988 327.171 264.54 338.197 267.134 344.673C270.048 351.965 272.961 365.864 272.583 363.632L281.484 393.72" stroke="white" stroke-width="0.75" stroke-miterlimit="10" stroke-linecap="round"/>
<path d="M274.069 395.616C274.069 395.616 260.956 380.638 254.56 377.735C248.164 374.833 240.894 371.552 234.644 368.431C228.394 365.309 220.89 360.015 222.158 356.836C223.426 353.657 224.722 352.373 229.239 351.775C233.185 351.107 237.223 351.216 241.127 352.096C244.041 352.854 271.432 369.422 278.469 389.097L281.718 395.878L274.069 395.616Z" fill="#8ADBC0"/>
<path d="M234.25 359.549C234.25 359.549 245.6 363.282 251.238 367.104C255.532 370.249 259.602 373.689 263.418 377.4L276.006 395.747" stroke="white" stroke-width="0.75" stroke-miterlimit="10" stroke-linecap="round"/>
<path d="M308.365 395.951C308.365 395.951 320.239 388.659 326.548 387.915C332.856 387.172 340.155 386.544 346.478 385.655C352.801 384.765 360.829 382.3 360.669 379.034C360.509 375.767 359.766 374.206 356.051 372.266C352.861 370.45 349.338 369.298 345.692 368.883C342.909 368.664 314.44 375.183 302.566 390.759L297.773 395.893L308.365 395.951Z" fill="#19BC86"/>
<path d="M349.436 377.75C349.436 377.75 338.538 377.619 332.55 379.34C327.907 380.86 323.379 382.712 319.001 384.882L303.164 395.528" fill="#28A67C"/>
<path d="M349.436 377.75C349.436 377.75 338.538 377.619 332.55 379.34C327.907 380.86 323.379 382.712 319.001 384.882L303.164 395.528" stroke="white" stroke-width="0.75" stroke-miterlimit="10" stroke-linecap="round"/>
<path d="M295.85 395.529C295.85 395.529 309.647 378.961 315.038 374.294C320.428 369.627 326.693 364.289 331.895 359.418C337.096 354.546 343.623 347.561 340.855 344.673C338.087 341.785 336.134 339.845 331.093 340.458C327.219 340.807 323.474 342.029 320.137 344.031C317.354 345.606 292.28 366.754 288.609 391.022L285.01 395.937L295.85 395.529Z" fill="#19BC86"/>
<path d="M328.31 350.273C328.31 350.273 317.558 355.946 313.333 361.357C309.341 366.462 303.033 375.577 303.033 375.577L295.85 392.961" stroke="white" stroke-width="0.75" stroke-miterlimit="10" stroke-linecap="round"/>
<path d="M288.973 396.36C288.973 396.36 305.101 365.426 308.103 359.301C311.104 353.176 323.43 344.017 326.154 337.745C328.879 331.474 330.612 326.953 327.757 323.54C324.901 320.127 317.456 317.269 312.736 319.311C308.278 321.236 302.537 327.084 299.988 330.045C298.006 332.393 284.806 374.396 285.884 384.109L283.364 396.52L288.973 396.36Z" fill="#8ADBC0"/>
<path d="M287.414 395.966C287.414 395.966 288.711 365.776 291.785 355.976C293.869 349.486 295.908 338.474 298.633 332.276C301.357 326.078 297.176 317.925 294.378 314.498C291.581 311.07 284.18 311.727 279.401 313.754C274.943 315.679 272.379 321.906 271.811 325.232C271.301 328.265 282.009 364.682 280.873 377.998L281.79 396.141L287.414 395.966Z" fill="#19BC86"/>
<path d="M317.369 330.803C317.369 330.803 308.117 341.333 305.305 347.502C302.129 354.488 298.968 367.745 299.478 365.557L289.002 395.018" stroke="white" stroke-width="0.75" stroke-miterlimit="10" stroke-linecap="round"/>
<path d="M297.802 396.126C297.802 396.126 312.066 381.819 318.913 379.048C325.761 376.277 333.701 373.214 340.461 370.166C347.222 367.118 355.337 362.13 353.967 359.097C352.598 356.063 351.184 354.838 346.304 354.269C342.03 353.631 337.678 353.734 333.439 354.575C330.234 355.305 300.658 371.114 293.038 389.913L289.527 396.389L297.802 396.126Z" fill="#8ADBC0"/>
<path d="M340.898 361.664C340.898 361.664 328.616 365.222 322.526 368.868C317.915 371.843 313.509 375.127 309.341 378.698L295.442 394.128" stroke="white" stroke-width="0.75" stroke-miterlimit="10" stroke-linecap="round"/>
<path d="M284.471 320.2C284.471 320.2 286.948 346.058 285.506 353.015C284.908 355.932 285.2 374.119 285.2 374.119L284.602 394.26" stroke="white" stroke-width="0.75" stroke-miterlimit="10" stroke-linecap="round"/>
<path d="M378.02 159.349L371.581 463.083C371.581 465.256 377.408 464.542 378.865 464.542H387.607L386.267 159.845L438.337 161.303L415.726 33.442C415.161 30.2331 413.483 27.3264 410.989 25.2325C408.495 23.1387 405.344 21.9917 402.089 21.9932H366.161C362 21.9818 357.967 23.437 354.771 26.1037C351.574 28.7704 349.417 32.4784 348.678 36.5776L326.663 158.401L378.02 159.349Z" fill="#68A9FD"/>
<path d="M327.931 151.59L436.05 153.588L438.265 161.274L326.649 158.372L327.931 151.59Z" fill="#3354FF"/>
<path d="M423.134 352.373C428.073 292.577 409.672 205.071 431.147 192.893C452.346 180.89 459.572 176.967 481.572 152.567C535.202 93.0774 607.685 3.20849 688.865 0.20411C767.146 -2.71276 814.977 21.964 859.909 196.101C882.375 283.17 881.05 329.169 878.85 356.661C877.655 371.785 876.46 391.474 875.732 392.188C874.727 393.224 419.04 402.033 423.134 352.373Z" fill="#B1C1F2"/>
<path d="M723.088 170.389L722.2 383.044L857.112 383.409C857.112 383.409 858.088 271.415 852.741 164.162L723.365 162.222L723.088 170.389Z" fill="#484554"/>
<path d="M596.145 197.881L592.561 383.54H707.877L707.062 197.881H596.145Z" fill="#5F77F1"/>
<path d="M605.497 253L605 269H621L620.887 253H605.497Z" fill="white"/>
<path d="M653.497 253L653 269H669L668.887 253H653.497Z" fill="white"/>
<path d="M653.497 275L653 291H669L668.887 275H653.497Z" fill="white"/>
<path d="M428.685 306.826L594.426 307.687L592.561 383.54L429.312 383.482L428.685 306.826Z" fill="#484554"/>
<path d="M415.033 199.806L415.441 383.934C415.441 383.934 416.447 395.514 427.505 396.01C438.563 396.506 874.42 396.695 874.42 396.695C874.42 396.695 878.31 384.488 876.81 383.978C875.309 383.467 429.311 383.482 429.311 383.482C429.311 383.482 429.442 376.963 429.442 372.791C429.442 368.154 429.195 194.001 429.195 194.001C424.68 196.405 419.935 198.349 415.033 199.806Z" fill="white"/>
<path d="M424.649 218.095L865.65 220.735L867.981 230.302L424.649 232.431V218.095Z" fill="white"/>
<path d="M549.086 74.7155V383.861L560.727 384.765V66.6504L549.086 74.7155Z" fill="white"/>
<path d="M759.701 12.5132L759.439 383.861L770.191 382.971L771.867 19.7616L759.701 12.5132Z" fill="white"/>
<path d="M560.727 66.6505L812.413 68.1819L805.172 55.1289L575.049 55.0122L560.727 66.6505Z" fill="white"/>
<path d="M603.153 127.54C617.283 127.54 628.737 116.074 628.737 101.93C628.737 87.7859 617.283 76.3198 603.153 76.3198C589.024 76.3198 577.569 87.7859 577.569 101.93C577.569 116.074 589.024 127.54 603.153 127.54Z" fill="white"/>
<path d="M628.052 126.957C637.314 126.957 644.822 119.441 644.822 110.17C644.822 100.899 637.314 93.3838 628.052 93.3838C618.791 93.3838 611.283 100.899 611.283 110.17C611.283 119.441 618.791 126.957 628.052 126.957Z" fill="white"/>
<path d="M797.231 151.648C811.626 151.648 823.296 139.967 823.296 125.557C823.296 111.147 811.626 99.4653 797.231 99.4653C782.836 99.4653 771.167 111.147 771.167 125.557C771.167 139.967 782.836 151.648 797.231 151.648Z" fill="#FAFAFA"/>
<path d="M770.38 145.975C779.811 145.975 787.455 138.322 787.455 128.882C787.455 119.442 779.811 111.789 770.38 111.789C760.95 111.789 753.305 119.442 753.305 128.882C753.305 138.322 760.95 145.975 770.38 145.975Z" fill="#FAFAFA"/>
</g>
<defs>
<clipPath id="clip0_626_2925">
<rect width="880" height="586" fill="white"/>
</clipPath>
</defs>
</svg>
