<svg width="648" height="538" viewBox="0 0 648 538" fill="none" xmlns="http://www.w3.org/2000/svg">
<g clip-path="url(#clip0_627_3051)">
<path d="M792.374 342C792.374 342 924.212 226.396 758.032 171.748C675.16 144.503 655.667 130.501 591.279 77.7682C499.121 2.27103 378.334 -41.36 221.309 91.7434C64.2843 224.847 -54.2167 266.128 49.1652 345.933C165.371 435.64 94.679 481.769 109.25 507.056C113.128 513.783 137.689 485.014 191.775 514.635C314.962 582.101 377.655 479.463 468.248 505.063C553.694 529.211 597.599 475.799 625.412 496.684C666.892 527.845 692.844 527.445 708.432 519.247C721.473 512.373 729.15 498.18 728.55 483.309C727.863 466.41 727.742 434.761 734.549 411.727C744.843 376.911 769.891 359.107 792.374 342Z" fill="#E6E8F5"/>
<path d="M790.905 343.401C790.905 343.401 924.003 225.282 756.25 169.451C672.621 141.605 652.937 127.308 587.966 73.4176C494.939 -3.72425 373.056 -48.3038 214.597 87.6973C56.1379 223.698 -67.3188 271.306 40.8622 347.412C115.78 400.119 90.4188 374.388 113.754 392.453C163.31 430.741 276.021 358.803 367.457 384.961C453.694 409.631 537.584 372.778 575.055 370.281C589.905 369.306 649.825 369.08 680.011 367.461C696.904 366.591 715.526 373.962 738.931 368.401C774.203 360.021 768.222 360.892 790.905 343.401Z" fill="#E6E8F5"/>
<path d="M647.877 123.801L691.087 152.909C691.652 153.248 692.652 147.105 693.261 147.366L722.682 158.678L723.021 370.072L539.114 367.809L540.514 81.3013L596.443 81.8147L647.877 123.801Z" fill="#68A9FD"/>
<path d="M662.118 130.675L707.128 152.752L707.241 158.652L557.241 157.782L557.841 103.743L622.525 102.873L637.027 113.977C639.566 115.9 642.67 117.945 646.591 120.555C653.094 124.863 657.024 127.743 662.118 130.675Z" fill="#484554"/>
<path d="M707.163 167.501V220.87L557.024 220.565L557.015 167.501H707.163Z" fill="#484554"/>
<path d="M706.745 230.381V283.758L556.615 283.454L556.607 230.381H706.745Z" fill="#484554"/>
<path d="M705.919 294.183V347.56L555.789 347.256L555.781 294.183H705.919Z" fill="#484554"/>
<path d="M654.92 260.716L647.877 251.492L621.717 274.813L628.263 284.306L654.92 260.716Z" fill="white"/>
<path d="M669.734 248.116L662.831 244.165L645.13 279.529L652.033 284.185L669.734 248.116Z" fill="#19BC86"/>
<path d="M624.073 240.675L607.137 240.771L607.015 283.741L624.047 283.532L624.073 240.675Z" fill="white"/>
<path d="M595.208 235.994H586.984L586.775 283.898L595.226 283.68L595.208 235.994Z" fill="white"/>
<path d="M607.024 250.613L595.026 250.822L595.226 283.793L607.241 283.601L607.024 250.613Z" fill="#F5F5FC"/>
<path d="M611.214 151.517V157.651L563.179 157.991V151.517H611.214Z" fill="#F5F5FC"/>
<path d="M611.284 146.652L611.058 151.56L579.811 151.786L580.02 146.426L611.284 146.652Z" fill="white"/>
<path d="M575.194 184.74L582.332 180.781L600.607 216.154L593.478 220.801L575.194 184.74Z" fill="#19BC86"/>
<path d="M565.066 172.723H556.841L556.633 220.618L565.083 220.409L565.066 172.723Z" fill="white"/>
<path d="M576.368 187.612L564.37 187.821L564.57 220.792L576.577 220.6L576.368 187.612Z" fill="#F5F5FC"/>
<path d="M657.18 214.596V220.731L609.145 221.07V214.596H657.18Z" fill="#19BC86"/>
<path d="M649.642 209.575L649.408 214.474L618.161 214.7L618.37 209.349L649.642 209.575Z" fill="white"/>
<path d="M193.844 431.298C193.844 431.298 208.276 448.336 196.452 448.806C184.628 449.276 160.372 463.008 155.729 450.703C151.086 438.399 141.818 432.247 147.478 430.828C153.138 429.41 158.302 423.727 170.161 424.676C182.02 425.624 193.844 431.298 193.844 431.298Z" fill="#F5F5FC"/>
<path d="M197.617 348.352C197.617 348.352 204.381 349.083 204.381 357.463C204.381 365.842 200.034 438.503 183.515 439.93C172.778 440.861 161.415 440.8 155.799 440.261C153.373 440.026 150.991 432.69 150.582 429.749C148.4 415.312 145.592 380.148 144.974 359.664C144.853 355.531 147.696 349.988 149.182 348.63C157.39 341.129 197.617 348.352 197.617 348.352Z" fill="#68A9FD"/>
<path d="M117.683 207.896C120.292 205.468 123.926 208.766 122.544 212.194C121.231 215.475 120.318 221.175 125.578 227.283C133.742 236.76 163.188 268.782 162.893 289.371C162.597 309.959 168.979 315.703 162.893 323.543C156.807 331.383 132.281 331.07 125.865 314.406C119.448 297.742 103.173 291.007 103.486 267.164C103.799 243.321 106.651 232.844 109.572 224.681C111.38 219.504 114.267 211.098 117.683 207.896Z" fill="#8ADBC0"/>
<path d="M162.293 345.263C162.293 345.263 159.685 307.94 130.542 291.694C112.284 281.513 111.05 246.175 115.414 238.187" stroke="white" stroke-width="3" stroke-linecap="round" stroke-linejoin="round"/>
<path d="M158.554 360.935C158.554 360.935 149.374 397.674 159.32 426.764L158.554 360.935Z" fill="#1B3D9E"/>
<path d="M137.567 199.768C140.34 197.445 144.253 200.577 142.783 203.875C141.375 207.017 140.401 212.464 146.035 218.303C154.781 227.37 186.324 258.001 186.028 277.693C185.732 297.385 186.028 308.95 179.473 316.451C172.917 323.952 157.737 317.93 150.895 301.989C144.053 286.047 122.048 279.259 122.361 256.434C122.674 233.61 125.752 223.611 128.873 215.797C130.812 210.872 133.915 202.831 137.567 199.768Z" fill="#19BC86"/>
<path d="M174.465 346.029C174.465 346.029 184.724 295.253 159.746 264.78C149.756 252.597 134.941 228.127 135.072 216.328" stroke="white" stroke-width="3" stroke-linecap="round" stroke-linejoin="round"/>
<path d="M215.414 207.896C212.849 205.468 209.224 208.766 210.589 212.194C211.893 215.475 212.797 221.175 207.581 227.283C199.487 236.76 170.283 268.782 170.57 289.371C170.857 309.959 170.57 322.046 176.656 329.895C182.742 337.744 196.748 331.444 203.112 314.78C209.476 298.116 229.803 291.007 229.551 267.164C229.299 243.321 226.412 232.844 223.517 224.681C221.657 219.504 218.796 211.098 215.414 207.896Z" fill="#8ADBC0"/>
<path d="M182.602 346.951C182.602 346.951 170.848 300.831 193.974 270.375C203.225 258.192 218.04 240.127 217.918 228.328" stroke="white" stroke-width="3" stroke-linecap="round" stroke-linejoin="round"/>
<path d="M234.167 288.318C234.167 288.318 258.328 288.875 271.37 259.497C284.411 230.12 255.068 224.194 233.428 239.918C211.789 255.643 220.683 262.169 194.896 276.71C169.109 291.25 174.734 320.027 182.724 327.737C190.714 335.447 205.842 347.316 215.927 316.164C226.012 285.011 234.167 288.318 234.167 288.318Z" fill="#19BC86"/>
<path d="M187.237 347.316C187.237 347.316 185.498 273.899 258.276 253.667" stroke="white" stroke-width="3" stroke-linecap="round" stroke-linejoin="round"/>
<path d="M197.617 348.352C197.617 348.352 167.997 343.583 156.425 346.081C144.853 348.578 176.838 351.528 176.838 351.528C176.838 351.528 192.079 352.207 197.617 348.352Z" fill="#1B3D9E"/>
<path d="M556.989 356.114C556.989 356.114 590.375 329.756 596.017 303.903C601.659 278.05 589.436 260.133 571.569 257.313C553.703 254.494 542.878 246.001 480.35 267.199C417.822 288.396 345.87 250.726 345.87 250.726C345.87 250.726 287.071 223.655 258.059 230.259C225.021 237.769 217.996 257.783 226.925 293.556C235.854 329.33 266.275 356.384 266.275 356.384L556.989 356.114Z" fill="#5F77F1"/>
<path d="M572.1 353.312C572.1 353.312 577.316 353.312 578.185 358.533C579.055 363.754 577.316 380.288 574.708 385.509C572.1 390.73 559.867 390.469 559.867 390.469L261.719 389.86C261.719 389.86 251.817 389.964 249.547 382.028C247.73 375.65 245.079 369.289 244.887 364.885C244.776 362.382 245.599 359.926 247.196 357.996C248.793 356.066 251.051 354.799 253.529 354.443C256.766 354.044 260.023 353.83 263.284 353.799C285.898 353.791 572.1 353.312 572.1 353.312Z" fill="#5F77F1"/>
<path d="M586.01 434.239L566.014 390.73H550.364L571.23 434.239H586.01Z" fill="white"/>
<path d="M278.238 390.73L259.98 435.109L246.939 434.239L264.327 390.73H278.238Z" fill="white"/>
<path d="M551.92 353.782C551.92 353.782 579.402 332.558 580.689 323.726C582.367 312.283 571.995 295.184 531.811 302.754C491.627 310.325 420.769 330.809 382.368 320.323C343.966 309.838 295.626 265.998 292.149 263.683C288.671 261.368 247.582 241.11 238.245 271.976C228.907 302.841 266.449 353.451 266.449 353.451L551.92 353.782Z" fill="#4E63CC"/>
<path d="M418.257 0L417.118 58.9289L415.736 58.6765L414.51 0H418.257Z" fill="#3354FF"/>
<path d="M448.104 107.206C448.104 107.206 459.058 57.9976 415.71 57.5277C374.699 57.0839 385.219 109.739 385.219 109.739L448.104 107.206Z" fill="#3354FF"/>
<path d="M448.486 107.215C448.486 107.215 413.606 92.1003 385.115 109.547C385.115 109.547 415.101 125.515 448.486 107.215Z" fill="white"/>
<path d="M431.611 66.3252C431.611 66.3252 446.817 71.9988 443.722 97.791L431.611 66.3252Z" fill="white"/>
<path d="M448.495 107.215L479.255 217.981L353.381 216.745L385.124 109.547L448.495 107.215Z" fill="url(#paint0_linear_627_3051)"/>
</g>
<defs>
<linearGradient id="paint0_linear_627_3051" x1="416.544" y1="47.4946" x2="416.283" y2="240.467" gradientUnits="userSpaceOnUse">
<stop stop-color="white"/>
<stop offset="1" stop-color="white" stop-opacity="0"/>
</linearGradient>
<clipPath id="clip0_627_3051">
<rect width="842" height="538" fill="white" transform="matrix(-1 0 0 1 842 0)"/>
</clipPath>
</defs>
</svg>
