<svg width="273" height="57" viewBox="0 0 273 57" fill="none" xmlns="http://www.w3.org/2000/svg">
<path d="M86.9296 35.7864H79.3735L78.1635 39.6038H73L80.3263 18H86.0373L93.3636 39.6038H88.1426L86.9327 35.7864H86.9296ZM85.6592 31.724L83.1485 23.8138L80.6681 31.724H85.6592Z" fill="#484554"/>
<path d="M100.514 18.26V39.6037H95.5834V18.26H100.514Z" fill="#484554"/>
<path d="M104.104 27.3167C104.766 26.0674 105.662 25.0904 106.787 24.3886C107.912 23.6868 109.137 23.3359 110.465 23.3359C111.485 23.3359 112.398 23.5144 113.206 23.8683C114.013 24.2253 114.667 24.7183 115.166 25.3535V23.5084H120.096V47.275H115.166V37.5832C114.609 38.2577 113.932 38.7932 113.133 39.1985C112.335 39.6008 111.427 39.8035 110.408 39.8035C109.101 39.8035 107.888 39.4586 106.775 38.7659C105.659 38.0732 104.769 37.1022 104.107 35.853C103.444 34.6037 103.112 33.182 103.112 31.5848C103.112 29.9877 103.444 28.566 104.107 27.3167H104.104ZM114.658 29.3767C114.322 28.7898 113.883 28.3482 113.345 28.0487C112.806 27.7523 112.238 27.601 111.642 27.601C111.046 27.601 110.508 27.7493 109.969 28.0487C109.431 28.3482 108.989 28.7928 108.641 29.3888C108.296 29.9847 108.121 30.7167 108.121 31.5818C108.121 32.4469 108.293 33.1729 108.641 33.7597C108.986 34.3466 109.431 34.7882 109.969 35.0877C110.508 35.3871 111.064 35.5353 111.642 35.5353C112.22 35.5353 112.782 35.3871 113.33 35.0877C113.877 34.7882 114.319 34.3435 114.658 33.7476C114.993 33.1517 115.163 32.4197 115.163 31.5546C115.163 30.6895 114.993 29.9635 114.658 29.3767Z" fill="#484554"/>
<path d="M139.563 23.5084V39.6008H134.629V37.4078C134.13 38.1186 133.453 38.6903 132.596 39.1229C131.74 39.5555 130.794 39.7733 129.756 39.7733C128.525 39.7733 127.439 39.498 126.498 38.9505C125.555 38.403 124.826 37.6105 124.305 36.5699C123.785 35.5293 123.528 34.3103 123.528 32.9067V23.5054H128.431V32.2443C128.431 33.3212 128.709 34.1591 129.269 34.755C129.826 35.3509 130.576 35.6503 131.52 35.6503C132.463 35.6503 133.241 35.3539 133.797 34.755C134.354 34.1591 134.632 33.3242 134.632 32.2443V23.5054H139.566L139.563 23.5084Z" fill="#484554"/>
<path d="M144.203 21.5695C143.789 21.1853 143.583 20.7104 143.583 20.1447C143.583 19.5791 143.789 19.083 144.203 18.6988C144.614 18.3147 145.15 18.1211 145.8 18.1211C146.451 18.1211 146.965 18.3147 147.376 18.6988C147.791 19.083 147.996 19.564 147.996 20.1447C147.996 20.7255 147.791 21.1853 147.376 21.5695C146.962 21.9536 146.438 22.1472 145.8 22.1472C145.162 22.1472 144.614 21.9567 144.203 21.5695ZM148.045 23.5084V39.6009H143.114V23.5084H148.045Z" fill="#484554"/>
<path d="M156.549 18.26V39.6037H151.619V18.26H156.549Z" fill="#484554"/>
<path d="M175.211 32.7374H164.049C164.124 33.7387 164.448 34.5009 165.014 35.0303C165.579 35.5596 166.278 35.8228 167.104 35.8228C168.335 35.8228 169.191 35.3025 169.672 34.265H174.92C174.651 35.3237 174.164 36.2735 173.462 37.1205C172.761 37.9675 171.88 38.6299 170.825 39.1109C169.766 39.5918 168.583 39.8308 167.276 39.8308C165.7 39.8308 164.297 39.495 163.066 38.8205C161.835 38.1489 160.873 37.187 160.183 35.9378C159.49 34.6885 159.146 33.2274 159.146 31.5547C159.146 29.8819 159.487 28.4209 160.168 27.1716C160.849 25.9223 161.807 24.9604 163.039 24.2889C164.27 23.6174 165.682 23.2786 167.279 23.2786C168.877 23.2786 170.223 23.6053 171.433 24.2586C172.643 24.912 173.589 25.8437 174.273 27.0567C174.954 28.2666 175.295 29.6823 175.295 31.2976C175.295 31.7604 175.265 32.2383 175.208 32.7404L175.211 32.7374ZM170.25 29.9969C170.25 29.1499 169.963 28.4784 169.385 27.9793C168.807 27.4801 168.087 27.2291 167.222 27.2291C166.357 27.2291 165.697 27.4711 165.132 27.949C164.563 28.43 164.212 29.1136 164.079 29.9969H170.25Z" fill="#484554"/>
<path d="M184.987 24.1012C185.852 23.5931 186.814 23.3359 187.869 23.3359V28.5569H186.514C185.283 28.5569 184.36 28.8201 183.746 29.3494C183.129 29.8788 182.824 30.8044 182.824 32.1323V39.6008H177.893V23.5084H182.824V26.1914C183.402 25.3082 184.121 24.6094 184.987 24.1012Z" fill="#484554"/>
<path d="M205.321 32.7374H194.159C194.234 33.7387 194.558 34.5009 195.124 35.0303C195.689 35.5596 196.388 35.8228 197.214 35.8228C198.445 35.8228 199.301 35.3025 199.782 34.265H205.03C204.761 35.3237 204.274 36.2735 203.572 37.1205C202.871 37.9675 201.99 38.6299 200.935 39.1109C199.876 39.5918 198.693 39.8308 197.386 39.8308C195.81 39.8308 194.407 39.495 193.176 38.8205C191.945 38.1489 190.983 37.187 190.293 35.9378C189.6 34.6885 189.255 33.2274 189.255 31.5547C189.255 29.8819 189.597 28.4209 190.278 27.1716C190.959 25.9223 191.917 24.9604 193.149 24.2889C194.38 23.6174 195.792 23.2786 197.389 23.2786C198.987 23.2786 200.333 23.6053 201.543 24.2586C202.753 24.912 203.699 25.8437 204.383 27.0567C205.064 28.2666 205.405 29.6823 205.405 31.2976C205.405 31.7604 205.375 32.2383 205.318 32.7404L205.321 32.7374ZM200.36 29.9969C200.36 29.1499 200.073 28.4784 199.495 27.9793C198.917 27.4801 198.197 27.2291 197.332 27.2291C196.467 27.2291 195.807 27.4711 195.242 27.949C194.673 28.43 194.322 29.1136 194.189 29.9969H200.36Z" fill="#484554"/>
<path d="M210.801 39.1108C209.706 38.6298 208.841 37.9704 208.206 37.1355C207.571 36.2976 207.217 35.3629 207.138 34.3224H212.011C212.069 34.8789 212.329 35.3327 212.789 35.6775C213.252 36.0224 213.817 36.1978 214.492 36.1978C215.106 36.1978 215.584 36.0768 215.92 35.8378C216.255 35.5989 216.425 35.2843 216.425 34.9001C216.425 34.4373 216.183 34.0985 215.705 33.8777C215.224 33.6569 214.446 33.4119 213.37 33.1427C212.217 32.8734 211.255 32.5891 210.487 32.2927C209.719 31.9932 209.053 31.5243 208.496 30.88C207.94 30.2357 207.662 29.3646 207.662 28.2695C207.662 27.347 207.916 26.506 208.427 25.7468C208.935 24.9875 209.685 24.3856 210.677 23.9439C211.667 23.5023 212.846 23.2815 214.211 23.2815C216.228 23.2815 217.819 23.7806 218.984 24.7818C220.148 25.7831 220.814 27.108 220.989 28.7626H216.434C216.358 28.206 216.11 27.7644 215.699 27.4347C215.284 27.108 214.743 26.9446 214.068 26.9446C213.491 26.9446 213.049 27.0566 212.74 27.2774C212.432 27.4982 212.278 27.8007 212.278 28.1849C212.278 28.6477 212.523 28.9925 213.013 29.2224C213.503 29.4523 214.268 29.6852 215.306 29.9151C216.497 30.2236 217.468 30.5261 218.218 30.8226C218.969 31.122 219.628 31.6 220.194 32.2654C220.759 32.9279 221.053 33.8172 221.074 34.9334C221.074 35.8741 220.811 36.7181 220.281 37.4562C219.752 38.1973 218.993 38.778 218.004 39.2015C217.015 39.625 215.865 39.8367 214.558 39.8367C213.155 39.8367 211.906 39.5978 210.811 39.1168L210.801 39.1108Z" fill="#484554"/>
<path d="M244.819 23.5083L234.725 47.2447H229.419L233.11 39.0532L226.564 23.5083H232.072L235.793 33.5752L239.483 23.5083H244.819Z" fill="#5E6CFF"/>
<path d="M246.565 27.1716C247.188 25.9223 248.041 24.9604 249.118 24.2889C250.195 23.6174 251.396 23.2786 252.724 23.2786C253.858 23.2786 254.853 23.5085 255.709 23.9713C256.565 24.4341 257.225 25.0391 257.684 25.7892V23.5115H262.615V39.6039H257.684V37.3262C257.204 38.0764 256.535 38.6813 255.679 39.1441C254.823 39.607 253.828 39.8368 252.693 39.8368C251.387 39.8368 250.195 39.495 249.118 38.8144C248.041 38.1308 247.191 37.1598 246.565 35.9015C245.939 34.6431 245.627 33.1851 245.627 31.5335C245.627 29.8819 245.939 28.43 246.565 27.1777V27.1716ZM256.659 28.6417C255.975 27.9309 255.144 27.5739 254.164 27.5739C253.183 27.5739 252.352 27.9248 251.668 28.6266C250.984 29.3284 250.646 30.2963 250.646 31.5244C250.646 32.7525 250.987 33.7296 251.668 34.4525C252.352 35.1725 253.183 35.5354 254.164 35.5354C255.144 35.5354 255.975 35.1785 256.659 34.4677C257.343 33.7568 257.681 32.7858 257.681 31.5547C257.681 30.3235 257.34 29.3526 256.659 28.6417Z" fill="#5E6CFF"/>
<path d="M267.966 39.0684C267.419 38.5602 267.144 37.928 267.144 37.1779C267.144 36.4277 267.419 35.7652 267.966 35.245C268.514 34.7247 269.222 34.4676 270.087 34.4676C270.952 34.4676 271.629 34.7277 272.177 35.245C272.724 35.7652 273 36.4095 273 37.1779C273 37.9462 272.724 38.5572 272.177 39.0684C271.629 39.5766 270.931 39.8337 270.087 39.8337C269.243 39.8337 268.514 39.5796 267.966 39.0684ZM272.682 18.6353L272.104 32.45H267.921L267.343 18.6353H272.679H272.682Z" fill="#5E6CFF"/>
<path d="M0 24.0815V15.357C0 14.9695 0.225183 14.6134 0.570813 14.4458L5.64005 12.0211C5.99092 11.8536 6.21086 11.4975 6.21086 11.1099V3.29661C6.21086 2.7415 6.66123 2.29114 7.21633 2.29114H16.2813C16.8364 2.29114 17.2867 2.7415 17.2867 3.29661V4.65294C17.2867 4.80481 17.4491 4.90431 17.5852 4.83099L26.2626 0.123096C26.5664 -0.0444823 26.9329 -0.0392454 27.2367 0.128333L52.719 14.4301C53.0385 14.6081 53.2322 14.9433 53.2322 15.3099V24.0658C53.2322 24.8409 52.3996 25.3227 51.724 24.9404L27.3781 11.0838C27.0691 10.9109 26.6973 10.9057 26.3883 11.0838L1.49773 24.9613C0.827417 25.3384 0 24.8513 0 24.0815Z" fill="#5E6CFF"/>
<path d="M0.135742 39.352V30.5804C0.135742 30.2138 0.334741 29.8786 0.64895 29.7006L17.4277 20.2638L26.3984 15.3936C26.7021 15.226 27.0687 15.2313 27.3724 15.3988L52.8548 29.7006C53.1742 29.8786 53.368 30.2138 53.368 30.5804V39.3363C53.368 40.1114 52.5353 40.5932 51.8598 40.2109L27.5138 26.3543C27.2048 26.1814 26.833 26.1762 26.5241 26.3543L1.63347 40.2318C0.963159 40.6089 0.135742 40.1219 0.135742 39.352Z" fill="#5E6CFF"/>
<path d="M47.2788 42.1067L27.3789 30.8057C27.0699 30.6276 26.6929 30.6276 26.3891 30.8057L5.74559 42.3581C5.05957 42.7404 5.05433 43.7249 5.73512 44.1124L26.3734 55.9057C26.6876 56.089 27.0804 56.0838 27.3946 55.89L47.305 43.8453C47.9596 43.4473 47.9491 42.489 47.2788 42.1067ZM26.7976 44.7146L23.7812 43.0755L26.7976 41.4731L29.704 43.0441L26.7976 44.7146Z" fill="#5E6CFF"/>
</svg>
