<svg width="38" height="40" viewBox="0 0 38 40" fill="none" xmlns="http://www.w3.org/2000/svg">
<path d="M4.56601 29.8964L7.03164 27.4487V17.9615C7.03164 12.1364 10.1662 7.25998 15.6327 5.96972V4.67947C15.6327 3.1046 16.9133 1.83331 18.4997 1.83331C20.0861 1.83331 21.3667 3.1046 21.3667 4.67947V5.96972C26.8522 7.25998 29.9677 12.1174 29.9677 17.9615V27.4487L32.4333 29.8964C33.6375 31.0918 32.7965 33.141 31.0954 33.141H5.92307C4.20286 33.141 3.36187 31.0918 4.56601 29.8964ZM10.8543 29.3461H26.145V17.9615C26.145 13.2559 23.2589 9.42306 18.4997 9.42306C13.7404 9.42306 10.8543 13.2559 10.8543 17.9615V29.3461ZM18.4997 38.8333C16.3972 38.8333 14.677 37.1256 14.677 35.0384H22.3223C22.3223 37.1256 20.6213 38.8333 18.4997 38.8333Z" fill="#484554"/>
</svg>
