<svg width="11" height="9" viewBox="0 0 11 9" fill="none" xmlns="http://www.w3.org/2000/svg">
<g clip-path="url(#clip0_857_645)">
<path d="M3.81832 0.00607893C4.3072 -0.0626183 4.82508 0.458672 4.97423 1.17797C5.12338 1.89323 4.85408 2.53171 4.3652 2.60445C3.88047 2.67719 3.35844 2.1559 3.20515 1.4366C3.05186 0.721338 3.32944 0.0828582 3.81832 0.00607893ZM6.7806 0.00607893C7.27362 0.0828582 7.54706 0.721338 7.40206 1.4366C7.24462 2.1559 6.72674 2.67719 6.23786 2.60445C5.74484 2.53171 5.47554 1.89323 5.62883 1.17797C5.77798 0.458672 6.29586 -0.0626183 6.7806 0.00607893ZM1.60179 1.86494C2.0741 1.66694 2.71627 2.02659 3.05186 2.65294C3.36673 3.29142 3.25901 3.96223 2.79085 4.16024C2.32268 4.35825 1.68465 4.00264 1.35735 3.3682C1.03005 2.73376 1.14606 2.05891 1.60179 1.86494ZM9.05927 1.86494C9.51501 2.05891 9.63101 2.73376 9.30371 3.3682C8.97641 4.00264 8.33838 4.35825 7.87022 4.16024C7.40206 3.96223 7.29434 3.29142 7.60921 2.65294C7.94479 2.02659 8.58697 1.66694 9.05927 1.86494ZM8.36739 6.22116C8.38396 6.60101 8.08566 7.02128 7.72936 7.17888C6.98775 7.51024 6.10943 6.82327 5.28496 6.82327C4.46049 6.82327 3.57388 7.53853 2.8447 7.17888C2.4304 6.98087 2.14453 6.45553 2.19839 6.01911C2.27296 5.41699 3.01457 5.09371 3.45373 4.65324C4.0379 4.08346 4.45221 3.01259 5.28496 3.01259C6.11357 3.01259 6.55273 4.0673 7.11204 4.65324C7.57192 5.14625 8.33838 5.56247 8.36739 6.22116Z" fill="#19BC86"/>
</g>
<defs>
<clipPath id="clip0_857_645">
<rect width="9.88" height="8.32" fill="white" transform="translate(0.650757)"/>
</clipPath>
</defs>
</svg>
