<svg xmlns="http://www.w3.org/2000/svg" width="330" height="172" viewBox="0 0 330 172" fill="none">
<g filter="url(#filter0_d_676_4351)">
<mask id="mask0_676_4351" style="mask-type:luminance" maskUnits="userSpaceOnUse" x="6" y="4" width="320" height="163">
<path d="M317.756 4.00024H14.2436C9.8288 4.00024 6.24988 7.58196 6.24988 12.0002V158.25C6.24988 162.668 9.8288 166.25 14.2436 166.25H317.756C322.171 166.25 325.75 162.668 325.75 158.25V12.0002C325.75 7.58196 322.171 4.00024 317.756 4.00024Z" fill="white"/>
</mask>
<g mask="url(#mask0_676_4351)">
<path d="M317.756 4.00037H14.2436C9.8288 4.00037 6.24988 7.58208 6.24988 12.0004V158.25C6.24988 162.668 9.8288 166.25 14.2436 166.25H317.756C322.171 166.25 325.75 162.668 325.75 158.25V12.0004C325.75 7.58208 322.171 4.00037 317.756 4.00037Z" fill="#E6E8F5"/>
<path d="M305.03 163.201C305.03 163.201 272.317 132.447 177.836 151.448C83.3543 170.449 49.4049 147.623 35.3128 147.623C21.2206 147.623 20.5 183.25 20.5 183.25L305.588 174.951L306.353 172.631C306.491 171.924 306.532 171.203 306.475 170.486L306.353 169.076C306.315 168.653 306.254 168.231 306.171 167.814L305.03 163.201Z" fill="#DCE2F2"/>
<path d="M-5.38974 168.939C-5.38974 168.939 -28.7006 157.187 -5.38974 150.83C-5.38974 150.83 4.82608 124.436 23.3167 147.363C23.3167 147.363 40.2708 145.629 40.6565 156.995C40.6565 156.995 44.3176 159.497 49.905 160.079C55.4924 160.66 55.8781 165.28 54.721 166.629C53.5639 167.978 49.5214 168.362 49.5214 168.362L-5.38974 168.939Z" fill="#BAC6F2"/>
<path d="M-0.953082 168.768C-0.953082 168.768 -18.1449 160.102 -0.953082 155.413C-0.953082 155.413 6.57744 135.948 20.2166 152.855C20.2166 152.855 32.7258 151.577 33.0031 159.958C33.0031 159.958 35.703 161.805 39.8227 162.23C43.9423 162.656 44.228 166.066 43.3669 167.061C42.5059 168.055 39.5308 168.339 39.5308 168.339L-0.953082 168.768Z" fill="#B1C1F2"/>
<path d="M233.772 109.421C242.849 109.421 250.206 102.063 250.206 92.9865C250.206 83.9102 242.849 76.5525 233.772 76.5525C224.696 76.5525 217.338 83.9102 217.338 92.9865C217.338 102.063 224.696 109.421 233.772 109.421Z" fill="#F2F3FA"/>
<path d="M178.184 109.021C187.26 109.021 194.618 101.663 194.618 92.5871C194.618 83.5108 187.26 76.1531 178.184 76.1531C169.108 76.1531 161.75 83.5108 161.75 92.5871C161.75 101.663 169.108 109.021 178.184 109.021Z" fill="#F2F3FA"/>
<path d="M206.591 114.02C218.816 114.02 228.726 104.11 228.726 91.885C228.726 79.6604 218.816 69.7504 206.591 69.7504C194.366 69.7504 184.456 79.6604 184.456 91.885C184.456 104.11 194.366 114.02 206.591 114.02Z" fill="#F2F3FA"/>
<path d="M119.151 42.4319C123.238 42.4319 126.551 39.1185 126.551 35.0313C126.551 30.944 123.238 27.6306 119.151 27.6306C115.064 27.6306 111.75 30.944 111.75 35.0313C111.75 39.1185 115.064 42.4319 119.151 42.4319Z" fill="#FAFAFA"/>
<path d="M131.94 44.6858C137.445 44.6858 141.907 40.2231 141.907 34.718C141.907 29.213 137.445 24.7502 131.94 24.7502C126.435 24.7502 121.972 29.213 121.972 34.718C121.972 40.2231 126.435 44.6858 131.94 44.6858Z" fill="#FAFAFA"/>
<path d="M236.031 32.3732C233.286 32.3732 231.062 30.1483 231.062 27.4038C231.062 24.6593 233.286 22.4344 236.031 22.4344C238.775 22.4344 241 24.6593 241 27.4038C241 30.1483 238.775 32.3732 236.031 32.3732Z" fill="#F2F3FA"/>
<path d="M227.443 33.8866C223.747 33.8866 220.75 30.89 220.75 27.1935C220.75 23.497 223.747 20.5004 227.443 20.5004C231.14 20.5004 234.136 23.497 234.136 27.1935C234.136 30.89 231.14 33.8866 227.443 33.8866Z" fill="#F2F3FA"/>
<path d="M331.94 165.79V118.736C331.94 118.736 312.844 116.944 315.666 102.746C317.537 93.3949 323.807 92.6584 323.658 87.7268C323.55 84.1657 326.278 69.5796 334.518 77.5257C341.031 83.8012 337.971 88.9796 341.331 89.7161C344.775 90.4754 348.976 97.347 346.642 101.379C344.307 105.411 346.908 105.555 346.908 107.579C346.908 109.602 348.312 115.46 341.293 116.971C334.275 118.482 334.087 118.49 334.087 118.49L334.2 165.642L331.94 165.79Z" fill="#B1C1F2"/>
<path d="M314.384 166.227L314.44 87.0892C314.44 87.0892 353.796 84.0824 347.98 60.2482C344.148 44.5498 331.196 43.3159 331.509 35.0434C331.734 29.064 326.114 4.58432 309.124 17.9213C295.704 28.4565 302.012 37.1467 295.087 38.3805C287.988 39.6447 279.327 51.186 284.142 57.9589C288.957 64.7318 283.595 64.9786 283.595 68.3651C283.595 71.7515 280.75 81.592 295.194 84.1318C309.639 86.6716 312.437 87.4803 312.437 87.4803L311.361 166.272L314.384 166.227Z" fill="#BAC6F2"/>
<path opacity="0.36" d="M64.665 51.0993C70.9709 44.7885 70.9709 34.5565 64.665 28.2457C58.359 21.9348 48.1351 21.9348 41.8292 28.2457C35.5232 34.5565 35.5232 44.7885 41.8292 51.0993C48.1351 57.4102 58.359 57.4102 64.665 51.0993Z" fill="#6880E4"/>
<path d="M52.3164 54.4551C61.2344 54.4551 68.4638 47.22 68.4638 38.2951C68.4638 29.3702 61.2344 22.1351 52.3164 22.1351C43.3985 22.1351 36.1691 29.3702 36.1691 38.2951C36.1691 47.22 43.3985 54.4551 52.3164 54.4551Z" fill="white"/>
<path d="M52.2791 35.2052C52.2791 35.2052 62.5086 44.5327 61.0148 46.2277C59.521 47.9227 57.2453 48.9002 56.7182 48.2852C56.1911 47.6727 48.657 36.5202 48.657 36.5202L52.2816 35.2052H52.2791Z" fill="#1B3D9E"/>
<mask id="mask1_676_4351" style="mask-type:luminance" maskUnits="userSpaceOnUse" x="48" y="35" width="14" height="14">
<path d="M52.2791 35.2052C52.2791 35.2052 62.5086 44.5327 61.0148 46.2277C59.521 47.9227 57.2453 48.9002 56.7182 48.2852C56.1911 47.6727 48.657 36.5202 48.657 36.5202L52.2816 35.2052H52.2791Z" fill="white"/>
</mask>
<g mask="url(#mask1_676_4351)">
<path d="M55.8562 37.8502C55.8562 37.8502 49.4737 40.0702 49.1015 39.5802C48.7293 39.0902 47.6027 37.1477 47.6027 37.1477C47.6027 37.1477 54.0851 33.5127 54.4873 34.0952C54.8895 34.6777 55.8537 37.8502 55.8537 37.8502H55.8562Z" fill="#1C056D"/>
</g>
<path d="M42.1468 37.5725C41.7546 36.92 41.8445 36.085 42.3616 35.53C46.4859 31.1075 63.8223 12.6051 65.1588 12.7451C66.6776 12.9026 76.6223 28.31 75.9928 30.825C75.4357 33.0575 49.6734 37.4275 43.8879 38.3825C43.196 38.4975 42.5065 38.1775 42.1468 37.575V37.5725Z" fill="#68A9FD"/>
<mask id="mask2_676_4351" style="mask-type:luminance" maskUnits="userSpaceOnUse" x="41" y="12" width="36" height="27">
<path d="M42.1468 37.5725C41.7546 36.92 41.8445 36.085 42.3616 35.53C46.4859 31.1075 63.8223 12.6051 65.1588 12.7451C66.6776 12.9026 76.6223 28.31 75.9928 30.825C75.4357 33.0575 49.6734 37.4275 43.8879 38.3825C43.196 38.4975 42.5065 38.1775 42.1468 37.575V37.5725Z" fill="white"/>
</mask>
<g mask="url(#mask2_676_4351)">
<path d="M46.0539 29.7103C46.0539 29.7103 45.7991 34.8753 51.1024 39.3203C51.1024 39.3203 41.38 40.7103 40.793 39.7278C40.2059 38.7453 39.2142 37.9478 39.5165 37.1053C39.8187 36.2628 46.0564 29.7078 46.0564 29.7078L46.0539 29.7103Z" fill="#1B3D9E"/>
<path opacity="0.24" d="M74.879 25.5026C74.879 25.5026 67.862 25.6976 62.5387 30.5951C57.2128 35.4926 44.7676 36.6176 44.7676 36.6176L46.164 38.9626C46.164 38.9626 71.4367 35.9801 74.8265 34.2426C78.2164 32.5051 76.7026 27.2951 74.879 25.5001" fill="#1C056D"/>
</g>
<path d="M75.9829 31.0433C77.062 30.3957 75.483 25.7757 72.4561 20.7243C69.4293 15.6728 66.1008 12.1028 65.0217 12.7504C63.9426 13.398 65.5216 18.018 68.5485 23.0694C71.5753 28.1209 74.9038 31.6909 75.9829 31.0433Z" fill="#1B3D9E"/>
<mask id="mask3_676_4351" style="mask-type:luminance" maskUnits="userSpaceOnUse" x="64" y="12" width="13" height="20">
<path d="M75.9829 31.0433C77.062 30.3957 75.483 25.7757 72.4561 20.7243C69.4293 15.6728 66.1008 12.1028 65.0217 12.7504C63.9426 13.398 65.5216 18.018 68.5485 23.0694C71.5753 28.1209 74.9038 31.6909 75.9829 31.0433Z" fill="white"/>
</mask>
<g mask="url(#mask3_676_4351)">
<path d="M67.1798 22.2353C67.1798 22.2353 70.1675 18.8954 71.4565 21.0053C72.7454 23.1153 72.8978 23.9303 68.4913 25.4303L67.1798 22.2353Z" fill="white"/>
<path d="M66.3429 12.8353C66.3429 12.8353 65.3312 13.6153 66.3354 16.2878C67.2047 18.6003 73.1201 30.0777 76.8422 30.5277C76.8422 30.5277 76.5199 32.1652 75.4758 32.2702C74.4316 32.3752 70.12 28.7677 68.7885 26.1127C67.457 23.4552 63.1654 16.1853 62.9656 14.8728C62.7657 13.5578 65.3512 11.7553 66.3429 12.8378V12.8353Z" fill="#1C056D"/>
</g>
<path d="M285.114 61.1666L284.179 62.3906C283.873 62.7793 283.56 63.1537 283.251 63.5317C282.628 64.2877 281.977 65.0149 281.323 65.7457C279.995 67.1892 278.625 68.6076 277.129 69.954C275.643 71.3147 274.06 72.6251 272.251 73.849C271.341 74.4574 270.388 75.0694 269.298 75.6094C268.208 76.1494 266.999 76.6678 265.474 77.0134L265.208 77.0746C264.981 77.125 264.733 77.1574 264.51 77.1646C262.952 77.215 261.704 76.8154 260.798 76.3978C259.87 75.9694 259.179 75.4942 258.582 75.019C257.406 74.0722 256.568 73.1363 255.798 72.2111C254.287 70.3643 253.172 68.5032 252.114 66.6492C251.089 64.7809 250.176 62.9017 249.355 60.9974C248.539 59.0786 247.798 57.1923 247.161 55.1583C246.694 53.668 247.521 52.084 249.01 51.616C250.186 51.2453 251.424 51.688 252.122 52.624L252.179 52.7032C253.319 54.2368 254.474 55.8567 255.636 57.3975C256.798 58.9454 257.963 60.4754 259.157 61.9118C260.33 63.3553 261.575 64.7197 262.751 65.8177C263.334 66.354 263.931 66.8184 264.362 67.0452C264.571 67.1568 264.733 67.2036 264.722 67.1712C264.726 67.1532 264.47 66.9876 263.913 66.9948L262.949 67.146C263.208 67.0236 263.69 66.7752 264.208 66.4225C264.726 66.0661 265.305 65.6485 265.88 65.1733C266.46 64.7017 267.046 64.1653 267.632 63.6145C268.226 63.0709 268.812 62.4878 269.395 61.8902C270.557 60.6878 271.726 59.435 272.862 58.1391L274.564 56.1843L276.193 54.2656L276.348 54.082C278.366 51.7096 281.923 51.4216 284.294 53.4412C286.585 55.3923 286.923 58.7979 285.118 61.1666H285.114Z" fill="#1A2E35"/>
<path d="M251.985 51.4217C251.632 48.6426 246.585 47.3538 246.585 47.3538L243.639 46.047C242.639 45.6042 241.47 45.9498 240.87 46.8642L239.366 49.161C238.679 50.2085 238.988 51.6125 240.049 52.2785L242.754 53.9704C243.236 54.2728 243.78 54.4672 244.344 54.5392L246.643 54.838C248.614 55.0936 250.557 54.19 251.629 52.5125L251.769 52.2929C251.934 52.0337 252.017 51.7241 251.977 51.4181L251.985 51.4217Z" fill="#FFB570"/>
<path d="M286.405 161.226C294.448 135.71 300.668 104.657 300.668 104.657L276.481 102.277C276.481 102.277 274.898 142.229 273.387 159.923C271.819 178.322 265.679 221.049 265.679 221.049L273.031 221.654C273.031 221.654 285.664 184.074 286.405 161.229V161.226Z" fill="#1A2E35"/>
<path d="M291.236 125.508L294.6 131.509C292.88 138.514 290.862 146.218 288.672 153.756C288.977 141.923 290.211 128.258 291.236 125.511V125.508Z" fill="black"/>
<path d="M309.912 159.523C309.48 133.287 311.168 115.755 308.916 102.825L286.819 102.493C286.819 102.493 292.247 144.115 294.948 161.449C297.664 178.847 301.081 221.578 301.081 221.578H307.912C307.912 221.578 313.858 179.823 309.912 159.527V159.523Z" fill="#1A2E35"/>
<path d="M307.93 50.4785C300.118 49.5066 288.949 49.5966 281.463 50.8889C277.65 51.5477 274.643 54.7012 274.111 58.5207C272.535 69.8352 273.891 89.6131 274.895 109.521C291.995 115.378 310.038 109.441 310.038 109.441C310.661 105.424 309.261 92.2662 308.319 85.2392C309.729 77.9854 312.722 69.6804 314.7 60.0471C315.661 55.3708 312.585 51.0545 307.93 50.4785Z" fill="#1A2E35"/>
<path d="M287.783 50.1293C286.844 51.0761 286.218 52.5628 285.884 54.4744C285.082 59.0714 285.992 66.1489 288.409 74.2702C290.725 67.7292 295.714 59.0786 298.779 54.0496C300.225 51.6664 301.243 50.0933 301.337 49.9565C301.344 49.9493 301.344 49.9457 301.344 49.9457C296.585 48.8621 292.308 49.0133 287.787 50.1329L287.783 50.1293Z" fill="#E1E1E1"/>
<path d="M300.197 35.5352L291.297 42.8394C292.448 45.9029 292.815 49.096 287.79 50.3236C286.531 51.9867 288.751 53.8875 290.826 54.7586C294.182 54.3411 298.912 53.2215 300.959 50.41C300.315 48.2032 299.337 40.0674 300.197 35.5352Z" fill="#FFB570"/>
<path d="M288.704 52.9118C288.704 52.9118 289.157 54.4454 290.549 55.6981C291.906 55.6981 293.891 54.1646 293.891 54.1646C293.891 54.1646 293.125 52.0118 292.046 51.5726C289.298 52.2494 288.704 52.9118 288.704 52.9118Z" fill="#007CFF"/>
<path d="M291.801 54.7589C290.999 54.2009 290.305 54.3773 290.305 54.3773C288.524 56.9116 287.391 60.8427 286.294 65.375C286.765 68.1289 287.47 71.1241 288.413 74.274C289.272 71.8404 290.506 69.1189 291.869 66.4046C291.481 63.1611 291.236 58.924 291.801 54.7625V54.7589Z" fill="#007CFF"/>
<path opacity="0.2" d="M296.488 38.5807L291.305 42.8322C291.585 43.5666 291.812 44.3081 291.927 45.0281C293.938 45.1721 296.733 43.1346 296.858 41.3022C296.923 40.3734 296.686 39.0127 296.488 38.5807Z" fill="black"/>
<path d="M287.628 22.7448C283.747 26.5751 286.29 32.695 286.29 32.695C286.29 32.695 293.074 20.5885 287.628 22.7448Z" fill="#1A2E35"/>
<path d="M301.473 30.5529C300.661 36.1399 300.47 39.4519 297.394 42.0762C292.769 46.0217 286.049 42.807 285.171 37.0759C284.384 31.9173 285.844 23.6483 291.527 21.9167C297.128 20.214 302.283 24.9658 301.473 30.5529Z" fill="#FFB570"/>
<path d="M302.092 33.4148C297.916 34.2752 296.704 31.0353 296.704 31.0353C297.916 31.3484 299.276 31.0353 299.276 31.0353C299.276 31.0353 296.456 28.1589 298.682 25.369C297.535 24.1162 292.416 24.6598 290.035 25.369C287.423 24.3862 286.085 23.929 284.693 20.8259C284.693 20.8259 286.564 21.2435 288.495 20.3543C291.092 19.1592 287.2 18.2808 287.2 18.2808C287.2 18.2808 291.319 16.4341 296.589 17.1756C302.646 18.0288 303.581 19.8324 303.351 21.8699C306.52 21.8339 306.833 25.3654 306.833 25.3654C306.833 25.3654 306.171 24.8434 305.509 24.7714C305.682 25.8154 306.312 32.1296 302.099 33.4076L302.092 33.4148Z" fill="#1A2E35"/>
<path d="M302.459 22.2912C303.621 21.762 303.977 18.9865 303.29 17.8237C306.394 21.114 304.15 22.4748 302.459 22.2912Z" fill="#1A2E35"/>
<path d="M303.366 34.8911C302.815 36.1654 301.725 37.0618 300.657 37.4614C299.046 38.0626 298.085 36.655 298.398 35.0603C298.682 33.6239 299.862 31.5828 301.542 31.6692C303.197 31.752 303.995 33.4367 303.366 34.8947V34.8911Z" fill="#FFB570"/>
<path d="M293.636 30.7587C293.596 31.2161 293.323 31.5655 293.024 31.5366C292.726 31.5078 292.513 31.1153 292.553 30.6579C292.592 30.2005 292.862 29.8511 293.165 29.88C293.463 29.9088 293.676 30.3013 293.636 30.7587Z" fill="#1A2E35"/>
<path d="M288.172 30.6253C288.132 31.0827 287.862 31.432 287.56 31.4032C287.261 31.3744 287.049 30.9818 287.089 30.5245C287.128 30.0671 287.398 29.7177 287.7 29.7465C287.999 29.7753 288.211 30.1679 288.172 30.6253Z" fill="#1A2E35"/>
<path d="M289.28 31.2406C289.28 31.2406 288.021 33.7857 286.769 34.9521C287.514 35.7837 288.92 35.5641 288.92 35.5641L289.28 31.2406Z" fill="#FF8935"/>
<path d="M294.97 29.3865C295.013 29.3937 295.06 29.3865 295.107 29.3721C295.244 29.3181 295.312 29.1597 295.254 29.0229C294.697 27.6333 293.481 27.367 293.431 27.3562C293.283 27.3274 293.143 27.421 293.114 27.565C293.085 27.7089 293.179 27.8529 293.326 27.8853C293.366 27.8925 294.312 28.1121 294.758 29.2209C294.794 29.3145 294.88 29.3757 294.974 29.3901L294.97 29.3865Z" fill="#1A2E35"/>
<path d="M285.628 28.8791C285.711 28.9079 285.805 28.8971 285.88 28.8431C286.83 28.134 287.747 28.4508 287.783 28.4652C287.923 28.5156 288.078 28.4436 288.125 28.3032C288.175 28.1628 288.103 28.008 287.963 27.9576C287.913 27.9396 286.743 27.5184 285.553 28.4076C285.434 28.4976 285.409 28.6668 285.499 28.7855C285.531 28.8287 285.574 28.8611 285.625 28.8791H285.628Z" fill="#1A2E35"/>
<path d="M301.344 49.9422C301.344 49.9422 301.344 49.9494 301.337 49.953C301.243 50.0898 300.229 51.6666 298.779 54.0461C297.614 55.1513 295.948 56.1952 293.585 56.7748C293.873 55.8172 293.017 52.5665 292.063 51.5694C294.308 51.681 297.394 51.2994 301.344 49.9386V49.9422Z" fill="#FAFAFA"/>
<path d="M292.046 51.5727C290.129 52.3179 288.168 54.395 287.578 56.3318C286.571 55.7918 286.067 55.1474 285.888 54.4742C286.219 52.5627 286.844 51.0759 287.787 50.1292C288.308 50.7951 289.722 51.4467 292.046 51.5727Z" fill="#FAFAFA"/>
<path d="M314.718 55.9396C315.175 56.9331 315.56 57.8187 315.945 58.7655C316.333 59.6979 316.686 60.6411 317.038 61.5842C317.733 63.4778 318.384 65.3965 318.948 67.3729C319.52 69.3456 320.035 71.3616 320.42 73.4927C320.614 74.5583 320.783 75.6599 320.891 76.8226C320.988 77.9926 321.049 79.2094 320.934 80.6457C320.661 83.6516 319.661 85.8872 318.592 87.9427C317.517 89.9803 316.229 91.7334 314.909 93.3822C313.56 95.0165 312.143 96.5177 310.65 97.9253C309.139 99.3364 307.636 100.625 305.895 101.867C304.625 102.774 302.862 102.479 301.956 101.208C301.251 100.222 301.272 98.9332 301.913 97.9865L302.006 97.8497L303.553 95.5673C304.078 94.8005 304.578 94.0158 305.082 93.2418C306.067 91.683 307.024 90.1315 307.848 88.5655C308.704 87.0211 309.409 85.4444 309.952 83.9684C310.215 83.2304 310.42 82.5105 310.546 81.8445C310.686 81.1893 310.729 80.5701 310.7 80.1525C310.675 79.6557 310.574 78.9358 310.423 78.1906C310.276 77.4382 310.096 76.6354 309.873 75.8146C309.42 74.1731 308.877 72.4631 308.283 70.7532C307.682 69.0396 307.049 67.3117 306.384 65.5873L304.384 60.4683L304.337 60.3459C303.204 57.4443 304.636 54.1684 307.535 53.0345C310.33 51.9401 313.474 53.2468 314.715 55.936L314.718 55.9396Z" fill="#1A2E35"/>
<path d="M306.664 100.647C306.585 100.351 306.391 100.096 306.139 99.9194L303.952 98.3894C303.528 98.0907 302.97 98.0655 302.517 98.321L300.556 99.437C298.65 100.524 296.999 102.011 295.718 103.793L295.294 104.383C294.564 105.398 294.812 106.817 295.841 107.526L298.103 109.081C299.002 109.7 300.218 109.574 300.977 108.786L303.211 106.46C303.211 106.46 307.394 103.354 306.664 100.647Z" fill="#FFB570"/>
<path d="M302.642 97.144C302.642 97.144 300.819 97.9252 299.973 98.7856C300.25 100.528 305.088 103.419 306.725 103.455C307.387 102.828 308.254 100.301 308.254 100.301C306.423 99.538 303.959 97.7776 302.639 97.1476L302.642 97.144Z" fill="#E1E1E1"/>
<path d="M253.15 53.8768C253.15 53.8768 253.183 51.8933 252.744 50.7701C251.042 50.3129 246.427 53.5528 245.729 55.0324C246.032 55.8928 247.981 57.7179 247.981 57.7179C249.427 56.3572 252.039 54.8236 253.15 53.8768Z" fill="#E1E1E1"/>
<path d="M291.028 37.2092C290.751 37.22 290.459 37.2092 290.154 37.1624C290.071 37.1516 290.017 37.0724 290.035 36.9896C290.053 36.9068 290.132 36.8456 290.218 36.8564C292.463 37.1768 293.855 35.7261 293.869 35.7117C293.931 35.6469 294.028 35.6397 294.085 35.6973C294.146 35.7549 294.146 35.8521 294.085 35.9133C294.031 35.9709 292.913 37.1372 291.028 37.2092Z" fill="#1A2E35"/>
<path d="M21.6559 122.789C21.8361 122.789 21.9881 122.848 22.1148 122.971C22.2414 123.093 22.3034 123.243 22.3034 123.422C22.3034 123.601 22.2414 123.754 22.1148 123.873C21.9881 123.993 21.8361 124.055 21.6559 124.055C21.4757 124.055 21.3125 123.995 21.1886 123.873C21.0619 123.751 21 123.601 21 123.422C21 123.243 21.0619 123.09 21.1886 122.971C21.3153 122.848 21.4701 122.789 21.6559 122.789ZM21.1971 124.675H22.0528L22.1711 128.894H21.0816L21.1999 124.675H21.1971ZM24.8032 126.92H26.9201V127.719H23.7757V121.674H24.8032V126.92ZM27.4352 125.3C27.4352 124.819 27.5366 124.392 27.7421 124.023C27.9532 123.653 28.2347 123.365 28.5894 123.161C28.9497 122.952 29.3467 122.848 29.7774 122.848C30.1687 122.848 30.5065 122.924 30.7964 123.074C31.092 123.218 31.3257 123.403 31.5002 123.623V122.927H32.5361V127.719H31.5002V127.007C31.3257 127.233 31.0892 127.42 30.788 127.573C30.4868 127.722 30.1461 127.798 29.7605 127.798C29.3354 127.798 28.9441 127.695 28.5894 127.486C28.2347 127.271 27.9532 126.975 27.7421 126.6C27.5366 126.216 27.4352 125.784 27.4352 125.303V125.3ZM31.5002 125.319C31.5002 124.988 31.427 124.702 31.2834 124.458C31.1455 124.213 30.9625 124.028 30.7345 123.9C30.5065 123.773 30.2587 123.71 29.9969 123.71C29.7351 123.71 29.4874 123.775 29.2594 123.9C29.0314 124.023 28.8456 124.205 28.702 124.449C28.5641 124.689 28.4937 124.971 28.4937 125.303C28.4937 125.635 28.5641 125.923 28.702 126.173C28.8456 126.423 29.0314 126.613 29.2594 126.746C29.493 126.874 29.7408 126.937 29.9969 126.937C30.2531 126.937 30.5065 126.874 30.7345 126.746C30.9625 126.619 31.1455 126.434 31.2834 126.189C31.427 125.939 31.5002 125.651 31.5002 125.319ZM35.6862 127.798C35.2949 127.798 34.943 127.733 34.6334 127.597C34.3265 127.458 34.0844 127.271 33.9043 127.04C33.7241 126.801 33.6284 126.537 33.6171 126.249H34.6812C34.6981 126.453 34.7994 126.624 34.9796 126.763C35.1654 126.896 35.3962 126.964 35.6721 126.964C35.948 126.964 36.1816 126.912 36.3393 126.806C36.5026 126.695 36.5814 126.556 36.5814 126.387C36.5814 126.208 36.4913 126.075 36.3111 125.988C36.1366 125.901 35.8579 125.806 35.4722 125.7C35.1007 125.602 34.7966 125.507 34.563 125.412C34.3293 125.317 34.1238 125.178 33.9493 124.985C33.7804 124.795 33.6959 124.542 33.6959 124.229C33.6959 123.974 33.7748 123.743 33.9296 123.533C34.0844 123.319 34.3068 123.15 34.5968 123.028C34.8923 122.905 35.2273 122.846 35.6045 122.846C36.1704 122.846 36.6236 122.984 36.9642 123.264C37.3133 123.536 37.4991 123.911 37.5216 124.387H36.4941C36.4772 124.172 36.3871 124.001 36.2239 123.873C36.0606 123.745 35.8438 123.683 35.5651 123.683C35.2864 123.683 35.0866 123.732 34.943 123.83C34.7994 123.928 34.7262 124.058 34.7262 124.221C34.7262 124.349 34.7741 124.455 34.8698 124.542C34.9655 124.629 35.0838 124.699 35.2217 124.751C35.3596 124.797 35.5651 124.857 35.8354 124.933C36.1957 125.026 36.4913 125.121 36.7193 125.221C36.953 125.314 37.1556 125.452 37.3217 125.64C37.4906 125.825 37.5779 126.072 37.5835 126.379C37.5835 126.651 37.5047 126.896 37.3499 127.111C37.1922 127.325 36.9727 127.494 36.6827 127.616C36.4012 127.738 36.0662 127.798 35.6834 127.798H35.6862ZM47.045 122.848C47.4363 122.848 47.7825 122.927 48.0894 123.082C48.4018 123.24 48.6439 123.471 48.8185 123.778C48.9986 124.085 49.0887 124.458 49.0887 124.892V127.719H48.0696V125.039C48.0696 124.61 47.9599 124.284 47.7375 124.055C47.5151 123.824 47.2111 123.707 46.8282 123.707C46.4454 123.707 46.1385 123.824 45.9105 124.055C45.6881 124.281 45.5783 124.61 45.5783 125.039V127.719H44.5593V125.039C44.5593 124.61 44.4467 124.284 44.2271 124.055C44.0047 123.824 43.7007 123.707 43.3178 123.707C42.935 123.707 42.6281 123.824 42.4001 124.055C42.1777 124.281 42.0679 124.61 42.0679 125.039V127.719H41.0404V122.927H42.0679V123.476C42.2368 123.278 42.448 123.126 42.7069 123.014C42.9659 122.905 43.2418 122.848 43.5346 122.848C43.9315 122.848 44.2862 122.93 44.5987 123.093C44.9111 123.256 45.1504 123.49 45.3193 123.797C45.4685 123.506 45.705 123.278 46.0231 123.109C46.3412 122.935 46.6846 122.848 47.0506 122.848H47.045ZM54.944 125.205C54.944 125.384 54.9328 125.548 54.9074 125.692H51.1155C51.1465 126.075 51.2929 126.382 51.5575 126.613C51.8221 126.844 52.1459 126.961 52.5315 126.961C53.0833 126.961 53.4746 126.738 53.7026 126.292H54.8117C54.6625 126.733 54.3895 127.094 53.9925 127.38C53.6012 127.657 53.1171 127.798 52.5343 127.798C52.0586 127.798 51.6335 127.698 51.2563 127.494C50.8847 127.285 50.5891 126.996 50.3724 126.624C50.1612 126.246 50.0571 125.811 50.0571 125.319C50.0571 124.827 50.1584 124.395 50.3639 124.023C50.5751 123.645 50.865 123.357 51.2366 123.153C51.6138 122.949 52.0473 122.848 52.5343 122.848C53.0213 122.848 53.4211 122.946 53.787 123.145C54.153 123.343 54.4373 123.62 54.6428 123.979C54.8483 124.333 54.9497 124.743 54.9497 125.205H54.944ZM53.8743 124.892C53.8687 124.528 53.7336 124.235 53.4689 124.014C53.2043 123.794 52.8778 123.683 52.4865 123.683C52.1318 123.683 51.8278 123.792 51.5772 124.014C51.3239 124.229 51.1747 124.523 51.1268 124.892H53.8743ZM56.4782 122.291C56.2924 122.291 56.1348 122.231 56.0109 122.109C55.8843 121.987 55.8223 121.837 55.8223 121.658C55.8223 121.478 55.8843 121.326 56.0109 121.207C56.1376 121.087 56.2924 121.024 56.4782 121.024C56.664 121.024 56.8104 121.084 56.9371 121.207C57.0638 121.329 57.1257 121.478 57.1257 121.658C57.1257 121.837 57.0638 121.989 56.9371 122.109C56.8104 122.231 56.6584 122.291 56.4782 122.291ZM56.9821 128.66C56.9821 129.13 56.8583 129.47 56.6134 129.677C56.3741 129.891 56.0222 129.997 55.5605 129.997H55.0285V129.163H55.3804C55.5915 129.163 55.7379 129.122 55.8223 129.04C55.9124 128.964 55.9575 128.837 55.9575 128.657V122.924H56.9849V128.657L56.9821 128.66ZM60.4841 127.798C60.0168 127.798 59.5917 127.698 59.2145 127.494C58.8373 127.285 58.5389 126.996 58.3221 126.624C58.1053 126.246 57.9984 125.811 57.9984 125.319C57.9984 124.827 58.111 124.4 58.3305 124.023C58.5529 123.645 58.857 123.357 59.2398 123.153C59.6255 122.949 60.0534 122.848 60.5291 122.848C61.0049 122.848 61.4328 122.949 61.8184 123.153C62.2041 123.357 62.5053 123.645 62.7277 124.023C62.9501 124.4 63.0599 124.833 63.0599 125.319C63.0599 125.806 62.9473 126.238 62.7164 126.616C62.4884 126.994 62.1759 127.285 61.779 127.494C61.3877 127.698 60.957 127.798 60.4813 127.798H60.4841ZM60.4841 126.937C60.7487 126.937 60.9936 126.877 61.2216 126.754C61.4553 126.632 61.6439 126.45 61.7903 126.205C61.9338 125.961 62.007 125.667 62.007 125.319C62.007 124.971 61.9395 124.678 61.7987 124.441C61.6608 124.197 61.4778 124.014 61.2498 123.892C61.0218 123.77 60.7768 123.71 60.5122 123.71C60.2476 123.71 60.0027 123.77 59.7747 123.892C59.5523 124.014 59.3749 124.197 59.2426 124.441C59.1103 124.68 59.0456 124.971 59.0456 125.319C59.0456 125.836 59.1807 126.235 59.4509 126.521C59.7268 126.798 60.0731 126.939 60.4869 126.939L60.4841 126.937ZM65.1036 123.623C65.2528 123.378 65.4527 123.191 65.6976 123.058C65.9509 122.919 66.2465 122.848 66.59 122.848V123.876H66.3281C65.9256 123.876 65.6188 123.974 65.4104 124.172C65.2049 124.371 65.1036 124.71 65.1036 125.2V127.722H64.0761V122.93H65.1036V123.626V123.623ZM72.0821 125.205C72.0821 125.384 72.0709 125.548 72.0455 125.692H68.2536C68.2846 126.075 68.431 126.382 68.6956 126.613C68.9602 126.844 69.284 126.961 69.6696 126.961C70.2214 126.961 70.6127 126.738 70.8407 126.292H71.9498C71.8006 126.733 71.5276 127.094 71.1306 127.38C70.7393 127.657 70.2552 127.798 69.6724 127.798C69.1967 127.798 68.7716 127.698 68.3944 127.494C68.0228 127.285 67.7272 126.996 67.5105 126.624C67.2993 126.246 67.1952 125.811 67.1952 125.319C67.1952 124.827 67.2965 124.395 67.502 124.023C67.7132 123.645 68.0031 123.357 68.3747 123.153C68.7519 122.949 69.1854 122.848 69.6724 122.848C70.1594 122.848 70.5592 122.946 70.9251 123.145C71.2911 123.343 71.5754 123.62 71.7809 123.979C71.9864 124.333 72.0878 124.743 72.0878 125.205H72.0821ZM71.0096 124.892C71.004 124.528 70.8688 124.235 70.6042 124.014C70.3396 123.794 70.0131 123.683 69.6218 123.683C69.2671 123.683 68.963 123.792 68.7125 124.014C68.4591 124.229 68.31 124.523 68.2621 124.892H71.0096ZM74.8944 127.798C74.5031 127.798 74.154 127.733 73.8415 127.597C73.5347 127.458 73.2926 127.271 73.1124 127.04C72.9323 126.801 72.8366 126.537 72.8253 126.249H73.8894C73.9063 126.453 74.0076 126.624 74.1878 126.763C74.3736 126.896 74.6044 126.964 74.8803 126.964C75.1562 126.964 75.3898 126.912 75.5475 126.806C75.7107 126.695 75.7896 126.556 75.7896 126.387C75.7896 126.208 75.6995 126.075 75.5193 125.988C75.3448 125.901 75.0661 125.806 74.6804 125.7C74.3088 125.602 74.0048 125.507 73.7712 125.412C73.5375 125.317 73.332 125.178 73.1575 124.985C72.9886 124.795 72.9041 124.542 72.9041 124.229C72.9041 123.974 72.983 123.743 73.1378 123.533C73.2926 123.319 73.515 123.15 73.8049 123.028C74.0977 122.905 74.4355 122.846 74.8127 122.846C75.3758 122.846 75.8318 122.984 76.1724 123.264C76.5215 123.536 76.7073 123.911 76.7298 124.387H75.7023C75.6854 124.172 75.5953 124.001 75.4321 123.873C75.2688 123.745 75.052 123.683 74.7733 123.683C74.4946 123.683 74.2948 123.732 74.1512 123.83C74.0076 123.928 73.9344 124.058 73.9344 124.221C73.9344 124.349 73.9823 124.455 74.078 124.542C74.1737 124.629 74.292 124.699 74.4299 124.751C74.5678 124.797 74.7733 124.857 75.0436 124.933C75.4039 125.026 75.6967 125.121 75.9275 125.221C76.1612 125.314 76.3638 125.452 76.5299 125.64C76.6988 125.825 76.7861 126.072 76.7917 126.379C76.7917 126.651 76.7129 126.896 76.5581 127.111C76.4033 127.325 76.1809 127.494 75.8909 127.616C75.6094 127.738 75.2744 127.798 74.8916 127.798H74.8944ZM81.1551 126.909H83.4071V127.719H79.9671V126.909L82.2276 123.735H79.9671V122.924H83.4071V123.735L81.1551 126.909ZM86.6388 127.798C86.1715 127.798 85.7465 127.698 85.3692 127.494C84.992 127.285 84.6936 126.996 84.4769 126.624C84.2601 126.246 84.1531 125.811 84.1531 125.319C84.1531 124.827 84.2629 124.4 84.4853 124.023C84.7077 123.645 85.0117 123.357 85.3946 123.153C85.7774 122.949 86.2081 122.848 86.6839 122.848C87.1596 122.848 87.5875 122.949 87.9732 123.153C88.3588 123.357 88.66 123.645 88.8824 124.023C89.1048 124.4 89.2146 124.833 89.2146 125.319C89.2146 125.806 89.0992 126.238 88.8712 126.616C88.6432 126.994 88.3307 127.285 87.9337 127.494C87.5425 127.698 87.1118 127.798 86.636 127.798H86.6388ZM86.6388 126.937C86.9034 126.937 87.1483 126.877 87.3764 126.754C87.61 126.632 87.7986 126.45 87.945 126.205C88.0914 125.961 88.1618 125.667 88.1618 125.319C88.1618 124.971 88.0914 124.678 87.9535 124.441C87.8155 124.197 87.6325 124.014 87.4045 123.892C87.1765 123.77 86.9288 123.71 86.667 123.71C86.4052 123.71 86.1574 123.77 85.9294 123.892C85.707 124.014 85.5297 124.197 85.3974 124.441C85.2651 124.68 85.2003 124.971 85.2003 125.319C85.2003 125.836 85.3354 126.235 85.6057 126.521C85.8816 126.798 86.2278 126.939 86.6416 126.939L86.6388 126.937ZM92.7334 122.848C93.1247 122.848 93.471 122.927 93.7778 123.082C94.0903 123.24 94.3324 123.471 94.5069 123.778C94.6815 124.085 94.7687 124.458 94.7687 124.892V127.719H93.7497V125.039C93.7497 124.61 93.6371 124.284 93.4175 124.055C93.1951 123.824 92.8911 123.707 92.5082 123.707C92.1254 123.707 91.8185 123.824 91.5905 124.055C91.3681 124.281 91.2583 124.61 91.2583 125.039V127.719H90.2308V122.927H91.2583V123.476C91.4272 123.278 91.6384 123.126 91.8974 123.014C92.162 122.905 92.4407 122.848 92.7362 122.848H92.7334ZM95.7371 125.3C95.7371 124.819 95.8384 124.392 96.0439 124.023C96.2551 123.653 96.5366 123.365 96.8913 123.161C97.2516 122.952 97.6485 122.848 98.0792 122.848C98.4705 122.848 98.8083 122.924 99.0983 123.074C99.3939 123.218 99.6275 123.403 99.8021 123.623V122.927H100.838V127.719H99.8021V127.007C99.6275 127.233 99.3911 127.42 99.0898 127.573C98.7886 127.722 98.448 127.798 98.0623 127.798C97.6345 127.798 97.246 127.695 96.8913 127.486C96.5366 127.271 96.2551 126.975 96.0439 126.6C95.8384 126.216 95.7371 125.784 95.7371 125.303V125.3ZM99.7992 125.319C99.7992 124.988 99.7261 124.702 99.5825 124.458C99.4445 124.213 99.2616 124.028 99.0335 123.9C98.8055 123.773 98.5606 123.71 98.296 123.71C98.0314 123.71 97.7865 123.775 97.5584 123.9C97.3304 124.023 97.1446 124.205 97.0011 124.449C96.8631 124.689 96.7928 124.971 96.7928 125.303C96.7928 125.635 96.8603 125.923 97.0011 126.173C97.1446 126.423 97.3304 126.613 97.5584 126.746C97.7921 126.874 98.0398 126.937 98.296 126.937C98.5522 126.937 98.8055 126.874 99.0335 126.746C99.2616 126.619 99.4445 126.434 99.5825 126.189C99.7261 125.939 99.7992 125.651 99.7992 125.319ZM103.985 127.798C103.594 127.798 103.242 127.733 102.932 127.597C102.626 127.458 102.383 127.271 102.203 127.04C102.023 126.801 101.927 126.537 101.916 126.249H102.98C102.997 126.453 103.098 126.624 103.279 126.763C103.464 126.896 103.695 126.964 103.971 126.964C104.247 126.964 104.481 126.912 104.638 126.806C104.802 126.695 104.88 126.556 104.88 126.387C104.88 126.208 104.79 126.075 104.61 125.988C104.436 125.901 104.157 125.806 103.771 125.7C103.4 125.602 103.096 125.507 102.862 125.412C102.628 125.317 102.423 125.178 102.248 124.985C102.079 124.795 101.995 124.542 101.995 124.229C101.995 123.974 102.074 123.743 102.229 123.533C102.383 123.319 102.606 123.15 102.896 123.028C103.191 122.905 103.526 122.846 103.904 122.846C104.467 122.846 104.923 122.984 105.263 123.264C105.612 123.536 105.798 123.911 105.821 124.387H104.793C104.776 124.172 104.686 124.001 104.523 123.873C104.36 123.745 104.143 123.683 103.864 123.683C103.586 123.683 103.386 123.732 103.242 123.83C103.098 123.928 103.025 124.058 103.025 124.221C103.025 124.349 103.073 124.455 103.169 124.542C103.265 124.629 103.383 124.699 103.521 124.751C103.659 124.797 103.864 124.857 104.134 124.933C104.495 125.026 104.788 125.121 105.018 125.221C105.252 125.314 105.455 125.452 105.621 125.64C105.79 125.825 105.877 126.072 105.883 126.379C105.883 126.651 105.804 126.896 105.649 127.111C105.494 127.325 105.272 127.494 104.982 127.616C104.7 127.738 104.365 127.798 103.982 127.798H103.985ZM110.364 123.631C110.539 123.411 110.775 123.226 111.076 123.074C111.378 122.924 111.715 122.848 112.095 122.848C112.529 122.848 112.92 122.952 113.275 123.161C113.635 123.365 113.917 123.65 114.122 124.023C114.328 124.395 114.429 124.819 114.429 125.3C114.429 125.781 114.328 126.214 114.122 126.597C113.917 126.975 113.635 127.268 113.275 127.483C112.92 127.692 112.526 127.796 112.095 127.796C111.718 127.796 111.38 127.722 111.088 127.578C110.792 127.429 110.553 127.241 110.367 127.021V129.995H109.339V122.922H110.367V123.626L110.364 123.631ZM113.382 125.3C113.382 124.969 113.309 124.686 113.165 124.447C113.027 124.202 112.841 124.02 112.608 123.898C112.38 123.77 112.132 123.707 111.87 123.707C111.608 123.707 111.366 123.773 111.133 123.898C110.905 124.025 110.719 124.21 110.575 124.455C110.437 124.699 110.367 124.985 110.367 125.317C110.367 125.648 110.435 125.936 110.575 126.186C110.719 126.431 110.905 126.616 111.133 126.744C111.366 126.871 111.614 126.934 111.87 126.934C112.126 126.934 112.38 126.871 112.608 126.744C112.841 126.61 113.027 126.42 113.165 126.17C113.309 125.92 113.382 125.632 113.382 125.3ZM115.099 125.3C115.099 124.819 115.2 124.392 115.406 124.023C115.617 123.653 115.899 123.365 116.253 123.161C116.614 122.952 117.011 122.848 117.441 122.848C117.833 122.848 118.17 122.924 118.46 123.074C118.756 123.218 118.99 123.403 119.164 123.623V122.927H120.2V127.719H119.164V127.007C118.99 127.233 118.753 127.42 118.452 127.573C118.151 127.722 117.81 127.798 117.424 127.798C116.999 127.798 116.608 127.695 116.253 127.486C115.899 127.271 115.617 126.975 115.406 126.6C115.2 126.216 115.099 125.784 115.099 125.303V125.3ZM119.161 125.319C119.161 124.988 119.088 124.702 118.944 124.458C118.807 124.213 118.624 124.028 118.396 123.9C118.168 123.773 117.923 123.71 117.658 123.71C117.393 123.71 117.148 123.775 116.92 123.9C116.692 124.023 116.507 124.205 116.363 124.449C116.225 124.689 116.155 124.971 116.155 125.303C116.155 125.635 116.225 125.923 116.363 126.173C116.507 126.423 116.692 126.613 116.92 126.746C117.154 126.874 117.402 126.937 117.658 126.937C117.914 126.937 118.168 126.874 118.396 126.746C118.624 126.619 118.807 126.434 118.944 126.189C119.088 125.939 119.161 125.651 119.161 125.319ZM122.573 123.623C122.722 123.378 122.922 123.191 123.167 123.058C123.42 122.919 123.716 122.848 124.059 122.848V123.876H123.798C123.395 123.876 123.088 123.974 122.88 124.172C122.674 124.371 122.573 124.71 122.573 125.2V127.722H121.546V122.93H122.573V123.626V123.623ZM124.662 125.3C124.662 124.819 124.763 124.392 124.969 124.023C125.18 123.653 125.461 123.365 125.816 123.161C126.176 122.952 126.573 122.848 127.004 122.848C127.395 122.848 127.733 122.924 128.023 123.074C128.319 123.218 128.552 123.403 128.727 123.623V122.927H129.763V127.719H128.727V127.007C128.552 127.233 128.316 127.42 128.015 127.573C127.713 127.722 127.373 127.798 126.987 127.798C126.559 127.798 126.171 127.695 125.816 127.486C125.461 127.271 125.18 126.975 124.969 126.6C124.763 126.216 124.662 125.784 124.662 125.303V125.3ZM128.724 125.319C128.724 124.988 128.651 124.702 128.507 124.458C128.369 124.213 128.186 124.028 127.958 123.9C127.73 123.773 127.485 123.71 127.221 123.71C126.956 123.71 126.711 123.775 126.483 123.9C126.255 124.023 126.069 124.205 125.926 124.449C125.788 124.689 125.718 124.971 125.718 125.303C125.718 125.635 125.785 125.923 125.926 126.173C126.069 126.423 126.255 126.613 126.483 126.746C126.717 126.874 126.965 126.937 127.221 126.937C127.477 126.937 127.73 126.874 127.958 126.746C128.186 126.619 128.369 126.434 128.507 126.189C128.651 125.939 128.724 125.651 128.724 125.319ZM135.368 126.833L136.772 122.927H137.862L135.97 127.719H134.745L132.862 122.927H133.96L135.365 126.833H135.368ZM139.162 122.291C138.976 122.291 138.819 122.231 138.695 122.109C138.568 121.987 138.506 121.837 138.506 121.658C138.506 121.478 138.568 121.326 138.695 121.207C138.822 121.087 138.976 121.024 139.162 121.024C139.348 121.024 139.494 121.084 139.621 121.207C139.748 121.329 139.81 121.478 139.81 121.658C139.81 121.837 139.748 121.989 139.621 122.109C139.494 122.231 139.342 122.291 139.162 122.291ZM139.666 122.927V127.719H138.639V122.927H139.666ZM142.934 126.833L144.339 122.927H145.429L143.537 127.719H142.312L140.429 122.927H141.527L142.932 126.833H142.934ZM146.726 122.291C146.541 122.291 146.383 122.231 146.259 122.109C146.132 121.987 146.07 121.837 146.07 121.658C146.07 121.478 146.132 121.326 146.259 121.207C146.386 121.087 146.541 121.024 146.726 121.024C146.912 121.024 147.059 121.084 147.185 121.207C147.312 121.329 147.374 121.478 147.374 121.658C147.374 121.837 147.312 121.989 147.185 122.109C147.059 122.231 146.907 122.291 146.726 122.291ZM147.233 122.927V127.719H146.206V122.927H147.233ZM149.606 123.623C149.755 123.378 149.955 123.191 150.2 123.058C150.453 122.919 150.749 122.848 151.093 122.848V123.876H150.831C150.428 123.876 150.121 123.974 149.913 124.172C149.71 124.371 149.606 124.71 149.606 125.2V127.722H148.579V122.93H149.606V123.626V123.623ZM153.164 126.529L152.075 128.929H151.408L152.047 126.529H153.164ZM156.058 125.3C156.058 124.819 156.16 124.392 156.365 124.023C156.576 123.653 156.858 123.365 157.212 123.161C157.573 122.952 157.97 122.848 158.4 122.848C158.792 122.848 159.13 122.924 159.419 123.074C159.715 123.218 159.949 123.403 160.123 123.623V122.927H161.159V127.719H160.123V127.007C159.949 127.233 159.712 127.42 159.411 127.573C159.11 127.722 158.769 127.798 158.384 127.798C157.958 127.798 157.567 127.695 157.212 127.486C156.858 127.271 156.576 126.975 156.365 126.6C156.162 126.216 156.058 125.784 156.058 125.303V125.3ZM160.12 125.319C160.12 124.988 160.047 124.702 159.904 124.458C159.766 124.213 159.583 124.028 159.355 123.9C159.127 123.773 158.882 123.71 158.617 123.71C158.353 123.71 158.108 123.775 157.88 123.9C157.652 124.023 157.466 124.205 157.322 124.449C157.184 124.689 157.114 124.971 157.114 125.303C157.114 125.635 157.184 125.923 157.322 126.173C157.466 126.423 157.652 126.613 157.88 126.746C158.113 126.874 158.361 126.937 158.617 126.937C158.873 126.937 159.127 126.874 159.355 126.746C159.583 126.619 159.766 126.434 159.904 126.189C160.047 125.939 160.12 125.651 160.12 125.319ZM163.532 121.283V127.719H162.505V121.283H163.532ZM164.54 125.3C164.54 124.819 164.641 124.392 164.847 124.023C165.058 123.653 165.34 123.365 165.694 123.161C166.055 122.952 166.454 122.848 166.893 122.848C167.279 122.848 167.617 122.924 167.913 123.074C168.214 123.226 168.445 123.408 168.605 123.623V122.927H169.641V130H168.605V127.026C168.442 127.241 168.208 127.423 167.901 127.575C167.594 127.728 167.245 127.801 166.857 127.801C166.432 127.801 166.04 127.698 165.686 127.488C165.337 127.274 165.058 126.977 164.847 126.602C164.644 126.219 164.54 125.787 164.54 125.306V125.3ZM168.602 125.319C168.602 124.988 168.529 124.702 168.385 124.458C168.247 124.213 168.065 124.028 167.837 123.9C167.608 123.773 167.364 123.71 167.099 123.71C166.834 123.71 166.589 123.775 166.361 123.9C166.133 124.023 165.948 124.205 165.804 124.449C165.666 124.689 165.596 124.971 165.596 125.303C165.596 125.635 165.666 125.923 165.804 126.173C165.948 126.423 166.133 126.613 166.361 126.746C166.595 126.874 166.843 126.937 167.099 126.937C167.355 126.937 167.608 126.874 167.837 126.746C168.065 126.619 168.247 126.434 168.385 126.189C168.529 125.939 168.602 125.651 168.602 125.319ZM175.482 122.927V127.719H174.455V127.154C174.291 127.35 174.08 127.507 173.816 127.624C173.557 127.733 173.281 127.79 172.988 127.79C172.597 127.79 172.245 127.711 171.935 127.556C171.628 127.399 171.386 127.168 171.206 126.86C171.032 126.553 170.944 126.181 170.944 125.746V122.927H171.963V125.596C171.963 126.026 172.073 126.358 172.296 126.589C172.518 126.814 172.822 126.928 173.205 126.928C173.588 126.928 173.892 126.814 174.114 126.589C174.342 126.358 174.458 126.026 174.458 125.596V122.927H175.485H175.482ZM177.36 122.291C177.174 122.291 177.016 122.231 176.893 122.109C176.766 121.987 176.704 121.837 176.704 121.658C176.704 121.478 176.766 121.326 176.893 121.207C177.019 121.087 177.174 121.024 177.36 121.024C177.546 121.024 177.692 121.084 177.819 121.207C177.945 121.329 178.007 121.478 178.007 121.658C178.007 121.837 177.945 121.989 177.819 122.109C177.692 122.231 177.54 122.291 177.36 122.291ZM177.864 122.927V127.719H176.836V122.927H177.864ZM180.24 121.283V127.719H179.212V121.283H180.24ZM181.245 125.3C181.245 124.819 181.346 124.392 181.551 124.023C181.763 123.653 182.044 123.365 182.399 123.161C182.759 122.952 183.156 122.848 183.587 122.848C183.978 122.848 184.316 122.924 184.606 123.074C184.899 123.218 185.135 123.403 185.31 123.623V122.927H186.346V127.719H185.31V127.007C185.135 127.233 184.899 127.42 184.597 127.573C184.296 127.725 183.956 127.798 183.57 127.798C183.142 127.798 182.754 127.695 182.399 127.486C182.044 127.271 181.763 126.975 181.551 126.6C181.349 126.216 181.245 125.784 181.245 125.303V125.3ZM185.307 125.319C185.307 124.988 185.234 124.702 185.09 124.458C184.952 124.213 184.769 124.028 184.541 123.9C184.313 123.773 184.068 123.71 183.804 123.71C183.539 123.71 183.294 123.775 183.066 123.9C182.838 124.023 182.652 124.205 182.509 124.449C182.371 124.689 182.3 124.971 182.3 125.303C182.3 125.635 182.368 125.923 182.509 126.173C182.652 126.423 182.838 126.613 183.066 126.746C183.3 126.874 183.547 126.937 183.804 126.937C184.06 126.937 184.313 126.874 184.541 126.746C184.769 126.619 184.952 126.434 185.09 126.189C185.234 125.939 185.307 125.651 185.307 125.319ZM188.719 123.623C188.868 123.378 189.068 123.191 189.313 123.058C189.566 122.919 189.862 122.848 190.205 122.848V123.876H189.943C189.541 123.876 189.234 123.974 189.025 124.172C188.82 124.371 188.719 124.71 188.719 125.2V127.722H187.691V122.93H188.719V123.626V123.623ZM197.958 122.927L194.912 129.973H193.848L194.855 127.641L192.902 122.927H194.045L195.441 126.58L196.891 122.927H197.955H197.958ZM200.731 125.3C200.731 124.819 200.832 124.392 201.037 124.023C201.248 123.653 201.53 123.365 201.885 123.161C202.245 122.952 202.645 122.848 203.084 122.848C203.408 122.848 203.726 122.919 204.038 123.058C204.356 123.191 204.61 123.37 204.795 123.596V121.283H205.831V127.719H204.795V126.996C204.627 127.227 204.393 127.42 204.092 127.57C203.796 127.719 203.458 127.796 203.073 127.796C202.639 127.796 202.245 127.692 201.885 127.483C201.53 127.268 201.248 126.972 201.037 126.597C200.832 126.214 200.731 125.781 200.731 125.3ZM204.793 125.319C204.793 124.988 204.719 124.702 204.576 124.458C204.438 124.213 204.255 124.028 204.027 123.9C203.799 123.773 203.551 123.71 203.289 123.71C203.028 123.71 202.78 123.775 202.552 123.9C202.324 124.023 202.138 124.205 201.994 124.449C201.857 124.689 201.786 124.971 201.786 125.303C201.786 125.635 201.857 125.923 201.994 126.173C202.138 126.423 202.324 126.613 202.552 126.746C202.786 126.874 203.033 126.937 203.289 126.937C203.546 126.937 203.799 126.874 204.027 126.746C204.255 126.619 204.438 126.434 204.576 126.189C204.719 125.939 204.793 125.651 204.793 125.319ZM207.701 122.291C207.515 122.291 207.357 122.231 207.233 122.109C207.107 121.987 207.045 121.837 207.045 121.658C207.045 121.478 207.107 121.326 207.233 121.207C207.36 121.087 207.515 121.024 207.701 121.024C207.886 121.024 208.033 121.084 208.159 121.207C208.286 121.329 208.348 121.478 208.348 121.658C208.348 121.837 208.286 121.989 208.159 122.109C208.033 122.231 207.881 122.291 207.701 122.291ZM208.205 122.927V127.719H207.177V122.927H208.205ZM211.355 127.798C210.963 127.798 210.611 127.733 210.302 127.597C209.995 127.458 209.753 127.271 209.573 127.04C209.392 126.801 209.297 126.537 209.285 126.249H210.35C210.366 126.453 210.468 126.624 210.648 126.763C210.834 126.896 211.065 126.964 211.34 126.964C211.616 126.964 211.85 126.912 212.008 126.806C212.171 126.695 212.25 126.556 212.25 126.387C212.25 126.208 212.16 126.075 211.979 125.988C211.805 125.901 211.526 125.806 211.141 125.7C210.769 125.602 210.465 125.507 210.231 125.412C209.998 125.319 209.792 125.178 209.618 124.985C209.449 124.795 209.364 124.542 209.364 124.229C209.364 123.974 209.443 123.743 209.598 123.533C209.753 123.319 209.975 123.15 210.265 123.028C210.561 122.905 210.896 122.846 211.273 122.846C211.839 122.846 212.292 122.984 212.633 123.264C212.982 123.536 213.167 123.911 213.19 124.387H212.162C212.146 124.172 212.056 124.001 211.892 123.873C211.729 123.745 211.509 123.683 211.234 123.683C210.958 123.683 210.755 123.732 210.611 123.83C210.468 123.928 210.395 124.058 210.395 124.221C210.395 124.349 210.442 124.455 210.538 124.542C210.634 124.629 210.752 124.699 210.89 124.751C211.028 124.797 211.234 124.857 211.504 124.933C211.864 125.026 212.16 125.121 212.388 125.221C212.621 125.314 212.824 125.452 212.99 125.64C213.159 125.825 213.246 126.072 213.252 126.379C213.252 126.651 213.173 126.896 213.018 127.111C212.861 127.325 212.641 127.494 212.351 127.616C212.07 127.738 211.735 127.798 211.352 127.798H211.355ZM216.444 123.735H215.526V127.719H214.491V123.735H213.905V122.924H214.491V122.585C214.491 122.033 214.64 121.633 214.941 121.383C215.248 121.128 215.724 121 216.374 121V121.826C216.061 121.826 215.842 121.883 215.715 122C215.588 122.109 215.526 122.305 215.526 122.582V122.922H216.444V123.732V123.735ZM218.384 123.623C218.533 123.378 218.733 123.191 218.978 123.058C219.231 122.919 219.527 122.848 219.87 122.848V123.876H219.608C219.206 123.876 218.899 123.974 218.691 124.172C218.485 124.371 218.384 124.71 218.384 125.2V127.722H217.356V122.93H218.384V123.626V123.623ZM225.309 122.927V127.719H224.281V127.154C224.118 127.35 223.907 127.507 223.642 127.624C223.383 127.733 223.107 127.79 222.815 127.79C222.423 127.79 222.072 127.711 221.762 127.556C221.455 127.399 221.213 127.168 221.033 126.86C220.858 126.553 220.771 126.181 220.771 125.746V122.927H221.79V125.596C221.79 126.026 221.9 126.358 222.122 126.589C222.345 126.814 222.649 126.928 223.031 126.928C223.414 126.928 223.718 126.814 223.941 126.589C224.169 126.358 224.284 126.026 224.284 125.596V122.927H225.312H225.309ZM227.862 123.735V126.387C227.862 126.567 227.904 126.697 227.989 126.779C228.079 126.855 228.228 126.893 228.439 126.893H229.07V127.719H228.259C227.797 127.719 227.443 127.616 227.195 127.407C226.947 127.198 226.826 126.858 226.826 126.39V123.737H226.241V122.927H226.826V121.737H227.862V122.927H229.07V123.737H227.862V123.735ZM229.672 125.3C229.672 124.819 229.774 124.392 229.979 124.023C230.19 123.653 230.472 123.365 230.826 123.161C231.187 122.952 231.584 122.848 232.014 122.848C232.406 122.848 232.743 122.924 233.033 123.074C233.329 123.218 233.563 123.403 233.737 123.623V122.927H234.773V127.719H233.737V127.007C233.563 127.233 233.326 127.42 233.025 127.573C232.724 127.722 232.383 127.798 231.997 127.798C231.572 127.798 231.181 127.695 230.826 127.486C230.472 127.271 230.19 126.975 229.979 126.6C229.776 126.216 229.672 125.784 229.672 125.303V125.3ZM233.734 125.319C233.734 124.988 233.661 124.702 233.518 124.458C233.38 124.213 233.197 124.028 232.969 123.9C232.741 123.773 232.496 123.71 232.231 123.71C231.966 123.71 231.722 123.775 231.494 123.9C231.266 124.023 231.08 124.205 230.936 124.449C230.798 124.689 230.728 124.971 230.728 125.303C230.728 125.635 230.798 125.923 230.936 126.173C231.08 126.423 231.266 126.613 231.494 126.746C231.727 126.874 231.975 126.937 232.231 126.937C232.487 126.937 232.741 126.874 232.969 126.746C233.197 126.619 233.38 126.434 233.518 126.189C233.661 125.939 233.734 125.651 233.734 125.319ZM237.146 123.623C237.295 123.378 237.495 123.191 237.74 123.058C237.993 122.919 238.289 122.848 238.633 122.848V123.876H238.371C237.968 123.876 237.661 123.974 237.453 124.172C237.247 124.371 237.146 124.71 237.146 125.2V127.722H236.119V122.93H237.146V123.626V123.623ZM240.865 121.674L240.747 125.893H239.891L239.773 121.674H240.862H240.865ZM240.353 127.779C240.167 127.779 240.009 127.719 239.885 127.597C239.761 127.475 239.697 127.325 239.697 127.146C239.697 126.966 239.759 126.814 239.885 126.695C240.012 126.575 240.167 126.513 240.353 126.513C240.538 126.513 240.685 126.572 240.811 126.695C240.938 126.817 241 126.966 241 127.146C241 127.325 240.938 127.477 240.811 127.597C240.685 127.717 240.533 127.779 240.353 127.779Z" fill="#3354FF"/>
<path d="M29.0097 75.6595V77.9559H25.9235V87.4266H23.0862V77.9559H20V75.6595H29.0097ZM39.1616 82.599C39.1616 82.8672 39.145 83.1466 39.1118 83.4371H32.6905C32.7348 84.0182 32.9173 84.4652 33.2381 84.7781C33.5699 85.0798 33.9737 85.2307 34.4493 85.2307C35.1573 85.2307 35.6495 84.929 35.9261 84.3255H38.9459C38.791 84.9402 38.509 85.4933 38.0997 85.985C37.7015 86.4767 37.1982 86.8622 36.5898 87.1416C35.9814 87.421 35.3011 87.5607 34.5489 87.5607C33.6418 87.5607 32.8343 87.3651 32.1264 86.974C31.4184 86.5829 30.8653 86.0241 30.4671 85.2978C30.0689 84.5714 29.8698 83.7221 29.8698 82.7499C29.8698 81.7777 30.0634 80.9284 30.4505 80.202C30.8488 79.4757 31.4018 78.9169 32.1098 78.5258C32.8177 78.1347 33.6308 77.9391 34.5489 77.9391C35.467 77.9391 36.2413 78.1291 36.9382 78.509C37.6351 78.889 38.1771 79.431 38.5643 80.135C38.9625 80.839 39.1616 81.6603 39.1616 82.599ZM36.2579 81.8447C36.2579 81.353 36.092 80.9619 35.7601 80.6714C35.4283 80.3808 35.0135 80.2356 34.5157 80.2356C34.0179 80.2356 33.6363 80.3752 33.3045 80.6546C32.9837 80.934 32.7846 81.3307 32.7071 81.8447H36.2579ZM47.0126 79.3974C47.2892 78.9616 47.6708 78.6096 48.1575 78.3414C48.6442 78.0732 49.2139 77.9391 49.8666 77.9391C50.6298 77.9391 51.3212 78.1347 51.9406 78.5258C52.5601 78.9169 53.0468 79.4757 53.4008 80.202C53.7658 80.9284 53.9483 81.7721 53.9483 82.7331C53.9483 83.6942 53.7658 84.5435 53.4008 85.281C53.0468 86.0074 52.5601 86.5717 51.9406 86.974C51.3212 87.3651 50.6298 87.5607 49.8666 87.5607C49.225 87.5607 48.6553 87.4266 48.1575 87.1584C47.6708 86.8902 47.2892 86.5437 47.0126 86.1191V91.8853H44.1753V78.0732H47.0126V79.3974ZM51.0612 82.7331C51.0612 82.0179 50.8621 81.4592 50.4639 81.0569C50.0767 80.6434 49.5956 80.4367 49.0203 80.4367C48.4451 80.4367 47.975 80.6434 47.5768 81.0569C47.1896 81.4704 46.9961 82.0347 46.9961 82.7499C46.9961 83.4651 47.1896 84.0294 47.5768 84.4429C47.975 84.8563 48.4562 85.0631 49.0203 85.0631C49.5845 85.0631 50.0657 84.8563 50.4639 84.4429C50.8621 84.0182 51.0612 83.4483 51.0612 82.7331ZM58.2735 79.6321C58.6053 79.1181 59.0201 78.7158 59.5179 78.4252C60.0157 78.1235 60.5688 77.9727 61.1771 77.9727V81.0066H60.3973C59.6894 81.0066 59.1584 81.1631 58.8044 81.476C58.4504 81.7777 58.2735 82.3141 58.2735 83.0851V87.4266H55.4361V78.0732H58.2735V79.6321ZM71.2599 82.599C71.2599 82.8672 71.2433 83.1466 71.2101 83.4371H64.7888C64.833 84.0182 65.0156 84.4652 65.3363 84.7781C65.6682 85.0798 66.0719 85.2307 66.5476 85.2307C67.2555 85.2307 67.7478 84.929 68.0243 84.3255H71.0442C70.8893 84.9402 70.6072 85.4933 70.198 85.985C69.7997 86.4767 69.2964 86.8622 68.688 87.1416C68.0796 87.421 67.3993 87.5607 66.6472 87.5607C65.7401 87.5607 64.9326 87.3651 64.2246 86.974C63.5167 86.5829 62.9636 86.0241 62.5654 85.2978C62.1672 84.5714 61.9681 83.7221 61.9681 82.7499C61.9681 81.7777 62.1616 80.9284 62.5488 80.202C62.947 79.4757 63.5001 78.9169 64.2081 78.5258C64.916 78.1347 65.729 77.9391 66.6472 77.9391C67.5653 77.9391 68.3396 78.1291 69.0365 78.509C69.7334 78.889 70.2754 79.431 70.6625 80.135C71.0608 80.839 71.2599 81.6603 71.2599 82.599ZM68.3562 81.8447C68.3562 81.353 68.1903 80.9619 67.8584 80.6714C67.5266 80.3808 67.1117 80.2356 66.614 80.2356C66.1162 80.2356 65.7346 80.3752 65.4027 80.6546C65.0819 80.934 64.8828 81.3307 64.8054 81.8447H68.3562ZM76.5252 87.5607C75.7177 87.5607 74.9987 87.421 74.3682 87.1416C73.7377 86.8622 73.2399 86.4823 72.8749 86.0018C72.5099 85.5101 72.3052 84.9625 72.261 84.3591H75.0651C75.0983 84.6831 75.2476 84.9457 75.5131 85.1469C75.7786 85.348 76.1049 85.4486 76.4921 85.4486C76.846 85.4486 77.117 85.3816 77.3051 85.2475C77.5042 85.1022 77.6038 84.9178 77.6038 84.6943C77.6038 84.4261 77.4655 84.2306 77.1889 84.1076C76.9124 83.9735 76.4644 83.8283 75.845 83.6718C75.1813 83.5154 74.6282 83.3533 74.1857 83.1857C73.7432 83.0069 73.3616 82.7331 73.0408 82.3644C72.72 81.9844 72.5596 81.476 72.5596 80.839C72.5596 80.3026 72.7034 79.8165 72.991 79.3807C73.2897 78.9337 73.7211 78.5817 74.2853 78.3247C74.8605 78.0676 75.5408 77.9391 76.3261 77.9391C77.4876 77.9391 78.4002 78.2297 79.0639 78.8108C79.7387 79.3919 80.1258 80.1629 80.2254 81.124H77.6038C77.5595 80.7999 77.4157 80.5429 77.1724 80.3529C76.9401 80.1629 76.6303 80.0679 76.2432 80.0679C75.9113 80.0679 75.6569 80.135 75.4799 80.2691C75.3029 80.392 75.2144 80.5652 75.2144 80.7887C75.2144 81.0569 75.3527 81.258 75.6292 81.3921C75.9169 81.5262 76.3593 81.6603 76.9566 81.7944C77.6425 81.9732 78.2011 82.152 78.6325 82.3308C79.0639 82.4985 79.44 82.7778 79.7608 83.1689C80.0926 83.5489 80.2641 84.0629 80.2752 84.7111C80.2752 85.2586 80.1203 85.7503 79.8106 86.1861C79.5119 86.6108 79.075 86.946 78.4998 87.1919C77.9356 87.4377 77.2774 87.5607 76.5252 87.5607ZM90.7368 82.599C90.7368 82.8672 90.7202 83.1466 90.687 83.4371H84.2657C84.3099 84.0182 84.4924 84.4652 84.8132 84.7781C85.1451 85.0798 85.5488 85.2307 86.0245 85.2307C86.7324 85.2307 87.2247 84.929 87.5012 84.3255H90.5211C90.3662 84.9402 90.0841 85.4933 89.6748 85.985C89.2766 86.4767 88.7733 86.8622 88.1649 87.1416C87.5565 87.421 86.8762 87.5607 86.124 87.5607C85.217 87.5607 84.4095 87.3651 83.7015 86.974C82.9936 86.5829 82.4405 86.0241 82.0423 85.2978C81.644 84.5714 81.4449 83.7221 81.4449 82.7499C81.4449 81.7777 81.6385 80.9284 82.0257 80.202C82.4239 79.4757 82.977 78.9169 83.6849 78.5258C84.3929 78.1347 85.2059 77.9391 86.124 77.9391C87.0421 77.9391 87.8165 78.1291 88.5134 78.509C89.2102 78.889 89.7523 79.431 90.1394 80.135C90.5377 80.839 90.7368 81.6603 90.7368 82.599ZM87.8331 81.8447C87.8331 81.353 87.6671 80.9619 87.3353 80.6714C87.0034 80.3808 86.5886 80.2356 86.0908 80.2356C85.5931 80.2356 85.2114 80.3752 84.8796 80.6546C84.5588 80.934 84.3597 81.3307 84.2823 81.8447H87.8331ZM97.8771 77.9727C98.9611 77.9727 99.8239 78.3302 100.466 79.0454C101.118 79.7494 101.444 80.7217 101.444 81.9621V87.4266H98.6237V82.3476C98.6237 81.7218 98.4633 81.2357 98.1426 80.8893C97.8218 80.5429 97.3904 80.3696 96.8483 80.3696C96.3063 80.3696 95.8749 80.5429 95.5541 80.8893C95.2333 81.2357 95.0729 81.7218 95.0729 82.3476V87.4266H92.2356V78.0732H95.0729V79.3136C95.3605 78.9002 95.7477 78.5761 96.2344 78.3414C96.7211 78.0956 97.2687 77.9727 97.8771 77.9727ZM108.574 84.996V87.4266H107.13C106.101 87.4266 105.299 87.1751 104.724 86.6723C104.149 86.1582 103.861 85.3257 103.861 84.1747V80.4535H102.733V78.0732H103.861V75.7936H106.699V78.0732H108.557V80.4535H106.699V84.2082C106.699 84.4876 106.765 84.6887 106.898 84.8116C107.031 84.9346 107.252 84.996 107.562 84.996H108.574ZM109.591 82.7331C109.591 81.7721 109.768 80.9284 110.122 80.202C110.487 79.4757 110.98 78.9169 111.599 78.5258C112.219 78.1347 112.91 77.9391 113.673 77.9391C114.326 77.9391 114.895 78.0732 115.382 78.3414C115.88 78.6096 116.262 78.9616 116.527 79.3974V78.0732H119.364V87.4266H116.527V86.1023C116.251 86.5382 115.863 86.8902 115.366 87.1584C114.879 87.4266 114.309 87.5607 113.657 87.5607C112.904 87.5607 112.219 87.3651 111.599 86.974C110.98 86.5717 110.487 86.0074 110.122 85.281C109.768 84.5435 109.591 83.6942 109.591 82.7331ZM116.527 82.7499C116.527 82.0347 116.328 81.4704 115.93 81.0569C115.543 80.6434 115.067 80.4367 114.503 80.4367C113.939 80.4367 113.457 80.6434 113.059 81.0569C112.672 81.4592 112.479 82.0179 112.479 82.7331C112.479 83.4483 112.672 84.0182 113.059 84.4429C113.457 84.8563 113.939 85.0631 114.503 85.0631C115.067 85.0631 115.543 84.8563 115.93 84.4429C116.328 84.0294 116.527 83.4651 116.527 82.7499ZM133.23 77.9727C134.381 77.9727 135.293 78.3247 135.968 79.0287C136.654 79.7327 136.997 80.7105 136.997 81.9621V87.4266H134.176V82.3476C134.176 81.7442 134.016 81.2804 133.695 80.9563C133.385 80.6211 132.954 80.4535 132.401 80.4535C131.848 80.4535 131.411 80.6211 131.09 80.9563C130.78 81.2804 130.625 81.7442 130.625 82.3476V87.4266H127.804V82.3476C127.804 81.7442 127.644 81.2804 127.323 80.9563C127.014 80.6211 126.582 80.4535 126.029 80.4535C125.476 80.4535 125.039 80.6211 124.718 80.9563C124.409 81.2804 124.254 81.7442 124.254 82.3476V87.4266H121.416V78.0732H124.254V79.2466C124.541 78.8555 124.917 78.5482 125.382 78.3247C125.847 78.09 126.372 77.9727 126.958 77.9727C127.655 77.9727 128.275 78.1235 128.817 78.4252C129.37 78.727 129.801 79.1572 130.111 79.7159C130.432 79.2019 130.869 78.7828 131.422 78.4588C131.975 78.1347 132.578 77.9727 133.23 77.9727ZM143.197 87.5607C142.29 87.5607 141.471 87.3651 140.741 86.974C140.022 86.5829 139.452 86.0241 139.032 85.2978C138.623 84.5714 138.418 83.7221 138.418 82.7499C138.418 81.7777 138.628 80.9452 139.049 80.2188C139.469 79.4813 140.044 78.9169 140.774 78.5258C141.504 78.1347 142.323 77.9391 143.23 77.9391C144.137 77.9391 144.956 78.1347 145.686 78.5258C146.416 78.9169 146.991 79.4813 147.411 80.2188C147.832 80.9452 148.042 81.7889 148.042 82.7499C148.042 83.7109 147.826 84.5602 147.395 85.2978C146.974 86.0241 146.394 86.5829 145.653 86.974C144.922 87.3651 144.104 87.5607 143.197 87.5607ZM143.197 85.0798C143.739 85.0798 144.198 84.8787 144.574 84.4764C144.961 84.0741 145.155 83.4986 145.155 82.7499C145.155 82.0012 144.967 81.4257 144.591 81.0234C144.226 80.6211 143.772 80.4199 143.23 80.4199C142.688 80.4199 142.218 80.6211 141.853 81.0234C141.488 81.4145 141.305 81.99 141.305 82.7499C141.305 83.5098 141.482 84.0741 141.836 84.4764C142.201 84.8787 142.655 85.0798 143.197 85.0798ZM153.313 87.5607C152.505 87.5607 151.786 87.421 151.156 87.1416C150.525 86.8622 150.027 86.4823 149.662 86.0018C149.297 85.5101 149.093 84.9625 149.048 84.3591H151.853C151.886 84.6831 152.035 84.9457 152.301 85.1469C152.566 85.348 152.892 85.4486 153.28 85.4486C153.634 85.4486 153.905 85.3816 154.093 85.2475C154.292 85.1022 154.391 84.9178 154.391 84.6943C154.391 84.4261 154.253 84.2306 153.976 84.1076C153.7 83.9735 153.252 83.8283 152.632 83.6718C151.969 83.5154 151.416 83.3533 150.973 83.1857C150.531 83.0069 150.149 82.7331 149.828 82.3644C149.508 81.9844 149.347 81.476 149.347 80.839C149.347 80.3026 149.491 79.8165 149.779 79.3807C150.077 78.9337 150.509 78.5817 151.073 78.3247C151.648 78.0676 152.328 77.9391 153.114 77.9391C154.275 77.9391 155.188 78.2297 155.851 78.8108C156.526 79.3919 156.913 80.1629 157.013 81.124H154.391C154.347 80.7999 154.203 80.5429 153.96 80.3529C153.728 80.1629 153.418 80.0679 153.031 80.0679C152.699 80.0679 152.444 80.135 152.267 80.2691C152.09 80.392 152.002 80.5652 152.002 80.7887C152.002 81.0569 152.14 81.258 152.417 81.3921C152.704 81.5262 153.147 81.6603 153.744 81.7944C154.43 81.9732 154.989 82.152 155.42 82.3308C155.851 82.4985 156.228 82.7778 156.548 83.1689C156.88 83.5489 157.052 84.0629 157.063 84.7111C157.063 85.2586 156.908 85.7503 156.598 86.1861C156.299 86.6108 155.862 86.946 155.287 87.1919C154.723 87.4377 154.065 87.5607 153.313 87.5607ZM165.152 75.0225V87.4266H162.314V75.0225H165.152ZM166.645 82.7331C166.645 81.7721 166.822 80.9284 167.176 80.202C167.541 79.4757 168.033 78.9169 168.653 78.5258C169.272 78.1347 169.963 77.9391 170.727 77.9391C171.379 77.9391 171.949 78.0732 172.436 78.3414C172.933 78.6096 173.315 78.9616 173.581 79.3974V78.0732H176.418V87.4266H173.581V86.1023C173.304 86.5382 172.917 86.8902 172.419 87.1584C171.932 87.4266 171.363 87.5607 170.71 87.5607C169.958 87.5607 169.272 87.3651 168.653 86.974C168.033 86.5717 167.541 86.0074 167.176 85.281C166.822 84.5435 166.645 83.6942 166.645 82.7331ZM173.581 82.7499C173.581 82.0347 173.381 81.4704 172.983 81.0569C172.596 80.6434 172.12 80.4367 171.556 80.4367C170.992 80.4367 170.511 80.6434 170.113 81.0569C169.726 81.4592 169.532 82.0179 169.532 82.7331C169.532 83.4483 169.726 84.0182 170.113 84.4429C170.511 84.8563 170.992 85.0631 171.556 85.0631C172.12 85.0631 172.596 84.8563 172.983 84.4429C173.381 84.0294 173.581 83.4651 173.581 82.7499ZM182.236 87.5607C181.429 87.5607 180.71 87.421 180.079 87.1416C179.449 86.8622 178.951 86.4823 178.586 86.0018C178.221 85.5101 178.016 84.9625 177.972 84.3591H180.776C180.809 84.6831 180.959 84.9457 181.224 85.1469C181.49 85.348 181.816 85.4486 182.203 85.4486C182.557 85.4486 182.828 85.3816 183.016 85.2475C183.215 85.1022 183.315 84.9178 183.315 84.6943C183.315 84.4261 183.177 84.2306 182.9 84.1076C182.623 83.9735 182.175 83.8283 181.556 83.6718C180.892 83.5154 180.339 83.3533 179.897 83.1857C179.454 83.0069 179.073 82.7331 178.752 82.3644C178.431 81.9844 178.271 81.476 178.271 80.839C178.271 80.3026 178.414 79.8165 178.702 79.3807C179.001 78.9337 179.432 78.5817 179.996 78.3247C180.572 78.0676 181.252 77.9391 182.037 77.9391C183.199 77.9391 184.111 78.2297 184.775 78.8108C185.45 79.3919 185.837 80.1629 185.936 81.124H183.315C183.271 80.7999 183.127 80.5429 182.883 80.3529C182.651 80.1629 182.341 80.0679 181.954 80.0679C181.622 80.0679 181.368 80.135 181.191 80.2691C181.014 80.392 180.925 80.5652 180.925 80.7887C180.925 81.0569 181.064 81.258 181.34 81.3921C181.628 81.5262 182.07 81.6603 182.668 81.7944C183.354 81.9732 183.912 82.152 184.344 82.3308C184.775 82.4985 185.151 82.7778 185.472 83.1689C185.804 83.5489 185.975 84.0629 185.986 84.7111C185.986 85.2586 185.831 85.7503 185.522 86.1861C185.223 86.6108 184.786 86.946 184.211 87.1919C183.647 87.4377 182.988 87.5607 182.236 87.5607ZM203.052 77.9727C204.202 77.9727 205.115 78.3247 205.789 79.0287C206.475 79.7327 206.818 80.7105 206.818 81.9621V87.4266H203.997V82.3476C203.997 81.7442 203.837 81.2804 203.516 80.9563C203.207 80.6211 202.775 80.4535 202.222 80.4535C201.669 80.4535 201.232 80.6211 200.911 80.9563C200.601 81.2804 200.447 81.7442 200.447 82.3476V87.4266H197.626V82.3476C197.626 81.7442 197.465 81.2804 197.145 80.9563C196.835 80.6211 196.404 80.4535 195.85 80.4535C195.297 80.4535 194.86 80.6211 194.54 80.9563C194.23 81.2804 194.075 81.7442 194.075 82.3476V87.4266H191.238V78.0732H194.075V79.2466C194.363 78.8555 194.739 78.5482 195.203 78.3247C195.668 78.09 196.193 77.9727 196.78 77.9727C197.477 77.9727 198.096 78.1235 198.638 78.4252C199.191 78.727 199.623 79.1572 199.932 79.7159C200.253 79.2019 200.69 78.7828 201.243 78.4588C201.796 78.1347 202.399 77.9727 203.052 77.9727ZM217.531 82.599C217.531 82.8672 217.515 83.1466 217.482 83.4371H211.06C211.105 84.0182 211.287 84.4652 211.608 84.7781C211.94 85.0798 212.343 85.2307 212.819 85.2307C213.527 85.2307 214.019 84.929 214.296 84.3255H217.316C217.161 84.9402 216.879 85.4933 216.469 85.985C216.071 86.4767 215.568 86.8622 214.96 87.1416C214.351 87.421 213.671 87.5607 212.919 87.5607C212.012 87.5607 211.204 87.3651 210.496 86.974C209.788 86.5829 209.235 86.0241 208.837 85.2978C208.439 84.5714 208.24 83.7221 208.24 82.7499C208.24 81.7777 208.433 80.9284 208.82 80.202C209.219 79.4757 209.772 78.9169 210.48 78.5258C211.188 78.1347 212.001 77.9391 212.919 77.9391C213.837 77.9391 214.611 78.1291 215.308 78.509C216.005 78.889 216.547 79.431 216.934 80.135C217.332 80.839 217.531 81.6603 217.531 82.599ZM214.628 81.8447C214.628 81.353 214.462 80.9619 214.13 80.6714C213.798 80.3808 213.383 80.2356 212.885 80.2356C212.388 80.2356 212.006 80.3752 211.674 80.6546C211.353 80.934 211.154 81.3307 211.077 81.8447H214.628ZM220.438 77.101C219.94 77.101 219.531 76.9557 219.21 76.6652C218.9 76.3635 218.745 75.9947 218.745 75.5589C218.745 75.1231 218.9 74.7431 219.21 74.4526C219.531 74.1509 219.94 74 220.438 74C220.936 74 221.323 74.1509 221.633 74.4526C221.953 74.7431 222.114 75.1119 222.114 75.5589C222.114 76.0059 221.953 76.3635 221.633 76.6652C221.323 76.9557 220.925 77.101 220.438 77.101ZM221.865 88.6334C221.865 89.7844 221.577 90.6114 221.002 91.1143C220.427 91.6283 219.625 91.8853 218.596 91.8853H217.484V89.4548H218.165C218.474 89.4548 218.696 89.3933 218.828 89.2704C218.961 89.1475 219.027 88.9463 219.027 88.667V78.0732H221.865V88.6334ZM228.12 87.5607C227.213 87.5607 226.395 87.3651 225.665 86.974C224.946 86.5829 224.376 86.0241 223.955 85.2978C223.546 84.5714 223.342 83.7221 223.342 82.7499C223.342 81.7777 223.552 80.9452 223.972 80.2188C224.392 79.4813 224.968 78.9169 225.698 78.5258C226.428 78.1347 227.246 77.9391 228.153 77.9391C229.06 77.9391 229.879 78.1347 230.609 78.5258C231.339 78.9169 231.914 79.4813 232.335 80.2188C232.755 80.9452 232.965 81.7889 232.965 82.7499C232.965 83.7109 232.75 84.5602 232.318 85.2978C231.898 86.0241 231.317 86.5829 230.576 86.974C229.846 87.3651 229.027 87.5607 228.12 87.5607ZM228.12 85.0798C228.662 85.0798 229.121 84.8787 229.497 84.4764C229.885 84.0741 230.078 83.4986 230.078 82.7499C230.078 82.0012 229.89 81.4257 229.514 81.0234C229.149 80.6211 228.695 80.4199 228.153 80.4199C227.611 80.4199 227.141 80.6211 226.776 81.0234C226.411 81.4145 226.229 81.99 226.229 82.7499C226.229 83.5098 226.406 84.0741 226.76 84.4764C227.125 84.8787 227.578 85.0798 228.12 85.0798ZM237.307 79.6321C237.639 79.1181 238.054 78.7158 238.551 78.4252C239.049 78.1235 239.602 77.9727 240.211 77.9727V81.0066H239.431C238.723 81.0066 238.192 81.1631 237.838 81.476C237.484 81.7777 237.307 82.3141 237.307 83.0851V87.4266H234.47V78.0732H237.307V79.6321ZM250.296 82.599C250.296 82.8672 250.28 83.1466 250.246 83.4371H243.825C243.869 84.0182 244.052 84.4652 244.373 84.7781C244.704 85.0798 245.108 85.2307 245.584 85.2307C246.292 85.2307 246.784 84.929 247.061 84.3255H250.08C249.926 84.9402 249.643 85.4933 249.234 85.985C248.836 86.4767 248.333 86.8622 247.724 87.1416C247.116 87.421 246.436 87.5607 245.683 87.5607C244.776 87.5607 243.969 87.3651 243.261 86.974C242.553 86.5829 242 86.0241 241.602 85.2978C241.203 84.5714 241.004 83.7221 241.004 82.7499C241.004 81.7777 241.198 80.9284 241.585 80.202C241.983 79.4757 242.536 78.9169 243.244 78.5258C243.952 78.1347 244.765 77.9391 245.683 77.9391C246.602 77.9391 247.376 78.1291 248.073 78.509C248.77 78.889 249.312 79.431 249.699 80.135C250.097 80.839 250.296 81.6603 250.296 82.599ZM247.392 81.8447C247.392 81.353 247.227 80.9619 246.895 80.6714C246.563 80.3808 246.148 80.2356 245.65 80.2356C245.152 80.2356 244.771 80.3752 244.439 80.6546C244.118 80.934 243.919 81.3307 243.842 81.8447H247.392ZM255.559 87.5607C254.751 87.5607 254.032 87.421 253.402 87.1416C252.771 86.8622 252.273 86.4823 251.908 86.0018C251.543 85.5101 251.339 84.9625 251.294 84.3591H254.099C254.132 84.6831 254.281 84.9457 254.547 85.1469C254.812 85.348 255.138 85.4486 255.526 85.4486C255.88 85.4486 256.151 85.3816 256.339 85.2475C256.538 85.1022 256.637 84.9178 256.637 84.6943C256.637 84.4261 256.499 84.2306 256.222 84.1076C255.946 83.9735 255.498 83.8283 254.878 83.6718C254.215 83.5154 253.662 83.3533 253.219 83.1857C252.777 83.0069 252.395 82.7331 252.074 82.3644C251.754 81.9844 251.593 81.476 251.593 80.839C251.593 80.3026 251.737 79.8165 252.025 79.3807C252.323 78.9337 252.755 78.5817 253.319 78.3247C253.894 78.0676 254.574 77.9391 255.36 77.9391C256.521 77.9391 257.434 78.2297 258.097 78.8108C258.772 79.3919 259.159 80.1629 259.259 81.124H256.637C256.593 80.7999 256.449 80.5429 256.206 80.3529C255.974 80.1629 255.664 80.0679 255.277 80.0679C254.945 80.0679 254.69 80.135 254.513 80.2691C254.336 80.392 254.248 80.5652 254.248 80.7887C254.248 81.0569 254.386 81.258 254.663 81.3921C254.95 81.5262 255.393 81.6603 255.99 81.7944C256.676 81.9732 257.235 82.152 257.666 82.3308C258.097 82.4985 258.473 82.7778 258.794 83.1689C259.126 83.5489 259.298 84.0629 259.309 84.7111C259.309 85.2586 259.154 85.7503 258.844 86.1861C258.545 86.6108 258.108 86.946 257.533 87.1919C256.969 87.4377 256.311 87.5607 255.559 87.5607ZM23.4678 99.5121C23.7444 99.0763 24.126 98.7243 24.6127 98.4561C25.0994 98.1879 25.6691 98.0538 26.3218 98.0538C27.085 98.0538 27.7764 98.2494 28.3958 98.6405C29.0153 99.0316 29.502 99.5904 29.856 100.317C30.221 101.043 30.4035 101.887 30.4035 102.848C30.4035 103.809 30.221 104.658 29.856 105.396C29.502 106.122 29.0153 106.686 28.3958 107.089C27.7764 107.48 27.085 107.675 26.3218 107.675C25.6802 107.675 25.1105 107.541 24.6127 107.273C24.126 107.005 23.7444 106.658 23.4678 106.234V112H20.6305V98.1879H23.4678V99.5121ZM27.5164 102.848C27.5164 102.133 27.3173 101.574 26.9191 101.172C26.5319 100.758 26.0507 100.551 25.4755 100.551C24.9003 100.551 24.4302 100.758 24.032 101.172C23.6448 101.585 23.4512 102.149 23.4512 102.865C23.4512 103.58 23.6448 104.144 24.032 104.558C24.4302 104.971 24.9114 105.178 25.4755 105.178C26.0397 105.178 26.5209 104.971 26.9191 104.558C27.3173 104.133 27.5164 103.563 27.5164 102.848ZM34.7286 99.7468C35.0605 99.2328 35.4753 98.8305 35.9731 98.5399C36.4709 98.2382 37.0239 98.0873 37.6323 98.0873V101.121H36.8525C36.1445 101.121 35.6136 101.278 35.2596 101.591C34.9056 101.892 34.7286 102.429 34.7286 103.2V107.541H31.8913V98.1879H34.7286V99.7468ZM43.2047 107.675C42.2976 107.675 41.479 107.48 40.749 107.089C40.03 106.698 39.4603 106.139 39.0399 105.412C38.6307 104.686 38.426 103.837 38.426 102.865C38.426 101.892 38.6362 101.06 39.0565 100.333C39.4769 99.5959 40.0521 99.0316 40.7822 98.6405C41.5122 98.2494 42.3308 98.0538 43.2379 98.0538C44.1449 98.0538 44.9635 98.2494 45.6935 98.6405C46.4236 99.0316 46.9988 99.5959 47.4192 100.333C47.8395 101.06 48.0497 101.904 48.0497 102.865C48.0497 103.826 47.834 104.675 47.4026 105.412C46.9822 106.139 46.4015 106.698 45.6604 107.089C44.9303 107.48 44.1117 107.675 43.2047 107.675ZM43.2047 105.195C43.7467 105.195 44.2057 104.993 44.5818 104.591C44.969 104.189 45.1626 103.613 45.1626 102.865C45.1626 102.116 44.9745 101.54 44.5984 101.138C44.2334 100.736 43.7799 100.535 43.2379 100.535C42.6958 100.535 42.2257 100.736 41.8607 101.138C41.4956 101.529 41.3131 102.105 41.3131 102.865C41.3131 103.624 41.4901 104.189 41.8441 104.591C42.2091 104.993 42.6626 105.195 43.2047 105.195ZM52.3914 99.5121C52.6679 99.0763 53.0496 98.7243 53.5363 98.4561C54.023 98.1879 54.5927 98.0538 55.2453 98.0538C56.0086 98.0538 56.6999 98.2494 57.3194 98.6405C57.9388 99.0316 58.4256 99.5904 58.7795 100.317C59.1446 101.043 59.3271 101.887 59.3271 102.848C59.3271 103.809 59.1446 104.658 58.7795 105.396C58.4256 106.122 57.9388 106.686 57.3194 107.089C56.6999 107.48 56.0086 107.675 55.2453 107.675C54.6037 107.675 54.0341 107.541 53.5363 107.273C53.0496 107.005 52.6679 106.658 52.3914 106.234V112H49.5541V98.1879H52.3914V99.5121ZM56.44 102.848C56.44 102.133 56.2409 101.574 55.8426 101.172C55.4555 100.758 54.9743 100.551 54.3991 100.551C53.8239 100.551 53.3538 100.758 52.9555 101.172C52.5684 101.585 52.3748 102.149 52.3748 102.865C52.3748 103.58 52.5684 104.144 52.9555 104.558C53.3538 104.971 53.8349 105.178 54.3991 105.178C54.9632 105.178 55.4444 104.971 55.8426 104.558C56.2409 104.133 56.44 103.563 56.44 102.848ZM62.2418 97.2157C61.7441 97.2157 61.3348 97.0704 61.014 96.7799C60.7043 96.4782 60.5494 96.1094 60.5494 95.6736C60.5494 95.2378 60.7043 94.8578 61.014 94.5673C61.3348 94.2655 61.7441 94.1147 62.2418 94.1147C62.7396 94.1147 63.1268 94.2655 63.4365 94.5673C63.7573 94.8578 63.9177 95.2266 63.9177 95.6736C63.9177 96.1206 63.7573 96.4782 63.4365 96.7799C63.1268 97.0704 62.7285 97.2157 62.2418 97.2157ZM63.6522 98.1879V107.541H60.8149V98.1879H63.6522ZM74.4374 102.714C74.4374 102.982 74.4208 103.261 74.3876 103.552H67.9663C68.0105 104.133 68.193 104.58 68.5138 104.893C68.8457 105.195 69.2494 105.345 69.7251 105.345C70.433 105.345 70.9253 105.044 71.2018 104.44H74.2216C74.0668 105.055 73.7847 105.608 73.3754 106.1C72.9772 106.591 72.4739 106.977 71.8655 107.256C71.2571 107.536 70.5768 107.675 69.8246 107.675C68.9176 107.675 68.1101 107.48 67.4021 107.089C66.6942 106.698 66.1411 106.139 65.7429 105.412C65.3446 104.686 65.1455 103.837 65.1455 102.865C65.1455 101.892 65.3391 101.043 65.7263 100.317C66.1245 99.5904 66.6776 99.0316 67.3855 98.6405C68.0935 98.2494 68.9065 98.0538 69.8246 98.0538C70.7427 98.0538 71.5171 98.2438 72.214 98.6237C72.9108 99.0037 73.4529 99.5457 73.84 100.25C74.2382 100.954 74.4374 101.775 74.4374 102.714ZM71.5337 101.959C71.5337 101.468 71.3677 101.077 71.0359 100.786C70.704 100.496 70.2892 100.35 69.7914 100.35C69.2937 100.35 68.912 100.49 68.5802 100.769C68.2594 101.049 68.0603 101.445 67.9829 101.959H71.5337ZM75.3693 102.848C75.3693 101.887 75.5463 101.043 75.9003 100.317C76.2653 99.5904 76.7575 99.0316 77.377 98.6405C77.9965 98.2494 78.6878 98.0538 79.4511 98.0538C80.0595 98.0538 80.6125 98.1823 81.1103 98.4394C81.6192 98.6964 82.0174 99.0428 82.305 99.4786V95.1372H85.1423V107.541H82.305V106.2C82.0395 106.647 81.6579 107.005 81.1601 107.273C80.6734 107.541 80.1037 107.675 79.4511 107.675C78.6878 107.675 77.9965 107.48 77.377 107.089C76.7575 106.686 76.2653 106.122 75.9003 105.396C75.5463 104.658 75.3693 103.809 75.3693 102.848ZM82.305 102.865C82.305 102.149 82.1059 101.585 81.7076 101.172C81.3205 100.758 80.8448 100.551 80.2807 100.551C79.7165 100.551 79.2354 100.758 78.8371 101.172C78.45 101.574 78.2564 102.133 78.2564 102.848C78.2564 103.563 78.45 104.133 78.8371 104.558C79.2354 104.971 79.7165 105.178 80.2807 105.178C80.8448 105.178 81.3205 104.971 81.7076 104.558C82.1059 104.144 82.305 103.58 82.305 102.865ZM86.6301 102.848C86.6301 101.887 86.8071 101.043 87.1611 100.317C87.5261 99.5904 88.0183 99.0316 88.6378 98.6405C89.2573 98.2494 89.9486 98.0538 90.7119 98.0538C91.3645 98.0538 91.9342 98.1879 92.4209 98.4561C92.9187 98.7243 93.3003 99.0763 93.5658 99.5121V98.1879H96.4031V107.541H93.5658V106.217C93.2892 106.653 92.9021 107.005 92.4043 107.273C91.9176 107.541 91.3479 107.675 90.6953 107.675C89.9431 107.675 89.2573 107.48 88.6378 107.089C88.0183 106.686 87.5261 106.122 87.1611 105.396C86.8071 104.658 86.6301 103.809 86.6301 102.848ZM93.5658 102.865C93.5658 102.149 93.3667 101.585 92.9685 101.172C92.5813 100.758 92.1056 100.551 91.5415 100.551C90.9773 100.551 90.4962 100.758 90.0979 101.172C89.7108 101.574 89.5172 102.133 89.5172 102.848C89.5172 103.563 89.7108 104.133 90.0979 104.558C90.4962 104.971 90.9773 105.178 91.5415 105.178C92.1056 105.178 92.5813 104.971 92.9685 104.558C93.3667 104.144 93.5658 103.58 93.5658 102.865ZM97.8937 102.848C97.8937 101.887 98.0707 101.043 98.4246 100.317C98.7897 99.5904 99.2819 99.0316 99.9014 98.6405C100.521 98.2494 101.212 98.0538 101.975 98.0538C102.584 98.0538 103.137 98.1823 103.635 98.4394C104.144 98.6964 104.542 99.0428 104.829 99.4786V95.1372H107.667V107.541H104.829V106.2C104.564 106.647 104.182 107.005 103.684 107.273C103.198 107.541 102.628 107.675 101.975 107.675C101.212 107.675 100.521 107.48 99.9014 107.089C99.2819 106.686 98.7897 106.122 98.4246 105.396C98.0707 104.658 97.8937 103.809 97.8937 102.848ZM104.829 102.865C104.829 102.149 104.63 101.585 104.232 101.172C103.845 100.758 103.369 100.551 102.805 100.551C102.241 100.551 101.76 100.758 101.362 101.172C100.974 101.574 100.781 102.133 100.781 102.848C100.781 103.563 100.974 104.133 101.362 104.558C101.76 104.971 102.241 105.178 102.805 105.178C103.369 105.178 103.845 104.971 104.232 104.558C104.63 104.144 104.829 103.58 104.829 102.865ZM118.446 102.714C118.446 102.982 118.43 103.261 118.397 103.552H111.975C112.019 104.133 112.202 104.58 112.523 104.893C112.855 105.195 113.258 105.345 113.734 105.345C114.442 105.345 114.934 105.044 115.211 104.44H118.231C118.076 105.055 117.794 105.608 117.384 106.1C116.986 106.591 116.483 106.977 115.874 107.256C115.266 107.536 114.586 107.675 113.834 107.675C112.927 107.675 112.119 107.48 111.411 107.089C110.703 106.698 110.15 106.139 109.752 105.412C109.354 104.686 109.154 103.837 109.154 102.865C109.154 101.892 109.348 101.043 109.735 100.317C110.133 99.5904 110.687 99.0316 111.394 98.6405C112.102 98.2494 112.915 98.0538 113.834 98.0538C114.752 98.0538 115.526 98.2438 116.223 98.6237C116.92 99.0037 117.462 99.5457 117.849 100.25C118.247 100.954 118.446 101.775 118.446 102.714ZM115.543 101.959C115.543 101.468 115.377 101.077 115.045 100.786C114.713 100.496 114.298 100.35 113.8 100.35C113.303 100.35 112.921 100.49 112.589 100.769C112.268 101.049 112.069 101.445 111.992 101.959H115.543ZM123.709 107.675C122.901 107.675 122.182 107.536 121.552 107.256C120.921 106.977 120.424 106.597 120.059 106.116C119.694 105.625 119.489 105.077 119.445 104.474H122.249C122.282 104.798 122.431 105.06 122.697 105.262C122.962 105.463 123.289 105.563 123.676 105.563C124.03 105.563 124.301 105.496 124.489 105.362C124.688 105.217 124.787 105.032 124.787 104.809C124.787 104.541 124.649 104.345 124.373 104.222C124.096 104.088 123.648 103.943 123.029 103.787C122.365 103.63 121.812 103.468 121.369 103.3C120.927 103.122 120.545 102.848 120.224 102.479C119.904 102.099 119.743 101.591 119.743 100.954C119.743 100.417 119.887 99.9312 120.175 99.4954C120.473 99.0484 120.905 98.6964 121.469 98.4394C122.044 98.1823 122.724 98.0538 123.51 98.0538C124.671 98.0538 125.584 98.3444 126.248 98.9255C126.922 99.5065 127.309 100.278 127.409 101.239H124.787C124.743 100.915 124.599 100.658 124.356 100.468C124.124 100.278 123.814 100.183 123.427 100.183C123.095 100.183 122.841 100.25 122.664 100.384C122.487 100.507 122.398 100.68 122.398 100.903C122.398 101.172 122.536 101.373 122.813 101.507C123.101 101.641 123.543 101.775 124.14 101.909C124.826 102.088 125.385 102.267 125.816 102.446C126.248 102.613 126.624 102.893 126.944 103.284C127.276 103.664 127.448 104.178 127.459 104.826C127.459 105.373 127.304 105.865 126.994 106.301C126.696 106.725 126.259 107.061 125.683 107.307C125.119 107.552 124.461 107.675 123.709 107.675ZM132.146 102.865C132.146 101.892 132.34 101.043 132.727 100.317C133.125 99.5904 133.673 99.0316 134.37 98.6405C135.078 98.2494 135.885 98.0538 136.792 98.0538C137.954 98.0538 138.921 98.3611 139.696 98.9757C140.481 99.5904 140.996 100.456 141.239 101.574H138.219C137.965 100.859 137.472 100.501 136.742 100.501C136.222 100.501 135.808 100.708 135.498 101.121C135.188 101.524 135.033 102.105 135.033 102.865C135.033 103.624 135.188 104.211 135.498 104.625C135.808 105.027 136.222 105.228 136.742 105.228C137.472 105.228 137.965 104.87 138.219 104.155H141.239C140.996 105.25 140.481 106.111 139.696 106.737C138.91 107.362 137.943 107.675 136.792 107.675C135.885 107.675 135.078 107.48 134.37 107.089C133.673 106.698 133.125 106.139 132.727 105.412C132.34 104.686 132.146 103.837 132.146 102.865ZM151.485 102.714C151.485 102.982 151.468 103.261 151.435 103.552H145.014C145.058 104.133 145.24 104.58 145.561 104.893C145.893 105.195 146.297 105.345 146.773 105.345C147.48 105.345 147.973 105.044 148.249 104.44H151.269C151.114 105.055 150.832 105.608 150.423 106.1C150.025 106.591 149.521 106.977 148.913 107.256C148.305 107.536 147.624 107.675 146.872 107.675C145.965 107.675 145.158 107.48 144.45 107.089C143.742 106.698 143.189 106.139 142.79 105.412C142.392 104.686 142.193 103.837 142.193 102.865C142.193 101.892 142.387 101.043 142.774 100.317C143.172 99.5904 143.725 99.0316 144.433 98.6405C145.141 98.2494 145.954 98.0538 146.872 98.0538C147.79 98.0538 148.565 98.2438 149.261 98.6237C149.958 99.0037 150.5 99.5457 150.887 100.25C151.286 100.954 151.485 101.775 151.485 102.714ZM148.581 101.959C148.581 101.468 148.415 101.077 148.083 100.786C147.751 100.496 147.337 100.35 146.839 100.35C146.341 100.35 145.959 100.49 145.628 100.769C145.307 101.049 145.108 101.445 145.03 101.959H148.581ZM155.818 99.7468C156.15 99.2328 156.565 98.8305 157.063 98.5399C157.56 98.2382 158.114 98.0873 158.722 98.0873V101.121H157.942C157.234 101.121 156.703 101.278 156.349 101.591C155.995 101.892 155.818 102.429 155.818 103.2V107.541H152.981V98.1879H155.818V99.7468ZM159.516 102.865C159.516 101.892 159.709 101.043 160.096 100.317C160.495 99.5904 161.042 99.0316 161.739 98.6405C162.447 98.2494 163.254 98.0538 164.161 98.0538C165.323 98.0538 166.291 98.3611 167.065 98.9757C167.851 99.5904 168.365 100.456 168.608 101.574H165.588C165.334 100.859 164.842 100.501 164.112 100.501C163.592 100.501 163.177 100.708 162.867 101.121C162.558 101.524 162.403 102.105 162.403 102.865C162.403 103.624 162.558 104.211 162.867 104.625C163.177 105.027 163.592 105.228 164.112 105.228C164.842 105.228 165.334 104.87 165.588 104.155H168.608C168.365 105.25 167.851 106.111 167.065 106.737C166.28 107.362 165.312 107.675 164.161 107.675C163.254 107.675 162.447 107.48 161.739 107.089C161.042 106.698 160.495 106.139 160.096 105.412C159.709 104.686 159.516 103.837 159.516 102.865ZM169.562 102.848C169.562 101.887 169.739 101.043 170.093 100.317C170.458 99.5904 170.951 99.0316 171.57 98.6405C172.19 98.2494 172.881 98.0538 173.644 98.0538C174.297 98.0538 174.866 98.1879 175.353 98.4561C175.851 98.7243 176.233 99.0763 176.498 99.5121V98.1879H179.335V107.541H176.498V106.217C176.222 106.653 175.834 107.005 175.337 107.273C174.85 107.541 174.28 107.675 173.628 107.675C172.875 107.675 172.19 107.48 171.57 107.089C170.951 106.686 170.458 106.122 170.093 105.396C169.739 104.658 169.562 103.809 169.562 102.848ZM176.498 102.865C176.498 102.149 176.299 101.585 175.901 101.172C175.514 100.758 175.038 100.551 174.474 100.551C173.91 100.551 173.428 100.758 173.03 101.172C172.643 101.574 172.449 102.133 172.449 102.848C172.449 103.563 172.643 104.133 173.03 104.558C173.428 104.971 173.91 105.178 174.474 105.178C175.038 105.178 175.514 104.971 175.901 104.558C176.299 104.144 176.498 103.58 176.498 102.865ZM184.338 102.848C184.338 101.887 184.515 101.043 184.869 100.317C185.234 99.5904 185.726 99.0316 186.346 98.6405C186.965 98.2494 187.657 98.0538 188.42 98.0538C189.028 98.0538 189.581 98.1823 190.079 98.4394C190.588 98.6964 190.986 99.0428 191.274 99.4786V95.1372H194.111V107.541H191.274V106.2C191.008 106.647 190.627 107.005 190.129 107.273C189.642 107.541 189.072 107.675 188.42 107.675C187.657 107.675 186.965 107.48 186.346 107.089C185.726 106.686 185.234 106.122 184.869 105.396C184.515 104.658 184.338 103.809 184.338 102.848ZM191.274 102.865C191.274 102.149 191.075 101.585 190.676 101.172C190.289 100.758 189.814 100.551 189.249 100.551C188.685 100.551 188.204 100.758 187.806 101.172C187.419 101.574 187.225 102.133 187.225 102.848C187.225 103.563 187.419 104.133 187.806 104.558C188.204 104.971 188.685 105.178 189.249 105.178C189.814 105.178 190.289 104.971 190.676 104.558C191.075 104.144 191.274 103.58 191.274 102.865ZM204.893 102.714C204.893 102.982 204.877 103.261 204.844 103.552H198.422C198.467 104.133 198.649 104.58 198.97 104.893C199.302 105.195 199.705 105.345 200.181 105.345C200.889 105.345 201.381 105.044 201.658 104.44H204.678C204.523 105.055 204.241 105.608 203.831 106.1C203.433 106.591 202.93 106.977 202.322 107.256C201.713 107.536 201.033 107.675 200.281 107.675C199.374 107.675 198.566 107.48 197.858 107.089C197.15 106.698 196.597 106.139 196.199 105.412C195.801 104.686 195.602 103.837 195.602 102.865C195.602 101.892 195.795 101.043 196.182 100.317C196.581 99.5904 197.134 99.0316 197.842 98.6405C198.55 98.2494 199.363 98.0538 200.281 98.0538C201.199 98.0538 201.973 98.2438 202.67 98.6237C203.367 99.0037 203.909 99.5457 204.296 100.25C204.694 100.954 204.893 101.775 204.893 102.714ZM201.99 101.959C201.99 101.468 201.824 101.077 201.492 100.786C201.16 100.496 200.745 100.35 200.247 100.35C199.75 100.35 199.368 100.49 199.036 100.769C198.715 101.049 198.516 101.445 198.439 101.959H201.99ZM215.065 105.111V107.541H213.621C212.592 107.541 211.79 107.29 211.215 106.787C210.64 106.273 210.352 105.44 210.352 104.289V100.568H209.224V98.1879H210.352V95.9082H213.19V98.1879H215.048V100.568H213.19V104.323C213.19 104.602 213.256 104.803 213.389 104.926C213.522 105.049 213.743 105.111 214.053 105.111H215.065ZM218.073 97.2157C217.576 97.2157 217.166 97.0704 216.846 96.7799C216.536 96.4782 216.381 96.1094 216.381 95.6736C216.381 95.2378 216.536 94.8578 216.846 94.5673C217.166 94.2655 217.576 94.1147 218.073 94.1147C218.571 94.1147 218.958 94.2655 219.268 94.5673C219.589 94.8578 219.749 95.2266 219.749 95.6736C219.749 96.1206 219.589 96.4782 219.268 96.7799C218.958 97.0704 218.56 97.2157 218.073 97.2157ZM219.484 98.1879V107.541H216.646V98.1879H219.484ZM233.784 102.714C233.784 102.982 233.767 103.261 233.734 103.552H227.313C227.357 104.133 227.539 104.58 227.86 104.893C228.192 105.195 228.596 105.345 229.072 105.345C229.779 105.345 230.272 105.044 230.548 104.44H233.568C233.413 105.055 233.131 105.608 232.722 106.1C232.324 106.591 231.82 106.977 231.212 107.256C230.604 107.536 229.923 107.675 229.171 107.675C228.264 107.675 227.457 107.48 226.749 107.089C226.041 106.698 225.488 106.139 225.089 105.412C224.691 104.686 224.492 103.837 224.492 102.865C224.492 101.892 224.686 101.043 225.073 100.317C225.471 99.5904 226.024 99.0316 226.732 98.6405C227.44 98.2494 228.253 98.0538 229.171 98.0538C230.089 98.0538 230.864 98.2438 231.56 98.6237C232.257 99.0037 232.799 99.5457 233.186 100.25C233.585 100.954 233.784 101.775 233.784 102.714ZM230.88 101.959C230.88 101.468 230.714 101.077 230.382 100.786C230.05 100.496 229.636 100.35 229.138 100.35C228.64 100.35 228.258 100.49 227.927 100.769C227.606 101.049 227.407 101.445 227.329 101.959H230.88ZM239.046 107.675C238.239 107.675 237.52 107.536 236.889 107.256C236.259 106.977 235.761 106.597 235.396 106.116C235.031 105.625 234.826 105.077 234.782 104.474H237.586C237.619 104.798 237.769 105.06 238.034 105.262C238.3 105.463 238.626 105.563 239.013 105.563C239.367 105.563 239.638 105.496 239.826 105.362C240.025 105.217 240.125 105.032 240.125 104.809C240.125 104.541 239.987 104.345 239.71 104.222C239.434 104.088 238.986 103.943 238.366 103.787C237.702 103.63 237.149 103.468 236.707 103.3C236.264 103.122 235.883 102.848 235.562 102.479C235.241 102.099 235.081 101.591 235.081 100.954C235.081 100.417 235.225 99.9312 235.512 99.4954C235.811 99.0484 236.242 98.6964 236.806 98.4394C237.382 98.1823 238.062 98.0538 238.847 98.0538C240.009 98.0538 240.921 98.3444 241.585 98.9255C242.26 99.5065 242.647 100.278 242.747 101.239H240.125C240.081 100.915 239.937 100.658 239.693 100.468C239.461 100.278 239.151 100.183 238.764 100.183C238.432 100.183 238.178 100.25 238.001 100.384C237.824 100.507 237.736 100.68 237.736 100.903C237.736 101.172 237.874 101.373 238.15 101.507C238.438 101.641 238.88 101.775 239.478 101.909C240.164 102.088 240.722 102.267 241.154 102.446C241.585 102.613 241.961 102.893 242.282 103.284C242.614 103.664 242.785 104.178 242.796 104.826C242.796 105.373 242.641 105.865 242.332 106.301C242.033 106.725 241.596 107.061 241.021 107.307C240.457 107.552 239.799 107.675 239.046 107.675ZM249.693 105.111V107.541H248.25C247.221 107.541 246.419 107.29 245.844 106.787C245.269 106.273 244.981 105.44 244.981 104.289V100.568H243.853V98.1879H244.981V95.9082H247.818V98.1879H249.677V100.568H247.818V104.323C247.818 104.602 247.885 104.803 248.017 104.926C248.15 105.049 248.371 105.111 248.681 105.111H249.693ZM260 102.714C260 102.982 259.983 103.261 259.95 103.552H253.529C253.573 104.133 253.756 104.58 254.076 104.893C254.408 105.195 254.812 105.345 255.288 105.345C255.996 105.345 256.488 105.044 256.764 104.44H259.784C259.629 105.055 259.347 105.608 258.938 106.1C258.54 106.591 258.037 106.977 257.428 107.256C256.82 107.536 256.139 107.675 255.387 107.675C254.48 107.675 253.673 107.48 252.965 107.089C252.257 106.698 251.704 106.139 251.306 105.412C250.907 104.686 250.708 103.837 250.708 102.865C250.708 101.892 250.902 101.043 251.289 100.317C251.687 99.5904 252.24 99.0316 252.948 98.6405C253.656 98.2494 254.469 98.0538 255.387 98.0538C256.305 98.0538 257.08 98.2438 257.777 98.6237C258.473 99.0037 259.016 99.5457 259.403 100.25C259.801 100.954 260 101.775 260 102.714ZM257.096 101.959C257.096 101.468 256.93 101.077 256.599 100.786C256.267 100.496 255.852 100.35 255.354 100.35C254.856 100.35 254.475 100.49 254.143 100.769C253.822 101.049 253.623 101.445 253.546 101.959H257.096Z" fill="#484554"/>
<path d="M265.033 104.796C265.412 104.507 265.584 104.373 265.551 104.394C266.642 103.525 267.499 102.812 268.122 102.255C268.756 101.697 269.29 101.113 269.725 100.501C270.159 99.8901 270.376 99.2949 270.376 98.7158C270.376 98.2761 270.27 97.933 270.058 97.6863C269.847 97.4397 269.53 97.3164 269.107 97.3164C268.684 97.3164 268.35 97.4719 268.105 97.7828C267.871 98.0831 267.755 98.5121 267.755 99.0697H265C265.022 98.1582 265.223 97.3968 265.601 96.7855C265.991 96.1743 266.497 95.7239 267.12 95.4343C267.755 95.1448 268.456 95 269.224 95C270.548 95 271.544 95.3271 272.212 95.9812C272.891 96.6354 273.23 97.4879 273.23 98.5389C273.23 99.6863 272.824 100.753 272.012 101.74C271.199 102.716 270.164 103.67 268.907 104.603H273.414V106.839H265.033V104.796ZM274.672 100.968C274.672 99.1233 275.039 97.6702 275.774 96.6086C276.519 95.5469 277.716 95.0161 279.363 95.0161C281.01 95.0161 282.201 95.5469 282.935 96.6086C283.681 97.6702 284.054 99.1233 284.054 100.968C284.054 102.812 283.681 104.298 282.935 105.359C282.201 106.421 281.01 106.952 279.363 106.952C277.716 106.952 276.519 106.421 275.774 105.359C275.039 104.298 274.672 102.834 274.672 100.968ZM281.249 100.968C281.249 99.8847 281.127 99.0536 280.882 98.4745C280.637 97.8847 280.131 97.5898 279.363 97.5898C278.595 97.5898 278.088 97.8847 277.844 98.4745C277.599 99.0536 277.476 99.8847 277.476 100.968C277.476 101.697 277.521 102.303 277.61 102.786C277.699 103.257 277.877 103.643 278.144 103.944C278.422 104.233 278.829 104.378 279.363 104.378C279.897 104.378 280.298 104.233 280.565 103.944C280.843 103.643 281.027 103.257 281.116 102.786C281.205 102.303 281.249 101.697 281.249 100.968ZM285.462 104.796C285.84 104.507 286.013 104.373 285.979 104.394C287.07 103.525 287.927 102.812 288.55 102.255C289.185 101.697 289.719 101.113 290.153 100.501C290.587 99.8901 290.804 99.2949 290.804 98.7158C290.804 98.2761 290.698 97.933 290.487 97.6863C290.275 97.4397 289.958 97.3164 289.535 97.3164C289.112 97.3164 288.779 97.4719 288.534 97.7828C288.3 98.0831 288.183 98.5121 288.183 99.0697H285.428C285.451 98.1582 285.651 97.3968 286.03 96.7855C286.419 96.1743 286.925 95.7239 287.549 95.4343C288.183 95.1448 288.884 95 289.652 95C290.977 95 291.973 95.3271 292.641 95.9812C293.319 96.6354 293.659 97.4879 293.659 98.5389C293.659 99.6863 293.253 100.753 292.44 101.74C291.628 102.716 290.593 103.67 289.335 104.603H293.843V106.839H285.462V104.796ZM295.167 104.909V102.689L300.442 95.4182H303.631V102.528H305V104.909H303.631V107H300.776V104.909H295.167ZM300.977 98.4424L298.172 102.528H300.977V98.4424Z" fill="#19BC86"/>
<path opacity="0.36" d="M29.5269 57.4076C29.5269 57.4076 35.4098 56.8826 37.698 52.3576L55.2892 59.4101L57.5324 63.5701L61.1596 62.1976L63.238 66.6726L69.498 64.3451L67.7869 60.3426L39.1169 48.8476C40.1336 43.9501 37.5306 38.8801 32.7294 36.9551C27.3411 34.7952 21.2234 37.4151 19.0651 42.8076C18.0459 45.3551 18.0933 48.0676 18.9951 50.4476C18.9402 50.3376 18.8927 50.2351 18.8552 50.1401C18.8552 50.1401 21.1959 57.8626 29.5294 57.4051L29.5269 57.4076ZM23.4541 44.5701C23.1394 45.3551 22.2501 45.7376 21.4657 45.4226C20.6813 45.1076 20.2991 44.2176 20.6138 43.4326C20.9286 42.6476 21.8179 42.2651 22.6023 42.5801C23.3867 42.8951 23.7689 43.7851 23.4541 44.5701Z" fill="#6880E4"/>
<path d="M37.9726 51.3827L55.5639 58.4352L57.8071 62.5951L61.5991 60.8551L63.5101 65.6976L69.7702 63.3701L68.0591 59.3676L39.389 47.8727C40.4057 42.9752 37.8028 37.9052 33.0015 35.9802C27.6133 33.8202 21.4956 36.4402 19.3372 41.8327C17.1789 47.2252 19.7969 53.3477 25.1852 55.5077C29.9639 57.4227 35.3147 55.5802 37.9701 51.3777L37.9726 51.3827ZM22.877 41.6052C23.6614 41.9202 24.0436 42.8102 23.7288 43.5952C23.4141 44.3802 22.5247 44.7627 21.7404 44.4477C20.956 44.1327 20.5738 43.2427 20.8885 42.4577C21.2033 41.6727 22.0926 41.2902 22.877 41.6052Z" fill="#19BC86"/>
<path d="M37.9727 51.3826C37.9727 51.3826 35.01 54.8276 29.6442 55.6501C24.2784 56.4701 19.8943 51.0726 19.1274 49.1676C19.1274 49.1676 21.4681 56.8901 29.8016 56.4326C29.8016 56.4326 35.6845 55.9076 37.9727 51.3826Z" fill="#6ABAA3"/>
<path d="M69.7702 63.3702C69.7702 63.3702 63.7374 65.1427 63.7349 64.9752C63.7324 64.8077 61.5991 60.8527 61.5991 60.8527C61.5991 60.8527 57.9445 62.1702 57.8695 62.0677C57.7921 61.9652 55.5638 58.4327 55.5638 58.4327L57.8071 62.5927L61.4342 61.2202L63.5126 65.6952L69.7727 63.3677L69.7702 63.3702Z" fill="#6ABAA3"/>
<path d="M69.7702 63.3702L55.5638 58.4352L69.0458 63.5827L69.7702 63.3702Z" fill="#6ABAA3"/>
<path d="M24.8828 37.3952C24.8828 37.3952 30.8956 35.1977 35.4246 39.3902C35.4246 39.3902 39.1092 43.1177 37.6004 48.8077C37.6004 48.8077 38.647 42.1677 33.4161 38.7152C33.4161 38.7152 29.8939 36.7652 24.8828 37.3927V37.3952Z" fill="#47A588"/>
</g>
</g>
<g filter="url(#filter1_d_676_4351)">


</g>
<defs>
<filter id="filter0_d_676_4351" x="3.57488" y="1.82536" width="324.85" height="167.6" filterUnits="userSpaceOnUse" color-interpolation-filters="sRGB">
<feFlood flood-opacity="0" result="BackgroundImageFix"/>
<feColorMatrix in="SourceAlpha" type="matrix" values="0 0 0 0 0 0 0 0 0 0 0 0 0 0 0 0 0 0 127 0" result="hardAlpha"/>
<feOffset dy="0.5"/>
<feGaussianBlur stdDeviation="1.3375"/>
<feComposite in2="hardAlpha" operator="out"/>
<feColorMatrix type="matrix" values="0 0 0 0 0.388333 0 0 0 0 0.388333 0 0 0 0 0.388333 0 0 0 0.25 0"/>
<feBlend mode="normal" in2="BackgroundImageFix" result="effect1_dropShadow_676_4351"/>
<feBlend mode="normal" in="SourceGraphic" in2="effect1_dropShadow_676_4351" result="shape"/>
</filter>
<filter id="filter1_d_676_4351" x="18.325" y="134.825" width="80.35" height="25.35" filterUnits="userSpaceOnUse" color-interpolation-filters="sRGB">
<feFlood flood-opacity="0" result="BackgroundImageFix"/>
<feColorMatrix in="SourceAlpha" type="matrix" values="0 0 0 0 0 0 0 0 0 0 0 0 0 0 0 0 0 0 127 0" result="hardAlpha"/>
<feOffset dy="0.5"/>
<feGaussianBlur stdDeviation="1.3375"/>
<feComposite in2="hardAlpha" operator="out"/>
<feColorMatrix type="matrix" values="0 0 0 0 0.388333 0 0 0 0 0.388333 0 0 0 0 0.388333 0 0 0 0.25 0"/>
<feBlend mode="normal" in2="BackgroundImageFix" result="effect1_dropShadow_676_4351"/>
<feBlend mode="normal" in="SourceGraphic" in2="effect1_dropShadow_676_4351" result="shape"/>
</filter>
</defs>
</svg>