<svg width="172" height="172" viewBox="0 0 172 172" fill="none" xmlns="http://www.w3.org/2000/svg">
<g filter="url(#filter0_d_700_6219)">
<path d="M8 18.4479C8 10.4686 14.4685 4 22.4479 4H150.095C158.075 4 164.543 10.4685 164.543 18.4479V146.095C164.543 154.075 158.075 160.543 150.095 160.543H22.4479C14.4686 160.543 8 154.075 8 146.095V18.4479Z" fill="white"/>
<g clip-path="url(#clip0_700_6219)">
<path d="M125 49.4321C125.002 48.6702 124.984 48.0558 124.754 47.6656C124.522 47.2724 124.15 47.2417 123.686 47.2417H120.302C120.302 46.3907 120.301 45.5489 120.299 44.7164C120.293 42.2679 120.286 39.9577 120.319 37.6167C120.328 36.8732 120.238 36.3663 120.038 36.0253C119.775 35.5799 119.381 35.5338 119.065 35.543C117.859 35.5768 116.629 35.5706 115.439 35.5645C114.911 35.5614 114.382 35.5584 113.855 35.5584L104.052 35.5706C97.5168 35.5799 90.9832 35.586 84.4478 35.5891C77.5802 35.5952 70.7108 35.5891 63.8432 35.5891H53.2288C51.8272 35.5891 51.6976 35.8011 51.6976 38.1297V47.214H50.807C49.8945 47.2171 49.0112 47.2202 48.1279 47.2079H48.1096C47.7264 47.2079 47.4471 47.3676 47.2592 47.6964C47.0693 48.0312 46.9854 48.5013 47.0018 49.1433C47.0255 50.0865 47.0164 51.0542 47.0055 51.9912L47 52.6794C46.9945 53.2907 47.0821 53.7362 47.2701 54.0434C47.4508 54.3383 47.7154 54.4766 48.0512 54.455C48.3834 54.4305 48.7228 54.4366 49.0805 54.4428C49.1608 54.4428 49.243 54.4458 49.3269 54.4458V107.551C49.3269 107.677 49.3287 107.806 49.3287 107.932C49.3306 108.184 49.3306 108.432 49.3269 108.681C49.316 109.271 49.4036 109.729 49.5861 110.042C49.7759 110.368 50.0587 110.512 50.4329 110.518C51.1811 110.506 51.944 110.515 52.6831 110.525C53.1668 110.531 53.6504 110.537 54.134 110.537H70.2363C71.3094 110.537 72.3825 110.537 73.4556 110.537C76.0162 110.54 78.6661 110.543 81.2741 110.531C82.5698 110.525 82.7651 110.184 82.7651 107.935C82.7651 103.391 82.7633 98.8474 82.7597 94.3068L82.756 87.7109V81.0167H89.2349V87.8215C89.233 94.6447 89.2312 101.468 89.2312 108.294C89.2312 110.07 89.4867 110.531 90.4722 110.531L121.085 110.54H121.094C121.768 110.54 122.162 110.518 122.412 110.094C122.662 109.674 122.673 109.004 122.673 107.855V54.4274C122.759 54.4274 122.843 54.4243 122.923 54.4243C123.266 54.4151 123.591 54.409 123.901 54.4397C124.264 54.4766 124.533 54.3445 124.721 54.0372C124.914 53.7239 125.004 53.2538 124.995 52.6026C124.985 51.8867 124.991 51.1556 124.995 50.4459C124.996 50.108 124.998 49.77 125 49.4321ZM106.348 38.3909H118.658V47.1956H106.348V38.3909ZM53.3292 38.4185H65.6555V47.1157H53.3292V38.4185ZM60.2625 107.717H56.3788V78.8478H60.2625V107.717ZM59.7241 75.0199C59.3664 75.6128 58.8736 75.9723 58.3243 75.9723C57.775 75.9723 57.2804 75.619 56.9044 74.9738C56.5267 74.3287 56.3223 73.4685 56.3296 72.5561C56.346 70.8203 57.284 69.315 58.3462 69.315H58.3736C58.8773 69.3272 59.381 69.7051 59.7515 70.3503C60.1201 70.9923 60.3264 71.8433 60.3172 72.6851C60.3081 73.6067 60.0836 74.427 59.7241 75.0199ZM65.639 107.71H61.9251V105.204C61.9233 102.995 61.9233 100.804 61.9251 98.6139V95.3574C61.9269 89.6555 61.9287 83.9537 61.936 78.2549V78.0798C61.9397 77.4868 61.9433 76.814 61.6714 76.3624C61.582 76.215 61.4743 76.1074 61.3429 76.0399C62.5383 72.5346 61.7262 69.5239 60.6111 67.954C59.3354 66.1599 57.3205 66.1752 56.0248 67.9939C54.6013 69.9939 54.3549 72.8971 55.3294 76.0276C54.7089 76.4792 54.7108 77.5882 54.7108 78.2272C54.7254 85.6157 54.7235 93.1301 54.7235 100.399V107.704H51.0297V54.5134H65.639V107.71ZM67.3728 38.4247H104.596V47.1649H67.3728V38.4247ZM92.9105 107.695H90.881V100.144C90.881 93.6862 90.881 87.2286 90.8792 80.7709C90.8792 79.7264 90.8628 79.0628 90.6146 78.6481C90.3682 78.2334 89.9813 78.2057 89.3772 78.2057H88.5085C86.4827 78.2149 84.4569 78.2241 82.4311 78.2364C81.3562 78.2426 81.1226 78.6389 81.1226 80.4668C81.1189 87.0473 81.1189 93.6278 81.1208 100.208V107.68H79.095V65.5547H92.9105V107.695ZM104.607 107.689H94.5804V90.3498C94.5804 81.9322 94.5785 73.5146 94.5804 65.0969C94.5804 64.2613 94.5621 63.5916 94.3249 63.1707C94.0803 62.7406 93.6898 62.7068 93.2025 62.7068C88.4191 62.7068 83.6338 62.7099 78.8504 62.7222C77.666 62.7222 77.4105 63.1584 77.4105 65.1645C77.4123 73.7911 77.416 82.4207 77.4196 91.0472L77.4233 101.898V107.701H67.3874V54.495H104.607V107.689ZM115.636 107.714H111.73V78.857H115.636V107.714ZM113.65 75.96H113.645C112.572 75.9569 111.692 74.5191 111.683 72.7557C111.679 71.8249 111.882 70.9647 112.254 70.3349C112.624 69.7082 113.13 69.3641 113.679 69.3641H113.688C114.223 69.3641 114.725 69.7205 115.101 70.3595C115.471 70.9893 115.672 71.8187 115.67 72.6943C115.665 74.4976 114.758 75.96 113.65 75.96ZM120.958 107.683H117.278V100.368C117.276 93.084 117.276 85.5573 117.287 78.1504C117.287 77.4807 117.267 76.8417 117.008 76.4054C116.915 76.2488 116.8 76.1351 116.663 76.0644C117.632 72.5561 117.357 69.7788 115.84 67.8004C114.572 66.1445 112.57 66.2305 111.378 67.9939C109.927 70.1352 109.688 72.9155 110.675 76.0583C110.062 76.4054 110.064 77.4838 110.066 78.1105C110.079 86.0827 110.075 94.1869 110.073 102.024V107.124C110.071 107.305 110.064 107.492 110.057 107.692H106.328V54.4919H120.958V107.683Z" fill="#484554"/>
<path d="M91.6165 68.836C91.6183 68.3015 91.5234 67.8898 91.3336 67.6133C91.1493 67.3399 90.8792 67.2017 90.5343 67.2017H88.952C86.4553 67.2109 83.8729 67.217 81.3343 67.2078H81.327C80.9419 67.2078 80.659 67.3491 80.4619 67.6379C80.263 67.9359 80.1681 68.3691 80.1736 68.962C80.1845 70.1202 80.1827 71.2968 80.179 72.4335C80.179 73.0018 80.179 73.5733 80.179 74.1416C80.179 75.8835 80.4364 76.2645 81.6117 76.2737C82.1866 76.2798 82.7651 76.2829 83.34 76.2829C83.8127 76.2829 84.2817 76.2798 84.7453 76.2798H87.5649H90.5032C90.8682 76.2798 91.1493 76.1354 91.3409 75.8559C91.5271 75.5794 91.6202 75.1861 91.6183 74.6792C91.611 72.7223 91.611 70.7561 91.6183 68.8391L91.6165 68.836ZM89.9338 69.6901V73.7914H81.8727V69.6901H89.9338Z" fill="#484554"/>
</g>
<path d="M67.799 142.511L66.103 140.479C65.6337 140.597 65.1537 140.655 64.663 140.655C63.6177 140.655 62.6577 140.41 61.783 139.919C60.9083 139.429 60.215 138.751 59.703 137.887C59.191 137.013 58.935 136.026 58.935 134.927C58.935 133.839 59.191 132.863 59.703 131.999C60.215 131.125 60.9083 130.442 61.783 129.951C62.6577 129.461 63.6177 129.215 64.663 129.215C65.719 129.215 66.679 129.461 67.543 129.951C68.4177 130.442 69.1057 131.125 69.607 131.999C70.119 132.863 70.375 133.839 70.375 134.927C70.375 135.919 70.1617 136.826 69.735 137.647C69.319 138.458 68.7483 139.119 68.023 139.631L70.583 142.511H67.799ZM61.239 134.927C61.239 135.674 61.383 136.33 61.671 136.895C61.959 137.461 62.359 137.898 62.871 138.207C63.3937 138.506 63.991 138.655 64.663 138.655C65.335 138.655 65.927 138.506 66.439 138.207C66.951 137.898 67.351 137.461 67.639 136.895C67.927 136.33 68.071 135.674 68.071 134.927C68.071 134.181 67.927 133.53 67.639 132.975C67.351 132.41 66.951 131.978 66.439 131.679C65.927 131.381 65.335 131.231 64.663 131.231C63.991 131.231 63.3937 131.381 62.871 131.679C62.359 131.978 61.959 132.41 61.671 132.975C61.383 133.53 61.239 134.181 61.239 134.927ZM80.4408 131.679V140.543H78.1848V139.423C77.8968 139.807 77.5181 140.111 77.0488 140.335C76.5901 140.549 76.0888 140.655 75.5448 140.655C74.8514 140.655 74.2381 140.511 73.7048 140.223C73.1714 139.925 72.7501 139.493 72.4408 138.927C72.1421 138.351 71.9928 137.669 71.9928 136.879V131.679H74.2328V136.559C74.2328 137.263 74.4088 137.807 74.7608 138.191C75.1128 138.565 75.5928 138.751 76.2008 138.751C76.8194 138.751 77.3048 138.565 77.6568 138.191C78.0088 137.807 78.1848 137.263 78.1848 136.559V131.679H80.4408ZM83.7869 130.623C83.3922 130.623 83.0615 130.501 82.7949 130.255C82.5389 129.999 82.4109 129.685 82.4109 129.311C82.4109 128.938 82.5389 128.629 82.7949 128.383C83.0615 128.127 83.3922 127.999 83.7869 127.999C84.1815 127.999 84.5069 128.127 84.7629 128.383C85.0295 128.629 85.1629 128.938 85.1629 129.311C85.1629 129.685 85.0295 129.999 84.7629 130.255C84.5069 130.501 84.1815 130.623 83.7869 130.623ZM84.8909 131.679V140.543H82.6509V131.679H84.8909ZM92.016 131.551C93.072 131.551 93.9253 131.887 94.576 132.559C95.2267 133.221 95.552 134.149 95.552 135.343V140.543H93.312V135.647C93.312 134.943 93.136 134.405 92.784 134.031C92.432 133.647 91.952 133.455 91.344 133.455C90.7253 133.455 90.2347 133.647 89.872 134.031C89.52 134.405 89.344 134.943 89.344 135.647V140.543H87.104V131.679H89.344V132.783C89.6427 132.399 90.0213 132.101 90.48 131.887C90.9493 131.663 91.4613 131.551 92.016 131.551ZM100.29 133.519V137.807C100.29 138.106 100.359 138.325 100.498 138.463C100.647 138.591 100.893 138.655 101.234 138.655H102.274V140.543H100.866C98.9781 140.543 98.0341 139.626 98.0341 137.791V133.519H96.9781V131.679H98.0341V129.487H100.29V131.679H102.274V133.519H100.29ZM103.309 136.079C103.309 135.183 103.485 134.389 103.837 133.695C104.2 133.002 104.685 132.469 105.293 132.095C105.912 131.722 106.6 131.535 107.357 131.535C108.019 131.535 108.595 131.669 109.085 131.935C109.587 132.202 109.987 132.538 110.285 132.943V131.679H112.541V140.543H110.285V139.247C109.997 139.663 109.597 140.01 109.085 140.287C108.584 140.554 108.003 140.687 107.341 140.687C106.595 140.687 105.912 140.495 105.293 140.111C104.685 139.727 104.2 139.189 103.837 138.495C103.485 137.791 103.309 136.986 103.309 136.079ZM110.285 136.111C110.285 135.567 110.179 135.103 109.965 134.719C109.752 134.325 109.464 134.026 109.101 133.823C108.739 133.61 108.349 133.503 107.933 133.503C107.517 133.503 107.133 133.605 106.781 133.807C106.429 134.01 106.141 134.309 105.917 134.703C105.704 135.087 105.597 135.546 105.597 136.079C105.597 136.613 105.704 137.082 105.917 137.487C106.141 137.882 106.429 138.186 106.781 138.399C107.144 138.613 107.528 138.719 107.933 138.719C108.349 138.719 108.739 138.618 109.101 138.415C109.464 138.202 109.752 137.903 109.965 137.519C110.179 137.125 110.285 136.655 110.285 136.111Z" fill="#484554"/>
</g>
<defs>
<filter id="filter0_d_700_6219" x="0.8" y="0.8" width="170.943" height="170.943" filterUnits="userSpaceOnUse" color-interpolation-filters="sRGB">
<feFlood flood-opacity="0" result="BackgroundImageFix"/>
<feColorMatrix in="SourceAlpha" type="matrix" values="0 0 0 0 0 0 0 0 0 0 0 0 0 0 0 0 0 0 127 0" result="hardAlpha"/>
<feOffset dy="4"/>
<feGaussianBlur stdDeviation="3.6"/>
<feComposite in2="hardAlpha" operator="out"/>
<feColorMatrix type="matrix" values="0 0 0 0 0 0 0 0 0 0 0 0 0 0 0 0 0 0 0.25 0"/>
<feBlend mode="normal" in2="BackgroundImageFix" result="effect1_dropShadow_700_6219"/>
<feBlend mode="normal" in="SourceGraphic" in2="effect1_dropShadow_700_6219" result="shape"/>
</filter>
<clipPath id="clip0_700_6219">
<rect width="78" height="75" fill="white" transform="translate(47 35.5435)"/>
</clipPath>
</defs>
</svg>
