<svg width="15" height="16" viewBox="0 0 15 16" fill="none" xmlns="http://www.w3.org/2000/svg">
<path d="M11.6811 10.9113L14.1374 13.3603C14.1375 13.3604 14.1376 13.3605 14.1376 13.3606C14.2219 13.4442 14.2888 13.5436 14.3344 13.6532C14.3801 13.7629 14.4036 13.8805 14.4036 13.9993C14.4036 14.1181 14.3801 14.2358 14.3344 14.3454C14.2888 14.4549 14.222 14.5543 14.1379 14.6379M11.6811 10.9113L6.74968 13.2494M11.6811 10.9113C12.4727 9.85602 12.901 8.57106 12.8994 7.24949M11.6811 10.9113L12.7494 7.24968M14.1379 14.6379C14.0543 14.722 13.9549 14.7888 13.8454 14.8344C13.7358 14.8801 13.6181 14.9036 13.4993 14.9036C13.3805 14.9036 13.2629 14.8801 13.1532 14.8344C13.0436 14.7888 12.9442 14.7219 12.8606 14.6376C12.8605 14.6376 12.8604 14.6375 12.8603 14.6374L10.4113 12.1811C9.35602 12.9727 8.07106 13.401 6.74949 13.3994M14.1379 14.6379C14.1377 14.638 14.1376 14.6381 14.1374 14.6383L14.0318 14.5318L14.1383 14.6374C14.1381 14.6376 14.138 14.6377 14.1379 14.6379ZM6.74949 13.3994L6.74968 13.2494M6.74949 13.3994C6.74956 13.3994 6.74962 13.3994 6.74968 13.3994V13.2494M6.74949 13.3994C5.53327 13.3993 4.34436 13.0387 3.3331 12.363C2.32179 11.6872 1.53357 10.7268 1.06812 9.60306C0.602664 8.47935 0.48088 7.24286 0.718167 6.04994C0.955454 4.85702 1.54115 3.76125 2.4012 2.9012C3.26125 2.04115 4.35702 1.45545 5.54994 1.21817C6.74286 0.98088 7.97935 1.10266 9.10306 1.56812C10.2268 2.03357 11.1872 2.82179 11.863 3.8331C12.5387 4.84436 12.8993 6.03327 12.8994 7.24949M6.74968 13.2494C5.56306 13.2494 4.40308 12.8975 3.41644 12.2382C2.4298 11.579 1.6608 10.642 1.2067 9.54566C0.7526 8.44936 0.633786 7.24303 0.865285 6.0792C1.09678 4.91538 1.6682 3.84634 2.50727 3.00727C3.34634 2.1682 4.41538 1.59678 5.5792 1.36528C6.74303 1.13379 7.94936 1.2526 9.04566 1.7067C10.142 2.1608 11.079 2.9298 11.7382 3.91644C12.3975 4.90308 12.7494 6.06306 12.7494 7.24968M12.8994 7.24949L12.7494 7.24968M12.8994 7.24949C12.8994 7.24956 12.8994 7.24962 12.8994 7.24968H12.7494M2.39992 7.24968C2.39992 6.38938 2.65503 5.5484 3.13299 4.83308C3.61095 4.11777 4.29029 3.56025 5.0851 3.23103C5.87991 2.9018 6.75451 2.81567 7.59828 2.9835C8.44205 3.15134 9.2171 3.56561 9.82542 4.17394C10.4337 4.78226 10.848 5.55731 11.0159 6.40108C11.1837 7.24486 11.0976 8.11945 10.7683 8.91426C10.4391 9.70908 9.88159 10.3884 9.16628 10.8664C8.45096 11.3443 7.60998 11.5994 6.74968 11.5994C5.59605 11.5994 4.48967 11.1412 3.67394 10.3254C2.8582 9.50969 2.39992 8.40331 2.39992 7.24968Z" fill="#797687" stroke="#797687" stroke-width="0.3"/>
</svg>
