<svg width="7" height="8" viewBox="0 0 7 8" fill="none" xmlns="http://www.w3.org/2000/svg">
<path d="M0.130737 6.8899C0.130737 7.09677 0.209872 7.29517 0.350733 7.44144C0.491593 7.58772 0.682641 7.6699 0.881848 7.6699H6.13963C6.33883 7.6699 6.52988 7.58772 6.67074 7.44144C6.8116 7.29517 6.89074 7.09677 6.89074 6.8899V1.4299C6.89074 1.22303 6.8116 1.02464 6.67074 0.878359C6.52988 0.732081 6.33883 0.649902 6.13963 0.649902H0.881848C0.682641 0.649902 0.491593 0.732081 0.350733 0.878359C0.209872 1.02464 0.130737 1.22303 0.130737 1.4299V6.8899ZM3.51074 1.8199H5.76407V4.1599H5.01296L3.51074 1.8199ZM1.2574 4.1599H2.00852V5.7199H3.51074V6.4999H1.2574V4.1599Z" fill="#19BC86"/>
</svg>
