<svg width="11" height="12" viewBox="0 0 11 12" fill="none" xmlns="http://www.w3.org/2000/svg">
<path d="M5.875 9.5C5.97389 9.5 6.07056 9.47068 6.15279 9.41574C6.23501 9.3608 6.2991 9.28271 6.33694 9.19134C6.37478 9.09998 6.38469 8.99945 6.36539 8.90246C6.3461 8.80546 6.29848 8.71637 6.22855 8.64645C6.15863 8.57652 6.06954 8.5289 5.97255 8.50961C5.87556 8.49032 5.77502 8.50022 5.68366 8.53806C5.5923 8.5759 5.51421 8.63999 5.45927 8.72222C5.40433 8.80444 5.375 8.90111 5.375 9C5.375 9.13261 5.42768 9.25979 5.52145 9.35355C5.61522 9.44732 5.74239 9.5 5.875 9.5ZM8.375 9.5C8.47389 9.5 8.57056 9.47068 8.65279 9.41574C8.73501 9.3608 8.7991 9.28271 8.83694 9.19134C8.87478 9.09998 8.88469 8.99945 8.86539 8.90246C8.8461 8.80546 8.79848 8.71637 8.72855 8.64645C8.65863 8.57652 8.56954 8.5289 8.47255 8.50961C8.37556 8.49032 8.27502 8.50022 8.18366 8.53806C8.0923 8.5759 8.01421 8.63999 7.95927 8.72222C7.90433 8.80444 7.875 8.90111 7.875 9C7.875 9.13261 7.92768 9.25979 8.02145 9.35355C8.11522 9.44732 8.24239 9.5 8.375 9.5ZM8.375 7.5C8.47389 7.5 8.57056 7.47068 8.65279 7.41574C8.73501 7.3608 8.7991 7.28271 8.83694 7.19134C8.87478 7.09998 8.88469 6.99945 8.86539 6.90246C8.8461 6.80547 8.79848 6.71637 8.72855 6.64645C8.65863 6.57652 8.56954 6.5289 8.47255 6.50961C8.37556 6.49032 8.27502 6.50022 8.18366 6.53806C8.0923 6.5759 8.01421 6.63999 7.95927 6.72222C7.90433 6.80444 7.875 6.90111 7.875 7C7.875 7.13261 7.92768 7.25979 8.02145 7.35355C8.11522 7.44732 8.24239 7.5 8.375 7.5ZM5.875 7.5C5.97389 7.5 6.07056 7.47068 6.15279 7.41574C6.23501 7.3608 6.2991 7.28271 6.33694 7.19134C6.37478 7.09998 6.38469 6.99945 6.36539 6.90246C6.3461 6.80547 6.29848 6.71637 6.22855 6.64645C6.15863 6.57652 6.06954 6.5289 5.97255 6.50961C5.87556 6.49032 5.77502 6.50022 5.68366 6.53806C5.5923 6.5759 5.51421 6.63999 5.45927 6.72222C5.40433 6.80444 5.375 6.90111 5.375 7C5.375 7.13261 5.42768 7.25979 5.52145 7.35355C5.61522 7.44732 5.74239 7.5 5.875 7.5ZM9.375 1.5H8.875V1C8.875 0.867392 8.82232 0.740215 8.72855 0.646447C8.63479 0.552678 8.50761 0.5 8.375 0.5C8.24239 0.5 8.11522 0.552678 8.02145 0.646447C7.92768 0.740215 7.875 0.867392 7.875 1V1.5H3.875V1C3.875 0.867392 3.82232 0.740215 3.72855 0.646447C3.63479 0.552678 3.50761 0.5 3.375 0.5C3.24239 0.5 3.11522 0.552678 3.02145 0.646447C2.92768 0.740215 2.875 0.867392 2.875 1V1.5H2.375C1.97718 1.5 1.59564 1.65804 1.31434 1.93934C1.03304 2.22064 0.875 2.60218 0.875 3V10C0.875 10.3978 1.03304 10.7794 1.31434 11.0607C1.59564 11.342 1.97718 11.5 2.375 11.5H9.375C9.77283 11.5 10.1544 11.342 10.4357 11.0607C10.717 10.7794 10.875 10.3978 10.875 10V3C10.875 2.60218 10.717 2.22064 10.4357 1.93934C10.1544 1.65804 9.77283 1.5 9.375 1.5ZM9.875 10C9.875 10.1326 9.82232 10.2598 9.72855 10.3536C9.63479 10.4473 9.50761 10.5 9.375 10.5H2.375C2.24239 10.5 2.11522 10.4473 2.02145 10.3536C1.92768 10.2598 1.875 10.1326 1.875 10V5.5H9.875V10ZM9.875 4.5H1.875V3C1.875 2.86739 1.92768 2.74022 2.02145 2.64645C2.11522 2.55268 2.24239 2.5 2.375 2.5H2.875V3C2.875 3.13261 2.92768 3.25979 3.02145 3.35355C3.11522 3.44732 3.24239 3.5 3.375 3.5C3.50761 3.5 3.63479 3.44732 3.72855 3.35355C3.82232 3.25979 3.875 3.13261 3.875 3V2.5H7.875V3C7.875 3.13261 7.92768 3.25979 8.02145 3.35355C8.11522 3.44732 8.24239 3.5 8.375 3.5C8.50761 3.5 8.63479 3.44732 8.72855 3.35355C8.82232 3.25979 8.875 3.13261 8.875 3V2.5H9.375C9.50761 2.5 9.63479 2.55268 9.72855 2.64645C9.82232 2.74022 9.875 2.86739 9.875 3V4.5ZM3.375 7.5C3.47389 7.5 3.57056 7.47068 3.65279 7.41574C3.73501 7.3608 3.7991 7.28271 3.83694 7.19134C3.87478 7.09998 3.88469 6.99945 3.86539 6.90246C3.8461 6.80547 3.79848 6.71637 3.72855 6.64645C3.65863 6.57652 3.56954 6.5289 3.47255 6.50961C3.37556 6.49032 3.27502 6.50022 3.18366 6.53806C3.0923 6.5759 3.01421 6.63999 2.95927 6.72222C2.90432 6.80444 2.875 6.90111 2.875 7C2.875 7.13261 2.92768 7.25979 3.02145 7.35355C3.11522 7.44732 3.24239 7.5 3.375 7.5ZM3.375 9.5C3.47389 9.5 3.57056 9.47068 3.65279 9.41574C3.73501 9.3608 3.7991 9.28271 3.83694 9.19134C3.87478 9.09998 3.88469 8.99945 3.86539 8.90246C3.8461 8.80546 3.79848 8.71637 3.72855 8.64645C3.65863 8.57652 3.56954 8.5289 3.47255 8.50961C3.37556 8.49032 3.27502 8.50022 3.18366 8.53806C3.0923 8.5759 3.01421 8.63999 2.95927 8.72222C2.90432 8.80444 2.875 8.90111 2.875 9C2.875 9.13261 2.92768 9.25979 3.02145 9.35355C3.11522 9.44732 3.24239 9.5 3.375 9.5Z" fill="#484554"/>
</svg>
